#N canvas 1001 332 457 487 8;
#N canvas 1497 236 743 737 patch 1;
#X obj 542 356 catch~ L;
#X obj 605 356 catch~ R;
#X obj 542 703 dac~ 1 2, f 11;
#X obj 605 680 *~;
#X obj 620 656 line~;
#X msg 620 635 \$1 20;
#X obj 542 680 *~;
#X obj 198 103 timer;
#X obj 198 81 t b b;
#X obj 87 457 line~;
#X obj 87 436 pack, f 19;
#X obj 198 125 change;
#X obj 12 482 *~;
#X obj 87 297 maxlib/average 10;
#X obj 313 420 f 0;
#X obj 214 407 f 0;
#X obj 244 407 + 1;
#X obj 214 450 pack, f 17;
#X obj 214 474 s time;
#N canvas 720 132 149 749 instances 0;
#X obj 25 25 readUnit 0;
#X obj 25 50 readUnit 1;
#X obj 25 75 readUnit 2;
#X obj 25 100 readUnit 3;
#X obj 25 125 readUnit 4;
#X obj 25 150 readUnit 5;
#X obj 25 175 readUnit 6;
#X obj 25 200 readUnit 7;
#X obj 25 225 readUnit 8;
#X obj 25 250 readUnit 9;
#X obj 25 275 readUnit 10;
#X obj 25 300 readUnit 11;
#X obj 25 325 readUnit 12;
#X obj 25 350 readUnit 13;
#X obj 25 375 readUnit 14;
#X obj 25 400 readUnit 15;
#X obj 25 425 readUnit 16;
#X obj 25 450 readUnit 17;
#X obj 25 475 readUnit 18;
#X obj 25 500 readUnit 19;
#X obj 25 525 readUnit 20;
#X obj 25 550 readUnit 21;
#X obj 25 575 readUnit 22;
#X obj 25 600 readUnit 23;
#X obj 25 625 readUnit 24;
#X obj 25 650 readUnit 25;
#X obj 25 675 readUnit 26;
#X obj 25 700 readUnit 27;
#X obj 25 725 readUnit 28;
#X obj 25 750 readUnit 29;
#X obj 25 775 readUnit 30;
#X obj 25 800 readUnit 31;
#X obj 25 825 readUnit 32;
#X obj 25 850 readUnit 33;
#X obj 25 875 readUnit 34;
#X obj 25 900 readUnit 35;
#X obj 25 925 readUnit 36;
#X obj 25 950 readUnit 37;
#X obj 25 975 readUnit 38;
#X obj 25 1000 readUnit 39;
#X obj 25 1025 readUnit 40;
#X obj 25 1050 readUnit 41;
#X obj 25 1075 readUnit 42;
#X obj 25 1100 readUnit 43;
#X obj 25 1125 readUnit 44;
#X obj 25 1150 readUnit 45;
#X obj 25 1175 readUnit 46;
#X obj 25 1200 readUnit 47;
#X obj 25 1225 readUnit 48;
#X obj 25 1250 readUnit 49;
#X obj 25 1275 readUnit 50;
#X obj 25 1300 readUnit 51;
#X obj 25 1325 readUnit 52;
#X obj 25 1350 readUnit 53;
#X obj 25 1375 readUnit 54;
#X obj 25 1400 readUnit 55;
#X obj 25 1425 readUnit 56;
#X obj 25 1450 readUnit 57;
#X obj 25 1475 readUnit 58;
#X obj 25 1500 readUnit 59;
#X obj 25 1525 readUnit 60;
#X obj 25 1550 readUnit 61;
#X obj 25 1575 readUnit 62;
#X obj 25 1600 readUnit 63;
#X obj 25 1625 readUnit 64;
#X obj 25 1650 readUnit 65;
#X obj 25 1675 readUnit 66;
#X obj 25 1700 readUnit 67;
#X obj 25 1725 readUnit 68;
#X obj 25 1750 readUnit 69;
#X obj 25 1775 readUnit 70;
#X obj 25 1800 readUnit 71;
#X obj 25 1825 readUnit 72;
#X obj 25 1850 readUnit 73;
#X obj 25 1875 readUnit 74;
#X obj 25 1900 readUnit 75;
#X obj 25 1925 readUnit 76;
#X obj 25 1950 readUnit 77;
#X obj 25 1975 readUnit 78;
#X obj 25 2000 readUnit 79;
#X obj 25 2025 readUnit 80;
#X obj 25 2050 readUnit 81;
#X obj 25 2075 readUnit 82;
#X obj 25 2100 readUnit 83;
#X obj 25 2125 readUnit 84;
#X obj 25 2150 readUnit 85;
#X obj 25 2175 readUnit 86;
#X obj 25 2200 readUnit 87;
#X obj 25 2225 readUnit 88;
#X obj 25 2250 readUnit 89;
#X obj 25 2275 readUnit 90;
#X obj 25 2300 readUnit 91;
#X obj 25 2325 readUnit 92;
#X obj 25 2350 readUnit 93;
#X obj 25 2375 readUnit 94;
#X obj 25 2400 readUnit 95;
#X obj 25 2425 readUnit 96;
#X obj 25 2450 readUnit 97;
#X obj 25 2475 readUnit 98;
#X obj 25 2500 readUnit 99;
#X restore 626 272 pd instances;
#X obj 481 98 until;
#X obj 481 119 f 0, f 13;
#X obj 577 125 + 1;
#X msg 551 96 0;
#X msg 622 226 clear;
#X obj 481 141 t f f, f 8;
#X obj 481 73 t f b b, f 24;
#X obj 526 162 * 25;
#X obj 526 182 + 25;
#X obj 481 204 pack f f;
#X msg 481 226 obj 25 \$2 readUnit \$1;
#X obj 622 252 s pd-instances;
#X obj 313 397 metro 1;
#X obj 343 420 + 1;
#X obj 214 383 sel 0;
#X obj 214 361 change 0;
#X obj 325 449 / 1000;
#X obj 214 341 > 0.9;
#X obj 87 54 env~ 4096 4096;
#X obj 12 505 delwrite~ line 1.2e+06;
#X obj 12 4 inlet~;
#X obj 12 24 hip~ 5;
#X obj 620 506 dbtorms;
#X obj 620 399 clip 1 100;
#X obj 620 420 expr log10($f1);
#X obj 620 443 * 10;
#X msg 620 464 100 \$1;
#X obj 620 485 -;
#X text 511 40 NUMBER OF DELREAD POINTS. CHANGE ACCORDING TO CPU.,
f 26;
#X obj 620 594 r volume;
#X obj 605 573 *~;
#X obj 620 549 line~;
#X msg 620 528 \$1 20;
#X obj 542 573 *~;
#X obj 620 614 dbtorms;
#X obj 108 154 r threshold;
#X text 1 528 LENGTH OF THE DELAY LINE IN MS. MINUTES*60000, f 31
;
#X obj 224 430 s readpoints;
#X obj 283 200 r start;
#X obj 283 222 sel 1 0, f 21;
#X msg 283 340 bang \; pd dsp 1;
#X obj 325 491 mod 60;
#X obj 382 491 div 60;
#X obj 325 471 t f f, f 10;
#X obj 325 511 change;
#X obj 325 531 swap, f 10;
#X obj 325 702 s elapsed;
#X obj 620 378 r readpoints;
#X msg 325 682 label \$1;
#X obj 87 319 change;
#X obj 48 297 s rms;
#X obj 382 551 moses 10;
#X obj 382 573 makefilename 0%d;
#X obj 325 661 zexy/list2symbol :;
#X obj 427 593 makefilename %d;
#X obj 325 571 moses 10;
#X obj 325 593 makefilename 0%d;
#X obj 370 614 makefilename %d;
#X obj 325 640 pack s s, f 17;
#X msg 95 125 label \$1;
#X obj 95 103 makefilename :%d;
#X obj 95 81 int;
#X obj 96 223 sel 0 1, f 11;
#X msg 96 243 16, f 2;
#X msg 96 269 color 0 1 \$1;
#X obj 87 175 > 40;
#N canvas 421 62 719 403 curve 0;
#N canvas 0 22 450 278 (subpatch) 0;
#X array curve 100 float 1;
#A 0 0 0.0124283 0.0285527 0.0464469 0.0655969 0.0857383 0.106707 0.128389
0.150702 0.173581 0.196975 0.220842 0.245148 0.269863 0.294961 0.320421
0.346222 0.372349 0.398784 0.425515 0.45253 0.479815 0.507362 0.535161
0.563203 0.591479 0.619982 0.648705 0.677643 0.706787 0.736133 0.765676
0.79541 0.82533 0.855433 0.885712 0.916166 0.946789 0.977578 1.00853
1.03964 1.07091 1.10233 1.1339 1.16561 1.19747 1.22948 1.26162 1.2939
1.32631 1.35886 1.39154 1.42434 1.45728 1.49033 1.52351 1.55681 1.59023
1.62377 1.65742 1.69119 1.72507 1.75906 1.79316 1.82737 1.86169 1.89611
1.93064 1.96527 2 2 1.92027 1.84109 1.76247 1.68443 1.60699 1.53016
1.45398 1.37845 1.30361 1.22948 1.15608 1.08346 1.01163 0.940651 0.870551
0.801379 0.73319 0.666043 0.600006 0.535161 0.471602 0.409442 0.348821
0.289912 0.232942 0.17822 0.126191 0.0775748 0;
#X coords 0 2 99 0 200 200 1;
#X restore 446 167 graph;
#X obj 210 171 moses, f 8;
#X obj 210 88 gspd/forloop 0;
#X msg 210 66 101;
#X obj 210 212 /, f 10;
#X obj 210 349 tabwrite curve, f 36;
#X obj 210 110 t f f, f 36;
#X obj 267 170 - 1;
#X obj 320 234 /, f 10;
#X obj 377 208 -;
#X msg 377 188 100 \$1;
#X obj 210 327 * 2;
#X obj 320 214 -;
#X obj 320 255 - 1;
#X obj 320 277 abs;
#X obj 240 33 t b f;
#X obj 240 12 r threshold;
#X obj 11 120 tabread4 curve;
#X obj 11 97 inlet;
#X obj 11 142 outlet;
#X obj 210 234 expr pow($f1 \, 1.2);
#X obj 320 298 expr pow($f1 \, 1.2);
#X connect 1 0 4 0;
#X connect 1 1 12 0;
#X connect 2 0 6 0;
#X connect 3 0 2 0;
#X connect 4 0 20 0;
#X connect 6 0 1 0;
#X connect 6 1 5 1;
#X connect 7 0 4 1;
#X connect 8 0 13 0;
#X connect 9 0 8 1;
#X connect 10 0 9 0;
#X connect 11 0 5 0;
#X connect 12 0 8 0;
#X connect 13 0 14 0;
#X connect 14 0 21 0;
#X connect 15 0 3 0;
#X connect 15 1 10 0;
#X connect 15 1 12 1;
#X connect 15 1 7 0;
#X connect 15 1 1 1;
#X connect 16 0 15 0;
#X connect 17 0 19 0;
#X connect 18 0 17 0;
#X connect 20 0 11 0;
#X connect 21 0 11 0;
#X restore 23 149 pd curve;
#X obj 12 219 *~;
#X obj 23 195 line~;
#X obj 23 173 pack, f 6;
#X obj 368 398 s reset;
#X obj 351 246 loadbang;
#X obj 351 267 delay 1;
#X msg 127 243 18, f 2;
#X msg 210 238 73;
#X obj 96 203 spigot;
#X obj 210 169 < 1;
#X obj 210 216 sel 0;
#X msg 344 290 0 \; readpoints -1 \; set_volume 100 \; set_threshold
50 \; elapsed label 00:00 \; pd dsp 0;
#X obj 308 75 cyclone/mean;
#X floatatom 308 94 5 0 0 0 - - -, f 5;
#X msg 308 52 clear;
#X obj 308 30 r reset;
#X obj 308 145 s set_threshold;
#X obj 308 123 + 10;
#X msg 481 50 100;
#X msg 403 89 60;
#X obj 407 29 loadbang;
#X connect 0 0 53 0;
#X connect 1 0 50 0;
#X connect 3 0 2 1;
#X connect 4 0 3 1;
#X connect 4 0 6 1;
#X connect 5 0 4 0;
#X connect 6 0 2 0;
#X connect 7 0 11 0;
#X connect 8 0 7 0;
#X connect 8 1 7 1;
#X connect 9 0 12 1;
#X connect 10 0 9 0;
#X connect 11 0 10 1;
#X connect 11 0 89 1;
#X connect 12 0 39 0;
#X connect 13 0 69 0;
#X connect 14 0 33 0;
#X connect 14 0 17 1;
#X connect 14 0 36 0;
#X connect 15 0 16 0;
#X connect 15 0 17 0;
#X connect 15 0 57 0;
#X connect 16 0 15 1;
#X connect 17 0 18 0;
#X connect 20 0 21 0;
#X connect 21 0 22 0;
#X connect 21 0 25 0;
#X connect 22 0 21 1;
#X connect 23 0 21 1;
#X connect 24 0 31 0;
#X connect 25 0 29 0;
#X connect 25 1 27 0;
#X connect 26 0 20 0;
#X connect 26 1 23 0;
#X connect 26 2 24 0;
#X connect 27 0 28 0;
#X connect 28 0 29 1;
#X connect 29 0 30 0;
#X connect 30 0 31 0;
#X connect 32 0 14 0;
#X connect 33 0 14 1;
#X connect 34 0 15 0;
#X connect 35 0 34 0;
#X connect 36 0 63 0;
#X connect 37 0 35 0;
#X connect 38 0 81 0;
#X connect 38 0 8 0;
#X connect 38 0 85 0;
#X connect 38 0 86 0;
#X connect 40 0 41 0;
#X connect 41 0 38 0;
#X connect 41 0 87 0;
#X connect 42 0 52 0;
#X connect 43 0 44 0;
#X connect 44 0 45 0;
#X connect 45 0 46 0;
#X connect 46 0 47 0;
#X connect 47 0 42 0;
#X connect 49 0 54 0;
#X connect 50 0 3 0;
#X connect 51 0 50 1;
#X connect 51 0 53 1;
#X connect 52 0 51 0;
#X connect 53 0 6 0;
#X connect 54 0 5 0;
#X connect 55 0 85 1;
#X connect 58 0 59 0;
#X connect 59 0 60 0;
#X connect 59 1 98 0;
#X connect 60 0 32 0;
#X connect 61 0 64 0;
#X connect 62 0 65 1;
#X connect 63 0 61 0;
#X connect 63 1 62 0;
#X connect 64 0 65 0;
#X connect 65 0 75 0;
#X connect 65 1 71 0;
#X connect 67 0 43 0;
#X connect 68 0 66 0;
#X connect 69 0 10 0;
#X connect 69 0 37 0;
#X connect 69 0 96 0;
#X connect 71 0 72 0;
#X connect 71 1 74 0;
#X connect 72 0 78 1;
#X connect 73 0 68 0;
#X connect 74 0 78 1;
#X connect 75 0 76 0;
#X connect 75 1 77 0;
#X connect 76 0 78 0;
#X connect 77 0 78 0;
#X connect 78 0 73 0;
#X connect 79 0 70 0;
#X connect 80 0 79 0;
#X connect 81 0 80 0;
#X connect 82 0 83 0;
#X connect 82 1 93 0;
#X connect 83 0 84 0;
#X connect 84 0 70 0;
#X connect 85 0 13 0;
#X connect 85 0 95 0;
#X connect 86 0 89 0;
#X connect 87 0 12 0;
#X connect 88 0 87 1;
#X connect 89 0 88 0;
#X connect 91 0 92 0;
#X connect 92 0 98 0;
#X connect 93 0 84 0;
#X connect 94 0 84 0;
#X connect 95 0 82 0;
#X connect 96 0 95 1;
#X connect 96 0 97 0;
#X connect 97 0 94 0;
#X connect 98 0 32 0;
#X connect 98 0 14 1;
#X connect 98 0 15 1;
#X connect 98 0 90 0;
#X connect 99 0 100 0;
#X connect 100 0 104 0;
#X connect 101 0 99 0;
#X connect 102 0 101 0;
#X connect 104 0 103 0;
#X connect 105 0 26 0;
#X connect 106 0 100 0;
#X connect 107 0 106 0;
#X restore 9 104 pd patch;
#X obj 118 129 nbx 3 100 -1e+37 1e+37 0 0 empty readpoints empty 0
-8 0 100 -262144 -4034 -1 0 256;
#X obj 8 129 tgl 100 0 start empty empty 17 7 0 10 -262144 -4034 -1
1 1;
#X obj 129 19 cnv 15 300 100 empty elapsed 00:21 0 50 0 100 -262144
-99865 0;
#X obj 301 352 hsl 128 15 0 120 0 0 volume set_volume volume: -50 6
0 10 -262144 -1 -1 10583 1;
#X obj 8 246 nbx 2 100 0 99 0 0 threshold set_threshold empty 0 -8
0 100 -262144 -4034 -1 70 256;
#X obj 204 246 nbx 2 100 0 99 0 0 asdfadf fdsasdfadfdf empty 0 -8 0
100 -262144 -4034 -1 0 256;
#X obj 177 247 cnv 15 200 98 empty rms :75 0 50 0 100 -262144 -258699
0;
#X obj 9 82 adc~ 1;
#X connect 8 0 0 0;
