#N canvas 141 23 502 661 10;
#X obj 85 580 motex/pan~, f 13;
#X obj 162 433 random 91;
#X obj 162 456 - 45;
#X obj 85 602 throw~ L;
#X obj 160 602 throw~ R;
#X obj 8 11 r time;
#X obj 8 34 route \$1;
#X msg 85 249 0 200;
#X obj 85 560 *~, f 36;
#X obj 85 435 line~;
#X obj 8 159 pipe 205;
#X obj 8 182 t b f, f 8;
#X msg 8 204 1 200;
#X obj 188 324 cos~;
#X obj 188 367 +~ 0.5;
#X obj 188 346 *~ -0.5;
#X obj 224 408 *~;
#X obj 331 348 +~ 0.5;
#X obj 331 369 wrap~;
#X obj 282 408 cos~;
#X obj 282 451 +~ 0.5;
#X obj 282 430 *~ -0.5;
#X obj 316 507 *~;
#X obj 298 537 +~;
#X obj 239 287 phasor~ \$1;
#X obj 239 220 - 1;
#X obj 239 199 pow;
#X msg 239 179 1.05946 \$1;
#X obj 239 266 * -1;
#X obj 53 226 delwrite~ \$0-harm 110;
#X obj 8 137 t f b b b, f 39;
#X obj 239 346 *~ 100;
#X obj 331 463 *~ 100;
#X obj 239 370 vd~ \$0-harm 0;
#X obj 331 485 vd~ \$0-harm 0;
#X obj 239 242 / 0.1;
#X obj 53 204 delread~ line 1.2e+06;
#X obj 8 55 t f b;
#X obj 35 108 switch~;
#X msg 35 77 1;
#X msg 72 77 0;
#X obj 72 56 r reset;
#X obj 239 158 maxlib/gauss 0.2 0;
#X connect 0 0 3 0;
#X connect 0 1 4 0;
#X connect 1 0 2 0;
#X connect 2 0 0 1;
#X connect 5 0 6 0;
#X connect 6 0 37 0;
#X connect 7 0 9 0;
#X connect 8 0 0 0;
#X connect 9 0 8 0;
#X connect 10 0 11 0;
#X connect 11 0 12 0;
#X connect 11 1 36 0;
#X connect 12 0 9 0;
#X connect 13 0 15 0;
#X connect 14 0 16 0;
#X connect 15 0 14 0;
#X connect 16 0 23 0;
#X connect 17 0 18 0;
#X connect 18 0 19 0;
#X connect 18 0 32 0;
#X connect 19 0 21 0;
#X connect 20 0 22 0;
#X connect 21 0 20 0;
#X connect 22 0 23 1;
#X connect 23 0 8 1;
#X connect 24 0 13 0;
#X connect 24 0 17 0;
#X connect 24 0 31 0;
#X connect 25 0 35 0;
#X connect 26 0 25 0;
#X connect 27 0 26 0;
#X connect 28 0 24 0;
#X connect 30 0 10 0;
#X connect 30 1 7 0;
#X connect 30 2 1 0;
#X connect 30 3 42 0;
#X connect 31 0 33 0;
#X connect 32 0 34 0;
#X connect 33 0 16 1;
#X connect 34 0 22 1;
#X connect 35 0 28 0;
#X connect 36 0 29 0;
#X connect 37 0 30 0;
#X connect 37 1 39 0;
#X connect 39 0 38 0;
#X connect 40 0 38 0;
#X connect 41 0 40 0;
#X connect 42 0 27 0;
