#N canvas 280 194 256 427 10;
#X obj 41 12 r position;
#X obj 23 67 t f f;
#X obj 90 67 t f f;
#X obj 75 149 &&;
#X obj 35 125 &&;
#X obj 90 125 &&;
#X obj 41 38 unpack;
#X obj 90 95 >= \$2;
#X obj 130 95 <= \$3;
#X obj 10 95 >= \$4;
#X obj 50 95 <= \$5;
#X obj 75 244 s \$1;
#X obj 75 199 pack 0 0;
#X obj 120 175 \$0;
#X obj 120 151 loadbang;
#X msg 75 221 \$2 \$1;
#X obj 75 172 change;
#X connect 0 0 6 0;
#X connect 1 0 9 0;
#X connect 1 1 10 0;
#X connect 2 0 7 0;
#X connect 2 1 8 0;
#X connect 3 0 16 0;
#X connect 4 0 3 0;
#X connect 5 0 3 1;
#X connect 6 0 1 0;
#X connect 6 1 2 0;
#X connect 7 0 5 0;
#X connect 8 0 5 1;
#X connect 9 0 4 0;
#X connect 10 0 4 1;
#X connect 12 0 15 0;
#X connect 13 0 12 1;
#X connect 14 0 13 0;
#X connect 15 0 11 0;
#X connect 16 0 12 0;
