#N canvas 373 122 423 413 10;
#X obj 91 23 r position;
#X obj 73 78 t f f;
#X obj 140 78 t f f;
#X obj 125 160 &&;
#X obj 85 136 &&;
#X obj 140 136 &&;
#X obj 91 49 unpack;
#X obj 133 247 prepend set;
#X obj 133 268 s tableID;
#X obj 133 204 sel 1;
#X obj -14 171 f \$3;
#X obj 16 171 f \$2;
#X obj 1 194 -;
#X obj -11 124 loadbang;
#X obj -11 147 t b b;
#X obj 1 240 /;
#X obj -90 194 r position;
#X obj -90 217 unpack f f;
#X obj -33 239 - \$2;
#X obj -14 263 *;
#X obj -14 325 s location;
#X obj -14 284 spigot;
#X obj 133 183 change;
#X msg 1 216 1000 \$1;
#X obj 140 106 >= \$1;
#X obj 180 106 <= \$2;
#X obj 60 106 >= \$3;
#X obj 100 106 <= \$4;
#X obj 133 225 symbol void;
#X connect 0 0 6 0;
#X connect 1 0 26 0;
#X connect 1 1 27 0;
#X connect 2 0 24 0;
#X connect 2 1 25 0;
#X connect 3 0 22 0;
#X connect 4 0 3 0;
#X connect 5 0 3 1;
#X connect 6 0 1 0;
#X connect 6 1 2 0;
#X connect 7 0 8 0;
#X connect 9 0 28 0;
#X connect 10 0 12 0;
#X connect 11 0 12 1;
#X connect 12 0 23 0;
#X connect 13 0 14 0;
#X connect 14 0 10 0;
#X connect 14 1 11 0;
#X connect 15 0 19 1;
#X connect 16 0 17 0;
#X connect 17 1 18 0;
#X connect 18 0 19 0;
#X connect 19 0 21 0;
#X connect 21 0 20 0;
#X connect 22 0 9 0;
#X connect 22 0 21 1;
#X connect 23 0 15 0;
#X connect 24 0 5 0;
#X connect 25 0 5 1;
#X connect 26 0 4 0;
#X connect 27 0 4 1;
#X connect 28 0 7 0;
