#N canvas 568 46 249 171 10;
#X declare -lib zexy -path gspd;
#X declare -path abs -path gspd -lib zexy;
#X floatatom 41 108 6 0 1 0 pan: #0-inInitPan #0-outInitPan;
#X floatatom 41 38 6 0 1e+07 0 samp: #0-inInitSamps #0-outInitSamps
;
#X floatatom 41 73 6 -2048 2047 0 amp: #0-inInitAmp #0-outInitAmp;
#X obj 41 98 bng 8 250 50 0 \$0-learnPan \$0-nothing empty 17 7 0 10
-228856 -1 -1;
#X obj 41 63 bng 8 250 50 0 \$0-learnAmp \$0-nothing empty 17 7 0 10
-228856 -1 -1;
#X obj 41 28 bng 8 250 50 0 \$0-learnSamps \$0-nothing empty 17 7 0
10 -228856 -1 -1;
#X floatatom 151 108 6 0 100 0 ± #0-inJumpPan #0-outJumpPan;
#X floatatom 151 38 6 0 100000 0 ± #0-inJumpSamps #0-outJumpSamps
;
#X floatatom 151 73 6 0 2048 0 ± #0-inJumpAmp #0-outJumpAmp;
#X obj 151 28 bng 8 250 50 0 \$0-learnSampsJump \$0-nothing empty 17
7 0 10 -228856 -1 -1;
#X obj 151 63 bng 8 250 50 0 \$0-learnAmpJump \$0-nothing empty 17
7 0 10 -228856 -1 -1;
#X obj 151 98 bng 8 250 50 0 \$0-learnPanJump \$0-nothing empty 17
7 0 10 -228856 -1 -1;
#X text 38 10 INIT;
#X floatatom 83 38 6 0 0 0 - #0-visSamps #0-nothing2;
#X obj 173 140 tgl 15 0 \$0-outSwitchMetro \$0-inSwitchMetro monitor
20 8 0 10 -228856 -1 -1 1 1;
#X floatatom 83 73 6 0 0 0 - #0-visAmp #0-nothing2;
#X floatatom 83 108 6 0 0 0 - #0-visPan #0-nothing2;
#X obj 82 140 bng 8 250 50 0 \$0-learnGo \$0-nothing empty 17 7 0 10
-228856 -1 -1;
#X obj 93 140 tgl 15 0 \$0-outGo \$0-inGo active 20 8 0 10 -228856
-1 -1 1 1;
#X text 148 9 MAX.STEP;
#X floatatom 193 38 6 0 0 0 - #0-visSampsMax #0-nothing2;
#X floatatom 193 73 6 0 0 0 - #0-visAmpMax #0-nothing2;
#X floatatom 193 108 6 0 0 0 - #0-visPanMax #0-nothing2;
#X obj 162 140 bng 8 250 50 0 \$0-learnMonitor \$0-nothing empty 17
7 0 10 -228856 -1 -1;
#N canvas 526 50 701 755 patch 0;
#X obj 118 65 samplerate~;
#X obj 118 105 /;
#X msg 118 85 1 \$1;
#X obj 97 125 *~ 1;
#X obj 82 145 /~;
#X obj 97 25 r~ \$0-freqloop;
#X obj 81 3 sig~ 1;
#X obj 82 165 phasor~ 1;
#X obj 45 498 *~;
#X obj 306 667 *~;
#X obj 361 667 *~;
#X obj 321 421 q8_sqrt~;
#X obj 376 420 q8_sqrt~;
#N canvas 0 23 232 142 pulse 0;
#X obj 7 76 expr~ if($v1 > $v2 \, 0 \, 1);
#X obj 7 6 inlet~;
#X obj 7 106 outlet~;
#X obj 154 53 z~;
#X connect 0 0 2 0;
#X connect 1 0 0 0;
#X connect 1 0 3 0;
#X connect 3 0 0 1;
#X restore 22 469 pd pulse;
#N canvas 257 257 326 293 amplitude 0;
#X obj 61 9 inlet~;
#X obj 10 30 samphold~;
#X obj 10 9 noise~;
#X obj 10 70 expr~ if($v1 == $v2 \, 0 \, if($v1 >= 0 \, 1 \, -1));
#X obj 116 163 fexpr~ $x[0] + $y[-1];
#X obj 116 260 outlet~;
#X obj 131 96 inlet~;
#X obj 116 118 *~;
#X msg 149 137 set \$1;
#X obj 149 116 r \$0-outInitAmp;
#X obj 116 238 /~ 2048;
#X text 174 238 <-- 12 bit resolution;
#X obj 127 213 pulseVisInt \$0 visAmp;
#X obj 271 47 z~;
#X obj 116 187 mirrorWall~ -2048 2047;
#X connect 0 0 1 1;
#X connect 1 0 3 0;
#X connect 1 0 13 0;
#X connect 2 0 1 0;
#X connect 3 0 7 0;
#X connect 4 0 14 0;
#X connect 6 0 7 1;
#X connect 7 0 4 0;
#X connect 8 0 4 0;
#X connect 9 0 8 0;
#X connect 10 0 5 0;
#X connect 13 0 3 1;
#X connect 14 0 10 0;
#X connect 14 0 12 0;
#X restore 82 469 pd amplitude;
#N canvas 0 23 434 291 pan 0;
#X obj 63 9 inlet~;
#X obj 12 30 samphold~;
#X obj 12 9 noise~;
#X obj 202 186 fexpr~ $x[0] + $y[-1];
#X obj 309 47 z~;
#X obj 202 261 outlet~;
#X obj 202 114 *~;
#X obj 217 93 inlet~;
#X msg 213 161 set \$1;
#X obj 213 140 r \$0-outInitPan;
#X obj 12 67 expr~ if($v1 == $v2 \, 0 \, if($v1 >= 0 \, 0.01 \, -0.01))
;
#X text 23 48 resolucion de 100 pasos (0.01);
#X obj 212 236 pulseVisFloat \$0 visPan;
#X obj 202 209 mirrorWall~ 0 1;
#X obj 229 12 declare -lib zexy -path gspd;
#X connect 0 0 1 1;
#X connect 1 0 4 0;
#X connect 1 0 10 0;
#X connect 2 0 1 0;
#X connect 3 0 13 0;
#X connect 4 0 10 1;
#X connect 6 0 3 0;
#X connect 7 0 6 1;
#X connect 8 0 3 0;
#X connect 9 0 8 0;
#X connect 10 0 6 0;
#X connect 13 0 5 0;
#X connect 13 0 12 0;
#X restore 352 292 pd pan;
#X obj 376 399 abs~;
#X obj 376 379 -~ 1;
#X obj 395 224 *~ 0;
#X obj 395 243 +~ 1;
#X obj 206 155 *~ 0;
#X obj 206 176 +~ 1;
#N canvas 740 135 327 309 freq 0;
#X obj 66 20 inlet~;
#X obj 15 52 samphold~;
#X obj 15 21 noise~;
#X obj 276 69 z~;
#X obj 15 92 expr~ if($v1 == $v2 \, 0 \, if($v1 >= 0 \, 1 \, -1));
#X msg 182 160 set \$1;
#X obj 145 190 fexpr~ abs($x[0] + $y[-1]);
#X obj 145 212 +~ 3;
#X obj 145 261 s~ \$0-freqloop;
#X obj 145 158 *~;
#X obj 160 117 inlet~;
#X obj 182 140 r \$0-outInitSamps;
#X obj 153 236 pulseVisInt \$0 visSamps;
#X connect 0 0 1 1;
#X connect 1 0 3 0;
#X connect 1 0 4 0;
#X connect 2 0 1 0;
#X connect 3 0 4 1;
#X connect 4 0 9 0;
#X connect 5 0 6 0;
#X connect 6 0 7 0;
#X connect 7 0 8 0;
#X connect 7 0 12 0;
#X connect 9 0 6 0;
#X connect 10 0 9 1;
#X connect 11 0 5 0;
#X restore 167 225 pd freq;
#X obj 326 731 dac~ 1 2;
#X obj 371 708 *~;
#X obj 316 708 *~;
#X obj 45 518 lop~ 12000;
#X obj 45 538 lop~ 12000;
#X obj 45 558 lop~ 12000;
#X obj 45 578 lop~ 12000;
#X obj 549 99 \$0;
#X obj 549 55 loadbang;
#X obj 559 79 bng 15 250 50 0 empty empty empty 17 7 0 10 -262144 -1
-1;
#X obj 227 88 t f f;
#X obj 227 112 > 1;
#X obj 416 155 t f f;
#X obj 416 179 > 1;
#X obj 416 133 r \$0-outJumpPan;
#X obj 151 401 *~ 0;
#X obj 151 420 +~ 1;
#X obj 172 333 t f f;
#X obj 172 354 > 1;
#X obj 172 313 r \$0-outJumpAmp;
#X obj 89 187 s~ \$0-phase;
#X obj 151 290 r~ \$0-phase;
#X obj 395 113 r~ \$0-phase;
#X obj 206 47 r~ \$0-phase;
#X obj 227 67 r \$0-outJumpSamps;
#X obj 549 302 s \$0-metro;
#X obj 549 281 metro 400;
#X obj 118 45 r \$0-loadbang;
#X obj 392 626 r \$0-outGo;
#X obj 392 669 line~;
#X msg 392 647 \$1 20;
#X obj 549 259 r \$0-outSwitchMetro;
#X obj 512 418 r globalInitSamps;
#X obj 512 440 s \$0-inInitSamps;
#X obj 513 334 r globalGo;
#X obj 513 355 s \$0-inGo;
#X obj 512 376 r globalMonitor;
#X obj 512 397 s \$0-inSwitchMetro;
#X obj 512 461 r globalInitAmp;
#X obj 512 483 s \$0-inInitAmp;
#X obj 512 506 r globalInitPan;
#X obj 512 528 s \$0-inInitPan;
#X obj 512 548 r globalJumpSamps;
#X obj 512 570 s \$0-inJumpSamps;
#X obj 512 591 r globalJumpAmp;
#X obj 512 613 s \$0-inJumpAmp;
#X obj 512 636 r globalJumpPan;
#X obj 512 658 s \$0-inJumpPan;
#X msg 549 121 \; \$1-loadbang bang \; \$1-inJumpSamps 1 \; \$1-inJumpAmp
1 \; \$1-inJumpPan 1 \; \$1-inInitAmp 100 \; \$1-inInitSamps 100 \;
\$1-inInitPan 0.5 \; \$1-inSwitchMetro 1 \; \$1-inGo 1;
#X obj 206 197 mirrorWall~ 0 1;
#X obj 217 225 pulseVisInt \$0 visSampsMax;
#X obj 22 447 z~;
#X obj 82 208 z~;
#X obj 395 292 pulseVisInt \$0 visPanMax;
#X obj 162 469 pulseVisInt \$0 visAmpMax;
#X obj 206 134 randWalk;
#X obj 395 201 randWalk;
#X obj 151 379 randWalk;
#X floatatom 297 120 5 0 0 0 - - -;
#X obj 395 263 mirrorWall~ 0 1;
#X obj 151 444 mirrorWall~ 0 1;
#X obj 38 711 declare -path abs -path gspd -lib zexy;
#X connect 0 0 2 0;
#X connect 1 0 3 1;
#X connect 2 0 1 0;
#X connect 3 0 4 1;
#X connect 4 0 7 0;
#X connect 5 0 3 0;
#X connect 6 0 4 0;
#X connect 7 0 43 0;
#X connect 7 0 75 0;
#X connect 8 0 26 0;
#X connect 9 0 25 0;
#X connect 10 0 24 0;
#X connect 11 0 9 1;
#X connect 12 0 10 1;
#X connect 13 0 8 0;
#X connect 14 0 8 1;
#X connect 15 0 11 0;
#X connect 15 0 17 0;
#X connect 16 0 12 0;
#X connect 17 0 16 0;
#X connect 18 0 19 0;
#X connect 19 0 82 0;
#X connect 20 0 21 0;
#X connect 21 0 72 0;
#X connect 24 0 23 1;
#X connect 25 0 23 0;
#X connect 26 0 27 0;
#X connect 27 0 28 0;
#X connect 28 0 29 0;
#X connect 29 0 9 0;
#X connect 29 0 10 0;
#X connect 30 0 71 0;
#X connect 31 0 30 0;
#X connect 32 0 30 0;
#X connect 33 0 34 0;
#X connect 33 1 72 2;
#X connect 33 1 81 0;
#X connect 34 0 20 1;
#X connect 34 0 78 1;
#X connect 35 0 36 0;
#X connect 35 1 82 2;
#X connect 36 0 18 1;
#X connect 36 0 79 1;
#X connect 37 0 35 0;
#X connect 38 0 39 0;
#X connect 39 0 83 0;
#X connect 40 0 41 0;
#X connect 40 1 83 2;
#X connect 41 0 38 1;
#X connect 41 0 80 1;
#X connect 42 0 40 0;
#X connect 44 0 80 0;
#X connect 45 0 79 0;
#X connect 46 0 78 0;
#X connect 47 0 33 0;
#X connect 49 0 48 0;
#X connect 50 0 0 0;
#X connect 51 0 53 0;
#X connect 52 0 24 1;
#X connect 52 0 25 1;
#X connect 53 0 52 0;
#X connect 54 0 49 0;
#X connect 55 0 56 0;
#X connect 57 0 58 0;
#X connect 59 0 60 0;
#X connect 61 0 62 0;
#X connect 63 0 64 0;
#X connect 65 0 66 0;
#X connect 67 0 68 0;
#X connect 69 0 70 0;
#X connect 72 0 22 1;
#X connect 72 0 73 0;
#X connect 74 0 13 0;
#X connect 75 0 14 0;
#X connect 75 0 15 0;
#X connect 75 0 22 0;
#X connect 75 0 74 0;
#X connect 78 0 20 0;
#X connect 79 0 18 0;
#X connect 80 0 38 0;
#X connect 82 0 15 1;
#X connect 82 0 76 0;
#X connect 83 0 14 1;
#X connect 83 0 77 0;
#X restore 22 140 pd patch;
#X coords 0 171 1 170 120 20 0;
