#N struct 1049-point float x0 float y0 float size float fg float in float grid;
#N canvas 587 42 1387 1067 12;
#X declare -stdpath else;
#X obj 1018 508 metro 10;
#X obj 1018 534 f 0;
#X obj 1058 534 + 1;
#X msg 1071 455 1000 \$1;
#X obj 1071 481 /;
#X obj 1018 611 * 6.28319;
#X obj 1071 431 * 100;
#N canvas 0 22 450 278 (subpatch) 0;
#X text 0 0 plugdatainfo <?xml version="1.0" encoding="UTF-8"?> <PlugDataInfo/>;
#X coords 0 1 100 -1 1 1 1;
#X restore 260 263 graph;
#X obj 71 696 else/meter8~;
#X obj 128 339 unpack, f 12;
#X obj 66 628 noise~;
#X obj 1030 758 expr ($f1/8) * twopi;
#X obj 1030 686 * -1;
#X obj 1030 733 mod 8;
#X obj 1030 709 + 2;
#X obj 622 89 v twopi;
#X obj 622 63 pi 2;
#X text 1112 782 pi/8;
#X obj 71 668 pan8~ -mode 1, f 25;
#X obj 1030 784 + 0.392699;
#X obj 128 364 else/car2pol;
#X text 291 441 pi/8;
#X obj 209 443 - 0.392699;
#X obj 128 468 else/pol2car;
#X obj 686 65 loadbang;
#X obj 686 111 s source;
#X obj 795 939 s source;
#X obj 795 916 pack f f, f 12;
#X obj 1018 818 t b f;
#X obj 795 893 else/pol2car;
#X obj 1071 408 abs;
#X obj 1071 382 t f f, f 9;
#X obj 1131 431 >= 0;
#X obj 1131 455 sel 0;
#X msg 1131 511 -1;
#X obj 1018 559 mod 100;
#X obj 1018 584 * 0.01;
#X obj 1018 636 change -1;
#X msg 532 652 interp \$1;
#X obj 524 681 lfnoise 0.1;
#X msg 686 89 mode 0 \, grid 1;
#X obj 11 11 cnv 19 300 280 empty empty empty 20 12 0 12 #bbbbbb #404040 0;
#X text 82 45 MANUAL;
#X obj 135 45 vradio 19 1 0 2 auto-mode-1 set-auto-mode-1 empty 0 -10 0 12 #404040 #28f4f4 #000000 0;
#X obj 135 105 vradio 19 1 0 2 random-mode-1 set-random-mode-1 empty 0 -10 0 12 #404040 #28f4f4 #000000 0;
#X text 96 65 AUTO;
#X text 55 105 CONTINUOUS;
#X text 83 125 RANDOM;
#X obj 135 165 vradio 19 1 0 2 direction-1 set-direction-1 empty 0 -10 0 12 #404040 #28f4f4 #000000 0;
#X text 64 165 CLOCKWISE;
#X obj 135 215 vradio 19 1 0 2 interpolation-1 set-interpolation-1 empty 0 -10 0 12 #bcbcbc #bcbcbc #000000 0;
#X text 100 215 JUMP;
#X text 51 236 INTERPOLATE;
#X obj 215 103 vsl 19 147 0 1 0 0 amplitude set-amplitude empty 0 -9 0 12 #404040 #28f4f4 #000000 0 1;
#X obj 312 11 cnv 19 300 280 empty empty empty 20 12 0 12 #bbbbbb #404040 0;
#X text 488 45 MANUAL;
#X obj 465 45 vradio 19 1 0 2 auto-mode-2 set-auto-mode-2 empty 0 -10 0 12 #404040 #28f4f4 #000000 0;
#X obj 465 105 vradio 19 1 0 2 random-mode-2 set-random-mode-2 empty 0 -10 0 12 #bcbcbc #bcbcbc #000000 0;
#X obj 385 101 vradio 19 1 0 8 loudspeaker set-loudspeaker empty 0 -10 0 12 #404040 #28f4f4 #000000 0;
#X text 488 65 AUTO;
#X text 491 105 CONTINUOUS;
#X text 491 125 RANDOM;
#X obj 465 165 vradio 19 1 0 2 direction-2 set-direction-2 empty 0 -10 0 12 #bcbcbc #bcbcbc #000000 0;
#X text 491 165 CLOCKWISE;
#X obj 250 251 hsl 122 19 -1 1 0 0 spread set-spread empty -2 -8 0 10 #404040 #28f4f4 #000000 0 1;
#X obj 465 215 vradio 19 1 0 2 interpolation-2 set-interpolation-2 empty 0 -10 0 12 #bcbcbc #bcbcbc #000000 0;
#X text 491 215 JUMP;
#X text 491 236 INTERPOLATE;
#X text 286 231 SPREAD;
#X text 389 101 1;
#X text 389 235 8;
#X text 389 217 7;
#X text 389 198 6;
#X text 389 179 5;
#X text 389 159 4;
#X text 389 140 3;
#X text 389 121 2;
#X obj 296 35 tgl 30 0 link set-link empty 0 -10 0 12 #404040 #28f4f4 #000000 0 1;
#X text 295 17 LINK;
#X obj 247 101 else/circle 127 -1 1 -1 1 0 75 75 75 150 150 150 0 255 255 1 0 0 -0.35581 0.859002 source_position source 1;
#X text 43 186 COUNTERCLOCK;
#X text 212 256 AMP;
#X text 382 256 OUT;
#X text 491 186 COUNTERCLOCK;
#X msg 622 12 receive source \, send source_position;
#X obj 622 36 declare -stdpath else;
#X obj 165 107 vsl 19 143 0.01 20 1 0 frequency-1 set-frequency-1 empty 0 -9 0 12 #404040 #28f4f4 #000000 0 1;
#X obj 435 107 vsl 19 143 0.01 20 1 0 frequency-2 set-frequency-2 empty 0 -9 0 12 #bcbcbc #bcbcbc #000000 0 1;
#X text 298 81 PAN;
#X obj 128 314 r source_position;
#X obj 1030 661 r loudspeaker;
#X floatatom 1081 231 5 -3.40282e+38 3.40282e+38 0 - - - 0;
#X text 1118 229 freq, f 6;
#X msg 1081 304 -1, f 2;
#X obj 1081 280 select 0;
#X obj 1092 333 t b f;
#X obj 1071 358 *, f 8;
#X obj 813 827 r amplitude;
#X obj 665 508 metro 10;
#X obj 665 534 f 0;
#X obj 705 534 + 1;
#X msg 718 455 1000 \$1;
#X obj 718 481 /;
#X obj 718 431 * 100;
#X obj 718 408 abs;
#X obj 718 382 t f f, f 9;
#X obj 778 431 >= 0;
#X obj 778 455 sel 0;
#X msg 778 505 -1;
#X obj 665 559 mod 100;
#X obj 665 583 * 0.01;
#X floatatom 728 231 5 -3.40282e+38 3.40282e+38 0 - - - 0;
#X text 775 229 freq, f 6;
#X msg 728 304 -1, f 2;
#X obj 728 280 select 0;
#X obj 739 333 t b f;
#X obj 718 358 *, f 8;
#X obj 641 153 r auto-mode-1;
#X obj 718 206 r frequency-1;
#X obj 728 255 r direction-1;
#X msg 139 388 set \$1;
#X obj 139 412 s set-amplitude, f 8;
#X obj 665 631 sin;
#X obj 665 607 * 3.14159;
#X obj 665 177 r random-mode-1;
#X obj 665 247 t b f;
#X obj 665 200 - 1;
#X obj 665 223 abs;
#X obj 665 272 &&;
#X obj 532 626 r interpolation-1;
#X obj 524 441 r frequency-1;
#X obj 524 707 rescale 0 1;
#X obj 524 600 *;
#X obj 534 573 t b f;
#X text 166 87 HZ;
#X text 435 87 HZ;
#X obj 534 466 r auto-mode-1;
#X obj 548 493 r random-mode-1;
#X obj 548 519 t b f;
#X obj 534 547 &&;
#X obj 128 573 f2s~ 50;
#X obj 209 573 f2s~ 50;
#X obj 1018 251 t b f;
#X obj 1018 204 - 1;
#X obj 1018 227 abs;
#X obj 1018 276 &&;
#X msg 871 468 interp \$1;
#X obj 863 497 lfnoise 0.1;
#X obj 863 523 rescale 0 1;
#X obj 863 416 *;
#X obj 873 389 t b f;
#X obj 887 335 t b f;
#X obj 873 363 &&;
#X obj 863 257 r frequency-b;
#X obj 873 282 r auto-mode-b;
#X obj 887 309 r random-mode-b;
#X obj 994 156 r auto-mode-b;
#X obj 1018 181 r random-mode-b;
#X obj 1071 206 r frequency-b;
#X obj 1081 255 r direction-b;
#X obj 871 442 r interpolation-b;
#N canvas 1152 196 856 507 link 0;
#X obj 21 191 s frequency-b;
#X obj 21 132 route 1;
#X obj 21 107 pack;
#X obj 34 78 t b f;
#X obj 131 107 pack;
#X obj 144 78 t b f;
#X obj 131 132 route 0;
#X obj 34 53 r frequency-1;
#X obj 21 27 r link;
#X obj 131 27 r link;
#X obj 144 53 r frequency-2;
#X obj 21 167 f;
#X obj 261 132 route 1;
#X obj 261 107 pack;
#X obj 274 78 t b f;
#X obj 381 107 pack;
#X obj 394 78 t b f;
#X obj 381 132 route 0;
#X obj 261 27 r link;
#X obj 381 27 r link;
#X obj 261 167 f;
#X obj 501 132 route 1;
#X obj 501 107 pack;
#X obj 514 78 t b f;
#X obj 630 108 pack;
#X obj 644 78 t b f;
#X obj 630 133 route 0;
#X obj 501 27 r link;
#X obj 630 27 r link;
#X obj 501 167 f;
#X obj 261 191 s auto-mode-b;
#X obj 501 192 s random-mode-b;
#X obj 21 362 route 1;
#X obj 21 337 pack;
#X obj 34 308 t b f;
#X obj 131 337 pack;
#X obj 144 308 t b f;
#X obj 131 362 route 0;
#X obj 21 257 r link;
#X obj 131 257 r link;
#X obj 21 397 f;
#X obj 271 362 route 1;
#X obj 271 337 pack;
#X obj 284 308 t b f;
#X obj 421 337 pack;
#X obj 434 308 t b f;
#X obj 421 362 route 0;
#X obj 271 257 r link;
#X obj 421 257 r link;
#X obj 271 397 f;
#X obj 21 421 s direction-b;
#X obj 271 421 s interpolation-b;
#X obj 434 283 r interpolation-2;
#X obj 284 283 r interpolation-1;
#X obj 144 283 r direction-2;
#X obj 34 283 r direction-1;
#X obj 644 53 r random-mode-2;
#X obj 514 53 r random-mode-1;
#X obj 274 53 r auto-mode-1;
#X obj 394 53 r auto-mode-2;
#X connect 1 0 11 0;
#X connect 2 0 1 0;
#X connect 3 0 2 0;
#X connect 3 1 2 1;
#X connect 4 0 6 0;
#X connect 5 0 4 0;
#X connect 5 1 4 1;
#X connect 6 0 11 0;
#X connect 7 0 3 0;
#X connect 8 0 2 0;
#X connect 9 0 4 0;
#X connect 10 0 5 0;
#X connect 11 0 0 0;
#X connect 12 0 20 0;
#X connect 13 0 12 0;
#X connect 14 0 13 0;
#X connect 14 1 13 1;
#X connect 15 0 17 0;
#X connect 16 0 15 0;
#X connect 16 1 15 1;
#X connect 17 0 20 0;
#X connect 18 0 13 0;
#X connect 19 0 15 0;
#X connect 20 0 30 0;
#X connect 21 0 29 0;
#X connect 22 0 21 0;
#X connect 23 0 22 0;
#X connect 23 1 22 1;
#X connect 24 0 26 0;
#X connect 25 0 24 0;
#X connect 25 1 24 1;
#X connect 26 0 29 0;
#X connect 27 0 22 0;
#X connect 28 0 24 0;
#X connect 29 0 31 0;
#X connect 32 0 40 0;
#X connect 33 0 32 0;
#X connect 34 0 33 0;
#X connect 34 1 33 1;
#X connect 35 0 37 0;
#X connect 36 0 35 0;
#X connect 36 1 35 1;
#X connect 37 0 40 0;
#X connect 38 0 33 0;
#X connect 39 0 35 0;
#X connect 40 0 50 0;
#X connect 41 0 49 0;
#X connect 42 0 41 0;
#X connect 43 0 42 0;
#X connect 43 1 42 1;
#X connect 44 0 46 0;
#X connect 45 0 44 0;
#X connect 45 1 44 1;
#X connect 46 0 49 0;
#X connect 47 0 42 0;
#X connect 48 0 44 0;
#X connect 49 0 51 0;
#X connect 52 0 45 0;
#X connect 53 0 43 0;
#X connect 54 0 36 0;
#X connect 55 0 34 0;
#X connect 56 0 25 0;
#X connect 57 0 23 0;
#X connect 58 0 14 0;
#X connect 59 0 16 0;
#X restore 779 36 pd link;
#X obj 243 599 r spread;
#X floatatom 263 627 5 0 0 0 - - - 0;
#N canvas 63 88 2001 1150 GUI 0;
#X obj 26 12 loadbang;
#X msg 26 37 \; set-auto-mode-1 0 \; set-auto-mode-2 0 \; set-random-mode-1 0 \; set-random-mode-2 0 \; set-direction-1 0 \; set-direction-2 0 \; set-frequency-1 1 \; set-frequency-2 1 \; set-interpolation-1 1 \; set-interpolation-2 1 \; set-spread -0.49 \; set-amplitude 1 \; set-loudspeaker 0 \; set-link 0 \;;
#X msg 231 7 2 17;
#X msg 231 34 \; set-auto-mode-1 color \$1 \$2 \; set-auto-mode-2 color \$1 \$2 \; set-random-mode-1 color \$1 \$2 \; set-random-mode-2 color \$1 \$2 \; set-direction-1 color \$1 \$2 \; set-direction-2 color \$1 \$2 \; set-frequency-1 color \$1 \$2 \; set-frequency-2 color \$1 \$2 \; set-interpolation-1 color \$1 \$2 \; set-interpolation-2 color \$1 \$2 \; set-spread color \$1 \$2 \; set-amplitude color \$1 \$2 \; set-loudspeaker color \$1 \$2 \; set-link color \$1 \$2 \; source bgcolor1 75 75 75 \; source bgcolor2 150 150 150 \; source fgcolor 0 255 255;
#X obj 359 566 r auto-mode-1;
#X obj 359 592 sel 0, f 8;
#X msg 359 621 20 20;
#X msg 412 622 2 17;
#X msg 343 790 20 20;
#X msg 396 791 2 17;
#X obj 343 712 r continuous-1;
#X msg 342 946 20 20;
#X msg 395 947 2 17;
#X obj 342 867 r random-1;
#X obj 602 205 sel 0, f 8;
#X msg 602 234 20 20;
#X msg 655 235 2 17;
#X msg 792 596 20 20;
#X msg 845 597 2 17;
#X msg 811 910 20 20;
#X msg 864 911 2 17;
#X obj 737 48 r auto-mode-b;
#X obj 792 447 r continuous-2;
#X obj 811 821 r random-2;
#X obj 342 917 sel 0, f 8;
#X obj 343 761 sel 0, f 8;
#X msg 396 819 \; set-direction-1 color \$1 \$2 \;;
#X msg 386 980 \; set-interpolation-1 color \$1 \$2 \;, f 40;
#X obj 343 735 pipe 1;
#X obj 342 892 pipe 1;
#X msg 412 650 bang \; set-random-mode-1 color \$1 \$2 \; set-frequency-1 color \$1 \$2;
#X msg 633 263 \; set-random-mode-2 color \$1 \$2 \; set-frequency-2 color \$1 \$2;
#X obj 792 567 sel 0, f 8;
#X msg 843 624 \; set-direction-2 color \$1 \$2, f 36;
#X msg 855 944 \; set-interpolation-2 color \$1 \$2, f 40;
#X obj 792 472 pipe 1;
#X obj 811 849 pipe 1;
#X obj 811 881 sel 0, f 8;
#X obj 1094 228 r link;
#X msg 1094 304 20 20;
#X obj 900 446 r link;
#X obj 848 521 spigot 1;
#X obj 900 472 - 1;
#X obj 900 497 abs;
#X obj 1094 258 sel 1, f 8;
#X obj 993 760 r link;
#X obj 941 835 spigot 1;
#X obj 993 786 - 1;
#X obj 993 811 abs;
#X obj 789 81 r link;
#X obj 737 156 spigot 1;
#X obj 789 107 - 1;
#X obj 789 132 abs;
#X msg 1094 331 \; set-auto-mode-2 color \$1 \$2 \; set-random-mode-2 color \$1 \$2 \; set-frequency-2 color \$1 \$2 \; set-direction-2 color \$1 \$2 \; set-interpolation-2 color \$1 \$2;
#X msg 1147 284 \; set-auto-mode-2 color 2 17;
#X connect 0 0 1 0;
#X connect 2 0 3 0;
#X connect 4 0 5 0;
#X connect 5 0 6 0;
#X connect 5 1 7 0;
#X connect 6 0 30 0;
#X connect 7 0 30 0;
#X connect 8 0 26 0;
#X connect 9 0 26 0;
#X connect 10 0 28 0;
#X connect 11 0 27 0;
#X connect 12 0 27 0;
#X connect 13 0 29 0;
#X connect 14 0 15 0;
#X connect 14 1 16 0;
#X connect 15 0 31 0;
#X connect 16 0 31 0;
#X connect 17 0 33 0;
#X connect 18 0 33 0;
#X connect 19 0 34 0;
#X connect 20 0 34 0;
#X connect 21 0 50 0;
#X connect 22 0 35 0;
#X connect 23 0 36 0;
#X connect 24 0 11 0;
#X connect 24 1 12 0;
#X connect 25 0 8 0;
#X connect 25 1 9 0;
#X connect 28 0 25 0;
#X connect 29 0 24 0;
#X connect 32 0 17 0;
#X connect 32 1 18 0;
#X connect 35 0 41 0;
#X connect 36 0 46 0;
#X connect 37 0 19 0;
#X connect 37 1 20 0;
#X connect 38 0 44 0;
#X connect 39 0 53 0;
#X connect 40 0 42 0;
#X connect 41 0 32 0;
#X connect 42 0 43 0;
#X connect 43 0 41 1;
#X connect 44 0 39 0;
#X connect 44 1 54 0;
#X connect 45 0 47 0;
#X connect 46 0 37 0;
#X connect 47 0 48 0;
#X connect 48 0 46 1;
#X connect 49 0 51 0;
#X connect 50 0 14 0;
#X connect 51 0 52 0;
#X connect 52 0 50 1;
#X restore 841 37 pd GUI and LOAD;
#X obj 174 497 r ramp-time-1;
#X obj 255 522 r ramp-time-2;
#X obj 741 548 s ramp-time-1;
#X obj 1120 544 s ramp-time-2;
#X obj 542 417 s continuous-1;
#X obj 577 570 s random-1;
#X obj 959 365 s continuous-2;
#X obj 934 412 s random-2;
#X obj 255 548 max 30;
#X obj 174 547 max 30;
#X connect 0 0 1 0;
#X connect 1 0 2 0;
#X connect 1 0 35 0;
#X connect 2 0 1 1;
#X connect 3 0 4 0;
#X connect 4 0 0 1;
#X connect 4 0 168 0;
#X connect 5 0 37 0;
#X connect 6 0 3 0;
#X connect 9 0 20 0;
#X connect 9 1 20 1;
#X connect 10 0 18 0;
#X connect 11 0 19 0;
#X connect 12 0 14 0;
#X connect 13 0 11 0;
#X connect 14 0 13 0;
#X connect 16 0 15 0;
#X connect 18 0 8 0;
#X connect 18 1 8 1;
#X connect 18 2 8 2;
#X connect 18 3 8 3;
#X connect 18 4 8 4;
#X connect 18 5 8 5;
#X connect 18 6 8 6;
#X connect 18 7 8 7;
#X connect 19 0 28 0;
#X connect 20 0 23 0;
#X connect 20 0 120 0;
#X connect 20 1 22 0;
#X connect 22 0 23 1;
#X connect 23 0 140 0;
#X connect 23 1 141 0;
#X connect 24 0 40 0;
#X connect 27 0 26 0;
#X connect 28 0 29 0;
#X connect 28 1 29 1;
#X connect 29 0 27 0;
#X connect 29 1 27 1;
#X connect 30 0 6 0;
#X connect 31 0 30 0;
#X connect 31 1 32 0;
#X connect 32 0 33 0;
#X connect 33 0 34 0;
#X connect 33 1 2 1;
#X connect 34 0 2 1;
#X connect 35 0 36 0;
#X connect 36 0 5 0;
#X connect 37 0 28 0;
#X connect 38 0 39 0;
#X connect 39 0 131 0;
#X connect 40 0 25 0;
#X connect 89 0 9 0;
#X connect 90 0 12 0;
#X connect 93 0 95 0;
#X connect 94 0 93 0;
#X connect 94 1 95 0;
#X connect 95 0 96 0;
#X connect 95 1 96 1;
#X connect 96 0 31 0;
#X connect 97 0 29 0;
#X connect 98 0 99 0;
#X connect 99 0 100 0;
#X connect 99 0 109 0;
#X connect 100 0 99 1;
#X connect 101 0 102 0;
#X connect 102 0 167 0;
#X connect 102 0 98 1;
#X connect 103 0 101 0;
#X connect 104 0 103 0;
#X connect 105 0 104 0;
#X connect 105 1 106 0;
#X connect 106 0 107 0;
#X connect 107 0 108 0;
#X connect 107 1 100 1;
#X connect 108 0 100 1;
#X connect 109 0 110 0;
#X connect 110 0 123 0;
#X connect 113 0 115 0;
#X connect 114 0 113 0;
#X connect 114 1 115 0;
#X connect 115 0 116 0;
#X connect 115 1 116 1;
#X connect 116 0 105 0;
#X connect 117 0 128 0;
#X connect 118 0 111 0;
#X connect 118 0 116 0;
#X connect 119 0 114 0;
#X connect 120 0 121 0;
#X connect 122 0 29 0;
#X connect 123 0 122 0;
#X connect 124 0 126 0;
#X connect 125 0 128 0;
#X connect 125 1 128 1;
#X connect 126 0 127 0;
#X connect 127 0 125 0;
#X connect 128 0 169 0;
#X connect 128 0 98 0;
#X connect 129 0 38 0;
#X connect 130 0 132 0;
#X connect 131 0 29 0;
#X connect 132 0 39 0;
#X connect 133 0 132 0;
#X connect 133 1 132 1;
#X connect 136 0 139 0;
#X connect 137 0 138 0;
#X connect 138 0 139 0;
#X connect 138 1 139 1;
#X connect 139 0 133 0;
#X connect 139 0 170 0;
#X connect 140 0 18 1;
#X connect 141 0 18 2;
#X connect 142 0 145 0;
#X connect 142 1 145 1;
#X connect 143 0 144 0;
#X connect 144 0 142 0;
#X connect 145 0 0 0;
#X connect 145 0 171 0;
#X connect 146 0 147 0;
#X connect 147 0 148 0;
#X connect 148 0 5 0;
#X connect 149 0 147 0;
#X connect 150 0 149 0;
#X connect 150 1 149 1;
#X connect 151 0 152 0;
#X connect 151 1 152 1;
#X connect 152 0 150 0;
#X connect 152 0 172 0;
#X connect 153 0 149 0;
#X connect 154 0 152 0;
#X connect 155 0 151 0;
#X connect 156 0 145 0;
#X connect 157 0 143 0;
#X connect 158 0 91 0;
#X connect 158 0 96 0;
#X connect 159 0 94 0;
#X connect 160 0 146 0;
#X connect 162 0 18 3;
#X connect 162 0 163 0;
#X connect 165 0 174 0;
#X connect 166 0 173 0;
#X connect 173 0 141 1;
#X connect 174 0 140 1;
#X coords 0 -1 1 1 602 282 2 10 10;
