#N struct 1308-point float x0 float y0 float size float fg float in float grid;
#N canvas 856 51 1038 808 12;
#X obj 274 82 randpan8;
#X obj 493 462 else/meter8~;
#X obj 350 41 osc~ 10000;
#X obj 533 649 else/out8~;
#X floatatom 442 17 5 0 0 0 - - - 0;
#X connect 0 0 1 0;
#X connect 0 1 1 1;
#X connect 0 2 1 2;
#X connect 0 3 1 3;
#X connect 0 4 1 4;
#X connect 0 5 1 5;
#X connect 0 6 1 6;
#X connect 0 7 1 7;
#X connect 1 0 3 0;
#X connect 1 1 3 1;
#X connect 1 2 3 2;
#X connect 1 3 3 3;
#X connect 1 4 3 4;
#X connect 1 5 3 5;
#X connect 1 6 3 6;
#X connect 1 7 3 6;
#X connect 2 0 0 0;
#X connect 4 0 2 0;
