#N canvas 606 22 338 717 10;
#N canvas 279 281 321 191 delay-line 1;
#X obj 75 153 outlet~;
#X obj 45 7 inlet;
#X obj -81 23 inlet~;
#X obj -81 131 +~;
#X obj 75 109 *~ 0.99;
#X obj 45 30 delread~ \$0-delay 10;
#X obj 114 84 r karl-fdb;
#X obj -81 153 delwrite~ \$0-delay 30;
#X obj 96 58 r karl-lop;
#X obj 45 84 lop~ 5999;
#X connect 1 0 5 0;
#X connect 2 0 3 0;
#X connect 3 0 7 0;
#X connect 4 0 0 0;
#X connect 4 0 3 1;
#X connect 5 0 9 0;
#X connect 6 0 4 1;
#X connect 8 0 9 1;
#X connect 9 0 4 0;
#X restore 21 411 pd delay-line;
#X obj 96 388 /;
#X msg 96 366 1000 \$1;
#X obj 52 -52 r karlpow-voice;
#X obj 21 639 throw~ karlpow-sumL;
#X obj 113 599 throw~ karlpow-sumR;
#X obj 21 384 dirac~;
#X obj 36 530 - 1;
#X obj 36 552 abs;
#X obj 79 319 + 32;
#X obj 79 267 * 65;
#X obj 114 292 * 32;
#X obj 114 270 r capsLock;
#X obj 73 -7 r keyRepeat;
#X obj 52 15 swap;
#X obj 52 64 route 0 1;
#X obj 52 42 pack 0 f;
#X obj 77 87 == 1;
#X obj 77 109 sel 0;
#X msg 155 143 clear;
#X obj 52 142 sel 0;
#X obj 155 50 sel 0;
#X obj 116 237 pipe 90;
#X obj 116 143 t f b;
#X obj 155 194 * 10;
#X obj 155 172 random 6;
#X obj 155 214 + 30;
#X obj 128 557 line~;
#X obj 113 578 *~;
#X obj 36 596 line~;
#X msg 36 574 \$1 30;
#X obj 21 618 *~;
#X obj 79 290 + \$2;
#X obj 128 472 cos;
#X obj 128 388 f 0;
#X obj 158 388 + 1;
#X msg 214 413 0;
#X obj 128 412 t f f;
#X obj 167 413 sel 25;
#X obj 128 433 / 26;
#X obj 128 453 * 6.28319;
#X obj 128 492 * 0.5;
#X obj 128 512 + 0.5;
#X msg 128 535 \$1 30;
#X obj 79 342 t b f b b;
#X obj 52 -29 route \$1;
#X connect 0 0 28 0;
#X connect 0 0 31 0;
#X connect 1 0 0 1;
#X connect 2 0 1 0;
#X connect 3 0 45 0;
#X connect 6 0 0 0;
#X connect 7 0 8 0;
#X connect 8 0 30 0;
#X connect 9 0 44 0;
#X connect 10 0 32 0;
#X connect 11 0 9 1;
#X connect 12 0 11 0;
#X connect 13 0 14 1;
#X connect 13 0 21 0;
#X connect 14 0 16 0;
#X connect 14 1 16 1;
#X connect 15 0 20 0;
#X connect 15 1 17 0;
#X connect 16 0 15 0;
#X connect 17 0 18 0;
#X connect 18 0 19 0;
#X connect 18 1 10 0;
#X connect 18 1 23 0;
#X connect 19 0 22 0;
#X connect 20 1 10 0;
#X connect 21 0 19 0;
#X connect 22 0 18 0;
#X connect 23 0 22 0;
#X connect 23 1 25 0;
#X connect 24 0 26 0;
#X connect 25 0 24 0;
#X connect 26 0 22 1;
#X connect 27 0 28 1;
#X connect 28 0 5 0;
#X connect 29 0 31 1;
#X connect 30 0 29 0;
#X connect 31 0 4 0;
#X connect 32 0 9 0;
#X connect 33 0 41 0;
#X connect 34 0 35 0;
#X connect 34 0 37 0;
#X connect 35 0 34 1;
#X connect 36 0 34 1;
#X connect 37 0 39 0;
#X connect 37 1 38 0;
#X connect 38 0 36 0;
#X connect 39 0 40 0;
#X connect 40 0 33 0;
#X connect 41 0 42 0;
#X connect 42 0 43 0;
#X connect 42 0 7 0;
#X connect 43 0 27 0;
#X connect 44 0 6 0;
#X connect 44 1 2 0;
#X connect 44 2 34 0;
#X connect 45 0 14 0;
