#N canvas 838 35 384 320 10;
#N canvas 991 129 269 313 gem 0;
#N canvas 394 27 430 444 gemwin-settings 0;
#X obj 26 -22 gemwin;
#X msg 26 -88 reset \, title barcelona \, offset 0 0 \, lighting 0
\, dimen 800 800 \, create \, 1;
#X msg 45 -51 0 \, destroy;
#X obj 26 -137 r render-on;
#X obj 26 -114 sel 1 0;
#X connect 1 0 0 0;
#X connect 2 0 0 0;
#X connect 3 0 4 0;
#X connect 4 0 1 0;
#X connect 4 1 2 0;
#X restore -17 12 pd gemwin-settings;
#N canvas 650 168 567 642 mouseover 0;
#X obj -255 292 translateXYZ;
#X obj -237 314 r lb1;
#X obj -255 400 circle 0.1;
#X obj -255 36 gemhead 70;
#X obj -255 57 alpha;
#X msg -237 336 draw fill;
#N canvas 364 207 223 195 draw-prep-x 0;
#X obj 85 58 inlet;
#X obj 85 169 outlet;
#X obj 85 108 * 8;
#X obj 85 129 - 4;
#X connect 0 0 2 0;
#X connect 2 0 3 0;
#X connect 3 0 1 0;
#X restore -232 268 pd draw-prep-x;
#N canvas 364 207 223 214 draw-prep-y 0;
#X obj 37 30 inlet;
#X obj 37 161 outlet;
#X obj 37 67 swap 1;
#X obj 37 89 -;
#X obj 37 110 * 8;
#X obj 37 131 - 4;
#X connect 0 0 2 0;
#X connect 2 0 3 0;
#X connect 2 1 3 1;
#X connect 3 0 4 0;
#X connect 4 0 5 0;
#X connect 5 0 1 0;
#X restore -215 244 pd draw-prep-y;
#X obj -232 108 gemmouse 1 1;
#X obj -100 348 +;
#X obj -70 348 f;
#X obj -100 323 spigot;
#X obj -106 216 t f f;
#X obj -100 242 -;
#X obj -106 149 - 1;
#X obj -106 172 abs;
#X obj -106 194 * 5;
#X obj -99 371 clip 0.1 3;
#X obj -332 276 s coords;
#X obj -332 252 pack 0 0;
#X obj -332 203 * 2;
#X obj -332 226 - 1;
#X obj -287 203 * -2;
#X obj -287 226 + 1;
#X obj -99 396 s radius;
#X obj -255 82 color 0 1 0 0.2;
#X floatatom -131 423 5 0 0 0 - - -;
#X connect 0 0 2 0;
#X connect 1 0 5 0;
#X connect 3 0 4 0;
#X connect 4 0 25 0;
#X connect 5 0 2 0;
#X connect 6 0 0 1;
#X connect 7 0 0 2;
#X connect 8 0 6 0;
#X connect 8 0 20 0;
#X connect 8 1 7 0;
#X connect 8 1 14 0;
#X connect 8 1 22 0;
#X connect 8 2 11 1;
#X connect 9 0 17 0;
#X connect 10 0 9 1;
#X connect 11 0 9 0;
#X connect 12 0 13 1;
#X connect 12 1 13 0;
#X connect 13 0 11 0;
#X connect 14 0 15 0;
#X connect 15 0 16 0;
#X connect 16 0 12 0;
#X connect 17 0 10 0;
#X connect 17 0 2 1;
#X connect 17 0 24 0;
#X connect 17 0 26 0;
#X connect 19 0 18 0;
#X connect 20 0 21 0;
#X connect 21 0 19 0;
#X connect 22 0 23 0;
#X connect 23 0 19 1;
#X connect 25 0 0 0;
#X restore -17 35 pd mouseover;
#N canvas 679 292 450 300 picture 0;
#X obj -14 40 gemhead;
#X obj -14 61 pix_image barcelona.jpg;
#X obj -14 85 pix_draw;
#X text -17 20 THIS IS THE IMAGE;
#X connect 0 0 1 0;
#X connect 1 0 2 0;
#X restore -17 58 pd picture;
#X restore 21 35 pd gem;
#N canvas 211 187 436 522 init 0;
#X obj 11 17 loadbang;
#X obj 141 142 s lb1;
#X obj 130 177 s lb2;
#X obj 87 216 s lb3;
#X obj 17 56 t b b b b b b;
#X obj 172 78 bng 15 250 50 0 empty empty empty 17 7 0 10 -262144 -1
-1;
#X msg 25 306 \; pd dsp 1;
#X connect 0 0 4 0;
#X connect 4 1 6 0;
#X connect 4 2 3 0;
#X connect 4 3 2 0;
#X connect 5 0 4 0;
#X restore 21 14 pd init;
#X obj 21 59 tgl 15 0 render-on render-on-set GEM-render 17 7 0 12
-262144 -1 -1 1 1;
#X obj 20 149 dac~;
#X obj 20 98 catch~ grain-bus;
#X obj 199 224 r coords;
#X obj 199 245 unpack;
#X floatatom 200 270 5 0 0 0 - - -;
#X floatatom 242 271 5 0 0 0 - - -;
#X text 24 270 HELPFUL TO LOCATE SOUNDS:;
#X obj 148 79 file_player city1 0 0 100;
#X obj 148 105 file_player sea1 -0.3 -0.7 10;
#X obj 143 129 file_player disco1 -0.78 -0.21 500;
#X obj 147 159 file_player city2 0.915 -0.41 100;
#X obj 20 125 *~ 0.5;
#X connect 4 0 14 0;
#X connect 5 0 6 0;
#X connect 6 0 7 0;
#X connect 6 1 8 0;
#X connect 14 0 3 1;
#X connect 14 0 3 0;
