#N canvas 405 23 704 570 10;
#X obj -65 214 soundfiler;
#X obj 4 214 table sound-\$1;
#X obj -65 81 symbol \$1;
#X obj -65 56 loadbang;
#X obj -65 146 makefilename ./sounds/%s.wav;
#X obj -65 121 t s s;
#X obj -65 168 pack s s;
#X msg -65 191 read -resize \$1 sound-\$2;
#X text -96 99 FIRST ARGUMENT IS NAME OF FILENAME;
#X obj -65 301 /;
#X obj -38 280 samplerate~;
#X obj -65 257 t f b;
#X obj 203 -138 r coords;
#X obj 203 -117 unpack;
#X text -103 13 RANGE OF POINTS IS BETWEEN -1 AND 1 FOR BOTH AXIS;
#X obj -106 32 translateXYZ 0 0 0;
#X obj -82 -33 \$2;
#X obj -82 -8 * 4;
#X obj -35 -8 * 4;
#X obj -35 -31 \$3;
#X obj -82 -77 loadbang;
#X obj -82 -55 t b b;
#X obj 203 93 +;
#X obj 233 93 -;
#X obj 263 93 +;
#X obj 294 92 -;
#X obj -106 -125 alpha;
#X obj -106 -146 gemhead 75;
#X obj -106 -101 color 0 0 1 0.5;
#X obj -65 324 * 0.01;
#X obj -65 371 clip 0.05 2;
#X obj 431 -139 r radius;
#X obj 282 -24 t b f;
#X obj 431 -117 * 0.25;
#X obj 203 114 > \$2;
#X obj 233 114 < \$2;
#X obj 218 141 &&;
#X obj 263 141 &&;
#X obj 263 114 > \$3;
#X obj 294 114 < \$3;
#X obj 218 166 &&;
#X obj 346 -33 - \$2;
#X obj 357 67 /;
#X msg 357 92 1 \$1;
#X obj 357 115 -;
#X obj 379 -33 - \$3;
#X obj 400 67 /;
#X msg 400 92 1 \$1;
#X obj 379 164 minmax;
#X obj 379 139 pack;
#X obj 347 38 abs;
#X obj 390 43 abs;
#X obj 379 187 clip 0 1;
#X obj 379 210 pow 2;
#X obj -106 396 circle 0.03;
#X obj -65 346 pow 2;
#X obj 431 -93 t f f;
#X obj 460 108 cartopol;
#X obj 400 115 -;
#X obj 460 10 /;
#X msg 460 35 1 \$1;
#X obj 460 58 -;
#X obj 505 10 /;
#X msg 505 35 1 \$1;
#X obj 505 58 -;
#X obj 460 84 - 1;
#X obj 505 85 - 1;
#X obj 376 247 pack 0 0 0 0;
#X obj 376 271 s grainder-\$1;
#X obj 505 132 +;
#X obj 520 106 r pi;
#X obj 505 156 /;
#X obj 533 132 * 2;
#X obj -55 237 s \$1-filesize;
#X obj 202 307 newgrainvoice \$1 5;
#X obj 82 307 newgrainvoice \$1 0;
#X obj 82 327 newgrainvoice \$1 1;
#X obj 82 347 newgrainvoice \$1 2;
#X obj 82 367 newgrainvoice \$1 3;
#X obj 202 327 newgrainvoice \$1 6;
#X obj 202 347 newgrainvoice \$1 7;
#X obj 202 367 newgrainvoice \$1 8;
#X connect 0 0 11 0;
#X connect 0 0 73 0;
#X connect 2 0 5 0;
#X connect 3 0 2 0;
#X connect 4 0 6 0;
#X connect 5 0 4 0;
#X connect 5 1 6 1;
#X connect 6 0 7 0;
#X connect 7 0 0 0;
#X connect 9 0 29 0;
#X connect 10 0 9 1;
#X connect 11 0 9 0;
#X connect 11 1 10 0;
#X connect 12 0 13 0;
#X connect 13 0 22 0;
#X connect 13 0 23 0;
#X connect 13 0 41 0;
#X connect 13 1 24 0;
#X connect 13 1 25 0;
#X connect 13 1 45 0;
#X connect 15 0 54 0;
#X connect 16 0 17 0;
#X connect 17 0 15 1;
#X connect 18 0 15 2;
#X connect 19 0 18 0;
#X connect 20 0 21 0;
#X connect 21 0 16 0;
#X connect 21 1 19 0;
#X connect 22 0 34 0;
#X connect 23 0 35 0;
#X connect 24 0 38 0;
#X connect 25 0 39 0;
#X connect 26 0 28 0;
#X connect 27 0 26 0;
#X connect 28 0 15 0;
#X connect 29 0 55 0;
#X connect 30 0 54 1;
#X connect 31 0 33 0;
#X connect 32 0 22 0;
#X connect 32 0 23 0;
#X connect 32 0 24 0;
#X connect 32 0 25 0;
#X connect 32 1 22 1;
#X connect 32 1 23 1;
#X connect 32 1 24 1;
#X connect 32 1 25 1;
#X connect 33 0 32 0;
#X connect 33 0 56 0;
#X connect 34 0 36 0;
#X connect 35 0 36 1;
#X connect 36 0 40 0;
#X connect 37 0 40 1;
#X connect 38 0 37 0;
#X connect 39 0 37 1;
#X connect 40 0 67 0;
#X connect 41 0 50 0;
#X connect 41 0 59 0;
#X connect 42 0 43 0;
#X connect 43 0 44 0;
#X connect 44 0 49 0;
#X connect 45 0 51 0;
#X connect 45 0 62 0;
#X connect 46 0 47 0;
#X connect 47 0 58 0;
#X connect 48 0 52 0;
#X connect 49 0 48 0;
#X connect 50 0 42 0;
#X connect 51 0 46 0;
#X connect 52 0 53 0;
#X connect 53 0 67 1;
#X connect 55 0 30 0;
#X connect 56 0 42 1;
#X connect 56 0 59 1;
#X connect 56 1 46 1;
#X connect 56 1 62 1;
#X connect 57 0 67 2;
#X connect 57 1 69 0;
#X connect 58 0 49 1;
#X connect 59 0 60 0;
#X connect 60 0 61 0;
#X connect 61 0 65 0;
#X connect 62 0 63 0;
#X connect 63 0 64 0;
#X connect 64 0 66 0;
#X connect 65 0 57 0;
#X connect 66 0 57 1;
#X connect 67 0 68 0;
#X connect 69 0 71 0;
#X connect 70 0 72 0;
#X connect 70 0 69 1;
#X connect 71 0 67 3;
#X connect 72 0 71 1;
