#N canvas 0 23 1280 751 10;
#X obj -65 304 soundfiler;
#X obj 4 304 table sound-\$1;
#X obj -65 171 symbol \$1;
#X obj -65 146 loadbang;
#X obj -65 236 makefilename ./sounds/%s.wav;
#X obj -65 211 t s s;
#X obj -65 258 pack s s;
#X msg -65 281 read -resize \$1 sound-\$2;
#X obj 513 462 throw~ grain-bus;
#X obj 627 435 s \$0-loop;
#X text -96 189 FIRST ARGUMENT IS NAME OF FILENAME;
#X obj -65 371 /;
#X obj -38 350 samplerate~;
#X obj -65 327 t f b;
#X obj 528 413 tabplay~ sound-\$1;
#X obj 513 -18 r coords;
#X obj 513 3 unpack;
#X text -103 103 RANGE OF POINTS IS BETWEEN -1 AND 1 FOR BOTH AXIS
;
#X obj -106 122 translateXYZ 0 0 0;
#X obj -82 57 \$2;
#X obj -82 82 * 4;
#X obj -35 82 * 4;
#X obj -35 59 \$3;
#X obj -82 13 loadbang;
#X obj -82 35 t b b;
#X obj 513 133 +;
#X obj 543 133 -;
#X obj 573 133 +;
#X obj 604 132 -;
#X obj -106 -35 alpha;
#X obj -106 -56 gemhead 75;
#X obj -106 -11 color 0 0 1 0.5;
#X obj -65 394 * 0.01;
#X obj -65 441 clip 0.05 2;
#X obj 592 -19 r radius;
#X obj 592 36 t b f;
#X obj 592 3 * 0.25;
#X obj 513 154 > \$2;
#X obj 543 154 < \$2;
#X obj 528 181 &&;
#X obj 573 181 &&;
#X obj 573 154 > \$3;
#X obj 604 154 < \$3;
#X obj 528 206 &&;
#X floatatom 528 229 5 0 0 0 - - -;
#X obj 425 52 - \$2;
#X obj 425 134 /;
#X msg 425 159 1 \$1;
#X obj 425 182 -;
#X obj 468 53 - \$3;
#X obj 468 134 /;
#X msg 468 159 1 \$1;
#X obj 468 182 -;
#X obj 447 231 minmax;
#X obj 447 206 pack;
#X obj 425 73 abs;
#X obj 468 78 abs;
#X obj 447 254 clip 0 1;
#X obj 447 277 pow 2;
#X text 563 229 IS IN GREEN AREA?;
#X obj 447 347 line~;
#X msg 447 324 \$1 5;
#X floatatom 455 302 5 0 0 0 - - -;
#X text 273 303 DISTANCE FROM EDGE OF RADIUS;
#X obj 513 440 *~;
#X obj 535 322 r \$0-loop;
#X obj 528 392 spigot 0;
#X text 594 346 MAX DELAY TIME BETWEEN REPETITIONS;
#X obj 528 276 change -1;
#X obj 528 300 sel 1;
#X obj -105 466 circle 0.03;
#X obj -65 416 pow 2;
#X obj 528 346 random \$4;
#X obj 528 369 delay;
#X obj 528 253 t f f;
#X connect 0 0 13 0;
#X connect 2 0 5 0;
#X connect 3 0 2 0;
#X connect 4 0 6 0;
#X connect 5 0 4 0;
#X connect 5 1 6 1;
#X connect 6 0 7 0;
#X connect 7 0 0 0;
#X connect 11 0 32 0;
#X connect 12 0 11 1;
#X connect 13 0 11 0;
#X connect 13 1 12 0;
#X connect 14 0 64 1;
#X connect 14 1 9 0;
#X connect 15 0 16 0;
#X connect 16 0 25 0;
#X connect 16 0 26 0;
#X connect 16 0 45 0;
#X connect 16 1 27 0;
#X connect 16 1 28 0;
#X connect 16 1 49 0;
#X connect 18 0 70 0;
#X connect 19 0 20 0;
#X connect 20 0 18 1;
#X connect 21 0 18 2;
#X connect 22 0 21 0;
#X connect 23 0 24 0;
#X connect 24 0 19 0;
#X connect 24 1 22 0;
#X connect 25 0 37 0;
#X connect 26 0 38 0;
#X connect 27 0 41 0;
#X connect 28 0 42 0;
#X connect 29 0 31 0;
#X connect 30 0 29 0;
#X connect 31 0 18 0;
#X connect 32 0 71 0;
#X connect 33 0 70 1;
#X connect 34 0 36 0;
#X connect 35 0 25 0;
#X connect 35 0 26 0;
#X connect 35 0 27 0;
#X connect 35 0 28 0;
#X connect 35 1 25 1;
#X connect 35 1 26 1;
#X connect 35 1 27 1;
#X connect 35 1 28 1;
#X connect 36 0 35 0;
#X connect 36 0 46 1;
#X connect 36 0 50 1;
#X connect 37 0 39 0;
#X connect 38 0 39 1;
#X connect 39 0 43 0;
#X connect 40 0 43 1;
#X connect 41 0 40 0;
#X connect 42 0 40 1;
#X connect 43 0 44 0;
#X connect 44 0 74 0;
#X connect 45 0 55 0;
#X connect 46 0 47 0;
#X connect 47 0 48 0;
#X connect 48 0 54 0;
#X connect 49 0 56 0;
#X connect 50 0 51 0;
#X connect 51 0 52 0;
#X connect 52 0 54 1;
#X connect 53 0 57 0;
#X connect 54 0 53 0;
#X connect 55 0 46 0;
#X connect 56 0 50 0;
#X connect 57 0 58 0;
#X connect 58 0 61 0;
#X connect 58 0 62 0;
#X connect 60 0 64 0;
#X connect 61 0 60 0;
#X connect 64 0 8 0;
#X connect 65 0 72 0;
#X connect 66 0 14 0;
#X connect 68 0 69 0;
#X connect 69 0 72 0;
#X connect 71 0 33 0;
#X connect 72 0 73 0;
#X connect 73 0 66 0;
#X connect 74 0 68 0;
#X connect 74 1 66 1;
