#N canvas 226 24 647 636 10;
#X obj 450 353 random 2;
#X obj 277 454 throw~ grain-L;
#X obj 402 454 throw~ grain-R;
#X obj 292 252 tabread4~ sound-\$1;
#X obj 15 -105 r grainder-\$1;
#X obj 15 -82 route 1;
#X obj 15 -59 unpack f f f;
#X obj 15 11 s \$0-amplitude;
#X obj -47 -82 unpack;
#X obj -47 -59 change -1;
#X obj -47 -37 tgl 15 0 empty empty empty 17 7 0 10 -262144 -1 -1 1
1;
#X obj 49 -12 s \$0-radius;
#X obj 84 -36 s \$0-phase;
#X obj -28 83 r \$0-loop;
#X msg -28 37 stop;
#X obj 233 152 line~;
#X obj 233 183 cos~;
#X obj 277 316 *~;
#X obj 233 229 +~ 0.5;
#X obj 233 206 *~ -0.5;
#X obj 233 252 q8_sqrt~;
#X obj 277 428 *~ 0;
#X obj 402 428 *~ 1;
#X obj 151 150 s \$0-loop;
#X obj -47 13 sel 1 0;
#X obj 300 13 +;
#X obj 292 -30 -;
#X obj 292 -81 r max_grainsize;
#X obj 315 -60 r min_grainsize;
#X obj 394 2 r \$1-filesize;
#X obj -41 321 delay;
#X obj 417 275 line~;
#X msg 417 252 \$1 5;
#X obj 417 227 r \$0-amplitude;
#X obj 402 352 *~;
#X obj 277 352 *~;
#X obj 450 376 - 1;
#X obj 450 398 abs;
#X obj -28 57 s \$0-stop;
#X obj 151 122 delay;
#X obj -33 298 r \$0-stop;
#X obj 151 89 r \$0-stop;
#X obj 450 332 r \$0-trigger;
#X obj 401 23 r max_grainsize;
#X obj 394 96 -;
#X obj 401 71 t b f;
#X obj 401 48 * 44.1;
#X msg 233 130 0 \, 1 \$1;
#X obj -39 -15 switch~;
#X obj 361 124 random;
#X obj 292 228 +~ 0;
#X obj 272 -8 *;
#X obj 286 78 f;
#X obj -41 342 s \$0-trigger;
#X obj 286 36 r \$0-trigger;
#X obj 313 126 * 44.1;
#X obj 286 100 t f f;
#X obj 292 182 *~ 1;
#X obj 286 57 t b b;
#X obj 14 226 +;
#X obj 6 183 -;
#X obj -14 205 *;
#X obj 29 153 r min_silence;
#X obj -41 268 f;
#X obj 6 132 r max_silence;
#X obj -14 107 r \$0-radius;
#X obj 272 -106 r \$0-phase;
#X connect 0 0 36 0;
#X connect 0 0 21 1;
#X connect 3 0 17 1;
#X connect 4 0 5 0;
#X connect 4 0 8 0;
#X connect 5 0 6 0;
#X connect 6 0 7 0;
#X connect 6 1 11 0;
#X connect 6 2 12 0;
#X connect 8 0 9 0;
#X connect 9 0 10 0;
#X connect 10 0 24 0;
#X connect 10 0 48 0;
#X connect 13 0 63 0;
#X connect 14 0 38 0;
#X connect 15 0 16 0;
#X connect 15 0 57 0;
#X connect 16 0 19 0;
#X connect 17 0 34 0;
#X connect 17 0 35 0;
#X connect 18 0 20 0;
#X connect 19 0 18 0;
#X connect 20 0 17 0;
#X connect 21 0 1 0;
#X connect 22 0 2 0;
#X connect 24 0 63 0;
#X connect 24 1 14 0;
#X connect 25 0 52 1;
#X connect 26 0 51 1;
#X connect 27 0 26 0;
#X connect 28 0 26 1;
#X connect 28 0 25 1;
#X connect 29 0 44 0;
#X connect 30 0 53 0;
#X connect 31 0 34 1;
#X connect 31 0 35 1;
#X connect 32 0 31 0;
#X connect 33 0 32 0;
#X connect 34 0 22 0;
#X connect 35 0 21 0;
#X connect 36 0 37 0;
#X connect 37 0 22 1;
#X connect 39 0 23 0;
#X connect 40 0 30 0;
#X connect 41 0 39 0;
#X connect 42 0 0 0;
#X connect 43 0 46 0;
#X connect 44 0 49 1;
#X connect 45 0 44 0;
#X connect 45 1 44 1;
#X connect 46 0 45 0;
#X connect 47 0 15 0;
#X connect 49 0 50 1;
#X connect 50 0 3 0;
#X connect 51 0 25 0;
#X connect 52 0 56 0;
#X connect 52 0 39 0;
#X connect 54 0 58 0;
#X connect 55 0 57 1;
#X connect 56 0 47 0;
#X connect 56 1 55 0;
#X connect 57 0 50 0;
#X connect 58 0 52 0;
#X connect 58 1 49 0;
#X connect 59 0 63 1;
#X connect 60 0 61 1;
#X connect 61 0 59 0;
#X connect 62 0 60 1;
#X connect 62 0 59 1;
#X connect 63 0 30 0;
#X connect 64 0 60 0;
#X connect 65 0 61 0;
#X connect 66 0 51 0;
