#N canvas 97 200 388 501 10;
#X declare -lib zexy;
#X obj 22 374 soundfiler;
#X obj 22 54 loadbang;
#X obj 21 397 table char_\$1 1;
#X obj 22 163 t f f;
#X obj 22 328 pack s s;
#X msg 22 350 read -resize \$1 \$2;
#X obj 49 301 makefilename char_%d;
#X obj 22 117 f \$1;
#X obj 31 141 s usedChars;
#X obj 22 76 delay \$1;
#X obj 22 275 list2symbol;
#X obj 85 234 loadbang;
#X msg 85 253 symbol;
#X obj 116 60 r database;
#X obj 22 227 pack s s;
#X msg 22 250 \$2 \$1;
#X obj 22 184 makefilename /char_%d.wav;
#X obj 116 82 t b s;
#X obj 23 28 declare -lib zexy;
#X connect 1 0 9 0;
#X connect 3 0 16 0;
#X connect 3 1 6 0;
#X connect 4 0 5 0;
#X connect 5 0 0 0;
#X connect 6 0 4 1;
#X connect 7 0 3 0;
#X connect 7 0 8 0;
#X connect 9 0 7 0;
#X connect 10 0 4 0;
#X connect 11 0 12 0;
#X connect 12 0 10 1;
#X connect 13 0 17 0;
#X connect 14 0 15 0;
#X connect 15 0 10 0;
#X connect 16 0 14 0;
#X connect 17 0 7 0;
#X connect 17 1 14 1;
