#N canvas 143 23 431 459 10;
#X obj 12 387 soundfiler;
#X obj 12 17 loadbang;
#X obj 12 59 \$1;
#X obj 12 123 makefilename 00%d;
#X obj 57 143 makefilename 0%d;
#X obj 108 163 makefilename %d;
#X obj 12 81 moses 10;
#X obj 57 101 moses 100;
#X obj 213 123 makefilename 00%d;
#X obj 258 143 makefilename 0%d;
#X obj 309 163 makefilename %d;
#X obj 213 81 moses 10;
#X obj 258 101 moses 100;
#X obj 213 59 \$2;
#X obj 12 39 t b b, f 34;
#X msg 12 355 read -resize ./hrtf/IRC_1002_C_R0195_T\$1_P\$2.wav T\$1_P\$2-L
T\$1_P\$2-R;
#X obj 12 410 table \$0-L;
#X obj 12 429 table \$0-R;
#X obj 51 288 send \$0-L;
#X obj 12 227 pack s s, f 34;
#X msg 31 309 rename T\$1_P\$2-R;
#X obj 31 331 send \$0-R;
#X obj 12 247 t l l l;
#X msg 51 268 rename T\$1_P\$2-L;
#X connect 1 0 14 0;
#X connect 2 0 6 0;
#X connect 3 0 19 0;
#X connect 4 0 19 0;
#X connect 5 0 19 0;
#X connect 6 0 3 0;
#X connect 6 1 7 0;
#X connect 7 0 4 0;
#X connect 7 1 5 0;
#X connect 8 0 19 1;
#X connect 9 0 19 1;
#X connect 10 0 19 1;
#X connect 11 0 8 0;
#X connect 11 1 12 0;
#X connect 12 0 9 0;
#X connect 12 1 10 0;
#X connect 13 0 11 0;
#X connect 14 0 2 0;
#X connect 14 1 13 0;
#X connect 15 0 0 0;
#X connect 19 0 22 0;
#X connect 20 0 21 0;
#X connect 22 0 15 0;
#X connect 22 1 20 0;
#X connect 22 2 23 0;
#X connect 23 0 18 0;
