#N canvas 0 25 1637 684 10;
#N canvas 558 393 1713 809 config 0;
#X msg 16 16 send volume \, receive volume_params;
#X obj 15 140 send volume_params;
#X msg 16 38 send ratio \, receive ratio_params;
#X msg 16 61 send pan \, receive pan_params;
#X obj 16 188 send ratio_params;
#X obj 18 235 send pan_params;
#X obj 390 86 r fundamental;
#X obj 390 41 mtof;
#X obj 390 19 r midi_fundamental;
#X obj 390 63 s set_hz_fundamental;
#X obj 390 108 ftom;
#X msg 390 129 set \$1;
#X obj 391 151 s set_midi_fundamental;
#X obj 139 324 r pan;
#X obj 28 324 r ratio;
#X obj 83 324 r volume;
#X obj 28 347 clone jurado-osc 40;
#X obj 548 18 loadbang;
#X obj 179 322 r master;
#X obj 18 282 send master_params;
#X msg 14 82 send master \, receive master_params;
#X obj 177 407 line~;
#X obj 178 343 * 0.01;
#X obj 178 365 pow 3;
#X obj 23 501 *~;
#X obj 139 495 *~;
#X obj 23 521 expr~ atan($v1);
#X obj 23 543 *~ 0.63662;
#X obj 139 521 expr~ atan($v1);
#X obj 139 543 *~ 0.63662;
#X obj 23 596 dac~ 1 2, f 20;
#X msg 177 385 \$1 30;
#N canvas 1103 124 859 901 grabacion 0;
#X msg 558 502 open \$1 \, start;
#X msg 567 630 stop;
#X obj 700 120 time;
#X obj 511 89 t b b;
#X obj 644 174 makefilename 0%d;
#X obj 644 151 moses 10;
#X obj 707 224 makefilename 0%d;
#X obj 707 201 moses 10;
#X obj 770 271 makefilename 0%d;
#X obj 770 248 moses 10;
#X obj 393 222 makefilename 0%d;
#X obj 393 199 moses 10;
#X obj 456 272 makefilename 0%d;
#X obj 456 249 moses 10;
#X obj 519 319 makefilename 0%d;
#X obj 519 296 moses 10;
#X obj 393 367 list append;
#X obj 456 344 list append;
#X obj 511 113 date;
#X obj 393 389 list2symbol -;
#X obj 531 413 list append;
#X obj 531 434 list2symbol @;
#X obj 558 656 s recInstr;
#X obj 567 528 r recMsg;
#X obj 567 549 sel 0;
#X obj 525 21 r recMsg;
#X obj 707 296 list append;
#X obj 644 319 list append;
#X obj 644 341 list2symbol ';
#X obj 514 677 s recFades;
#X obj 531 480 t b s;
#X msg 514 530 0 \, 1 50;
#X obj 567 573 t b b;
#X obj 567 606 delay 55;
#X msg 525 607 0 50;
#X obj 27 215 r recInstr;
#X obj 258 93 r recFades;
#X obj 258 118 line~;
#X obj 250 183 *~;
#X obj 525 64 sel 1;
#X obj 525 42 != 0;
#X obj 160 260 writesf~ 2;
#X obj 142 452 r recMsg;
#X obj 81 479 metro 500;
#X obj 81 503 tgl 15 0 empty empty empty 17 7 0 10 #fcfcfc #000000
#000000 0 1;
#X obj 81 524 sel 0 1;
#X msg 100 546 symbol STOP;
#X msg 81 566 symbol;
#X obj 142 479 sel 0;
#X obj 531 459 makefilename ./spectrum_%s.wav;
#X obj 147 67 inlet~;
#X obj 197 67 inlet~;
#X obj 159 177 *~;
#X msg 144 504 \; recStatus label REC \, label_pos 7 23 \, color #6f4060
22 #d8d9bf;
#X msg 81 593 \; recStatus label \$1 \, label_pos 1 23 \, color #d8d9bf
22 #3f3254;
#X connect 0 0 22 0;
#X connect 1 0 22 0;
#X connect 2 0 5 0;
#X connect 2 1 7 0;
#X connect 2 2 9 0;
#X connect 3 0 18 0;
#X connect 3 1 2 0;
#X connect 4 0 27 0;
#X connect 5 0 4 0;
#X connect 5 1 27 0;
#X connect 6 0 26 0;
#X connect 7 0 6 0;
#X connect 7 1 26 0;
#X connect 8 0 26 1;
#X connect 9 0 8 0;
#X connect 9 1 26 1;
#X connect 10 0 16 0;
#X connect 11 0 10 0;
#X connect 11 1 16 0;
#X connect 12 0 17 0;
#X connect 13 0 12 0;
#X connect 13 1 17 0;
#X connect 14 0 17 1;
#X connect 15 0 14 0;
#X connect 15 1 17 1;
#X connect 16 0 19 0;
#X connect 17 0 16 1;
#X connect 18 0 11 0;
#X connect 18 1 13 0;
#X connect 18 2 15 0;
#X connect 19 0 20 0;
#X connect 20 0 21 0;
#X connect 21 0 49 0;
#X connect 23 0 24 0;
#X connect 24 0 32 0;
#X connect 25 0 40 0;
#X connect 26 0 27 1;
#X connect 27 0 28 0;
#X connect 28 0 20 1;
#X connect 30 0 31 0;
#X connect 30 1 0 0;
#X connect 31 0 29 0;
#X connect 32 0 33 0;
#X connect 32 1 34 0;
#X connect 33 0 1 0;
#X connect 34 0 29 0;
#X connect 35 0 41 0;
#X connect 36 0 37 0;
#X connect 37 0 38 1;
#X connect 37 0 52 1;
#X connect 38 0 41 1;
#X connect 39 0 3 0;
#X connect 40 0 39 0;
#X connect 42 0 43 0;
#X connect 42 0 48 0;
#X connect 43 0 44 0;
#X connect 44 0 45 0;
#X connect 45 0 47 0;
#X connect 45 1 46 0;
#X connect 46 0 54 0;
#X connect 47 0 54 0;
#X connect 48 0 53 0;
#X connect 49 0 30 0;
#X connect 50 0 52 0;
#X connect 51 0 38 0;
#X connect 52 0 41 0;
#X restore 31 567 pd grabacion;
#X msg 548 63 \; set_midi_fundamental 36 \; master_params 0 \; harm_params
1 2 3 4 5 6 7 8 9 10 11 12 13 14 15 16 17 18 19 20 21 22 23 24 25 26
27 28 29 30 31 32 33 34 35 36 37 38 39 40 \; ratio_params 0 0 0 0 0
0 0 0 0 0 0 0 0 0 0 0 0 0 0 0 0 0 0 0 0 0 0 0 0 0 0 0 0 0 0 0 0 0 0
0 \; volume_params 100 98 96 94 92 90 88 86 84 82 80 78 76 74 72 70
68 66 64 62 60 58 56 54 52 50 48 46 44 42 40 38 36 34 32 30 28 26 24
22 \; pan_params 0 0.1 -0.1 0.2 -0.2 0.3 -0.3 0.4 -0.4 0.5 -0.5 0.6
-0.6 0.7 -0.7 0.8 -0.8 0.9 -0.9 1 -1 0.95 -0.95 0.85 -0.85 0.75 -0.75
0.65 -0.65 0.55 -0.55 0.45 -0.45 0.35 -0.35 0.25 -0.25 0.15 -0.15 \;
pd dsp 1, f 140;
#X obj 548 39 delay 10;
#X msg 17 259 n 1 \, dim 45 485 \, range 0 200 \, mode 1;
#X msg 15 117 n 40 \, dim 1500 150 \, range 0 100 \, rename vol_array
;
#X msg 16 166 n 40 \, dim 1500 100 \, range -0.5 0.5 \, rename ratio_array
;
#X msg 18 212 n 40 \, dim 1500 50 \, range -1 1 \, rename pan_array
;
#X msg 1222 500 clear;
#X msg 293 594 write \$1;
#X obj 295 378 savepanel;
#X obj 295 401 t s b b b b b b, f 155;
#X obj 606 490 array get vol_array;
#X obj 758 497 array get ratio_array;
#X obj 448 483 array get pan_array;
#X obj 921 492 array get harm_array;
#X obj 448 545 list prepend add;
#X obj 448 567 list trim;
#X obj 587 552 list prepend add;
#X obj 587 574 list trim;
#X obj 758 558 list prepend add;
#X obj 758 580 list trim;
#X obj 921 552 list prepend add;
#X obj 921 574 list trim;
#X obj 1336 370 openpanel;
#X obj 680 709 textfile;
#X obj 1317 429 until;
#X obj 1336 396 t b a;
#X obj 1315 488 textfile, f 19;
#X msg 1387 419 read \$1 \, rewind;
#X obj 1313 518 list split 40;
#X obj 1312 547 send;
#X obj 587 532 list append volume_params;
#X obj 448 525 list append pan_params;
#X obj 758 538 list append ratio_params;
#X obj 921 532 list append harm_params;
#N canvas 0 22 450 278 (subpatch) 0;
#X array harm_array 40 float 2;
#X coords 0 40 40 0 200 140 1 0 0;
#X restore 398 191 graph;
#X obj 1336 345 r load_preset;
#X obj 295 353 r save_preset;
#X obj 789 443 r mem_ratio;
#X obj 951 440 r mem_harm;
#X obj 650 433 r mem_vol;
#X obj 486 433 r mem_pan;
#X obj 453 457 spigot 0;
#X obj 617 457 spigot 0;
#X obj 756 467 spigot 0;
#X obj 918 461 spigot 0;
#X connect 6 0 10 0;
#X connect 7 0 9 0;
#X connect 8 0 7 0;
#X connect 10 0 11 0;
#X connect 11 0 12 0;
#X connect 13 0 16 2;
#X connect 14 0 16 0;
#X connect 15 0 16 1;
#X connect 16 0 24 0;
#X connect 16 1 25 0;
#X connect 17 0 34 0;
#X connect 18 0 22 0;
#X connect 21 0 25 1;
#X connect 21 0 24 1;
#X connect 22 0 23 0;
#X connect 23 0 31 0;
#X connect 24 0 26 0;
#X connect 25 0 28 0;
#X connect 26 0 27 0;
#X connect 27 0 30 0;
#X connect 27 0 32 0;
#X connect 28 0 29 0;
#X connect 29 0 30 1;
#X connect 29 0 32 1;
#X connect 31 0 21 0;
#X connect 34 0 33 0;
#X connect 35 0 19 0;
#X connect 36 0 1 0;
#X connect 37 0 4 0;
#X connect 38 0 5 0;
#X connect 39 0 56 0;
#X connect 40 0 56 0;
#X connect 41 0 42 0;
#X connect 42 0 40 0;
#X connect 42 1 74 0;
#X connect 42 2 75 0;
#X connect 42 3 76 0;
#X connect 42 4 77 0;
#X connect 42 6 39 0;
#X connect 43 0 63 0;
#X connect 44 0 65 0;
#X connect 45 0 64 0;
#X connect 46 0 66 0;
#X connect 47 0 48 0;
#X connect 48 0 56 0;
#X connect 49 0 50 0;
#X connect 50 0 56 0;
#X connect 51 0 52 0;
#X connect 52 0 56 0;
#X connect 53 0 54 0;
#X connect 54 0 56 0;
#X connect 55 0 58 0;
#X connect 57 0 59 0;
#X connect 58 0 57 0;
#X connect 58 1 60 0;
#X connect 59 0 61 0;
#X connect 59 1 57 1;
#X connect 60 0 59 0;
#X connect 61 0 62 0;
#X connect 61 1 62 1;
#X connect 63 0 49 0;
#X connect 64 0 47 0;
#X connect 65 0 51 0;
#X connect 66 0 53 0;
#X connect 68 0 55 0;
#X connect 69 0 41 0;
#X connect 70 0 76 1;
#X connect 71 0 77 1;
#X connect 72 0 75 1;
#X connect 73 0 74 1;
#X connect 74 0 45 0;
#X connect 75 0 43 0;
#X connect 76 0 44 0;
#X connect 77 0 46 0;
#X restore 1539 3 pd config;
#X obj 0 0 cnv 15 1600 650 empty empty empty 20 12 0 14 #d7d7be #404040
0;
#X obj 339 50 nbx 5 15 0 127 0 0 midi_fundamental set_midi_fundamental
midi 78 9 0 14 #6f4060 #d8d9bf #3f3353 0 256;
#X obj 69 342 else/multi.vsl 1500 150 0 100 40 vol_array volume volume_params
63 51 84 111 64 97 217 217 192 1 1 0 holder holder 100 98 96 94 92
90 88 86 84 82 80 78 76 74 72 70 68 66 64 62 60 58 56 54 52 50 48 46
44 42 40 38 36 34 32 30 28 26 24 22;
#X obj 69 182 else/multi.vsl 1500 100 -0.5 0.5 40 ratio_array ratio
ratio_params 63 51 84 111 64 97 217 217 192 1 1 0 holder holder 0 0
0 0 0 0 0 0 0 0 0 0 0 0 0 0 0 0 0 0 0 0 0 0 0 0 0 0 0 0 0 0 0 0 0 0
0 0 0 0;
#X obj 69 552 else/multi.vsl 1500 50 -1 1 40 pan_array pan pan_params
63 51 84 111 64 97 217 217 192 1 1 0 holder holder 0 0.1 -0.1 0.2 -0.2
0.3 -0.3 0.4 -0.4 0.5 -0.5 0.6 -0.6 0.7 -0.7 0.8 -0.8 0.9 -0.9 1 -1
0.95 -0.95 0.85 -0.85 0.75 -0.75 0.65 -0.65 0.55 -0.55 0.45 -0.45 0.35
-0.35 0.25 -0.25 0.15 -0.15 1;
#X obj 339 70 nbx 7 15 0 24000 0 0 fundamental set_hz_fundamental hz
100 9 0 14 #6f4060 #d8d9bf #3f3353 0 256;
#X obj 69 286 vis_param ratio 0;
#X obj 107 286 vis_param ratio 1;
#X obj 144 286 vis_param ratio 2;
#X obj 181 286 vis_param ratio 3;
#X obj 219 286 vis_param ratio 4;
#X obj 257 286 vis_param ratio 5;
#X obj 294 286 vis_param ratio 6;
#X obj 331 286 vis_param ratio 7;
#X obj 369 286 vis_param ratio 8;
#X obj 407 286 vis_param ratio 9;
#X obj 444 286 vis_param ratio 10;
#X obj 481 286 vis_param ratio 11;
#X obj 519 286 vis_param ratio 12;
#X obj 557 286 vis_param ratio 13;
#X obj 594 286 vis_param ratio 14;
#X obj 631 286 vis_param ratio 15;
#X obj 669 286 vis_param ratio 16;
#X obj 707 286 vis_param ratio 17;
#X obj 744 286 vis_param ratio 18;
#X obj 781 286 vis_param ratio 19;
#X obj 819 286 vis_param ratio 20;
#X obj 857 286 vis_param ratio 21;
#X obj 894 286 vis_param ratio 22;
#X obj 931 286 vis_param ratio 23;
#X obj 969 286 vis_param ratio 24;
#X obj 1007 286 vis_param ratio 25;
#X obj 1044 286 vis_param ratio 26;
#X obj 1081 286 vis_param ratio 27;
#X obj 1119 286 vis_param ratio 28;
#X obj 1157 286 vis_param ratio 29;
#X obj 1194 286 vis_param ratio 30;
#X obj 1231 286 vis_param ratio 31;
#X obj 1269 286 vis_param ratio 32;
#X obj 1307 286 vis_param ratio 33;
#X obj 1344 286 vis_param ratio 34;
#X obj 1381 286 vis_param ratio 35;
#X obj 1419 286 vis_param ratio 36;
#X obj 1457 286 vis_param ratio 37;
#X obj 1494 286 vis_param ratio 38;
#X obj 1531 286 vis_param ratio 39;
#X obj 69 496 vis_param volume 0;
#X obj 107 496 vis_param volume 1;
#X obj 144 496 vis_param volume 2;
#X obj 181 496 vis_param volume 3;
#X obj 219 496 vis_param volume 4;
#X obj 257 496 vis_param volume 5;
#X obj 294 496 vis_param volume 6;
#X obj 331 496 vis_param volume 7;
#X obj 369 496 vis_param volume 8;
#X obj 407 496 vis_param volume 9;
#X obj 444 496 vis_param volume 10;
#X obj 481 496 vis_param volume 11;
#X obj 519 496 vis_param volume 12;
#X obj 557 496 vis_param volume 13;
#X obj 594 496 vis_param volume 14;
#X obj 631 496 vis_param volume 15;
#X obj 669 496 vis_param volume 16;
#X obj 707 496 vis_param volume 17;
#X obj 744 496 vis_param volume 18;
#X obj 781 496 vis_param volume 19;
#X obj 819 496 vis_param volume 20;
#X obj 857 496 vis_param volume 21;
#X obj 894 496 vis_param volume 22;
#X obj 931 496 vis_param volume 23;
#X obj 969 496 vis_param volume 24;
#X obj 1007 496 vis_param volume 25;
#X obj 1044 496 vis_param volume 26;
#X obj 1081 496 vis_param volume 27;
#X obj 1119 496 vis_param volume 28;
#X obj 1157 496 vis_param volume 29;
#X obj 1194 496 vis_param volume 30;
#X obj 1231 496 vis_param volume 31;
#X obj 1269 496 vis_param volume 32;
#X obj 1307 496 vis_param volume 33;
#X obj 1344 496 vis_param volume 34;
#X obj 1381 496 vis_param volume 35;
#X obj 1419 496 vis_param volume 36;
#X obj 1457 496 vis_param volume 37;
#X obj 1494 496 vis_param volume 38;
#X obj 1531 496 vis_param volume 39;
#X obj 69 606 vis_param pan 0;
#X obj 107 606 vis_param pan 1;
#X obj 144 606 vis_param pan 2;
#X obj 181 606 vis_param pan 3;
#X obj 219 606 vis_param pan 4;
#X obj 257 606 vis_param pan 5;
#X obj 294 606 vis_param pan 6;
#X obj 331 606 vis_param pan 7;
#X obj 369 606 vis_param pan 8;
#X obj 407 606 vis_param pan 9;
#X obj 444 606 vis_param pan 10;
#X obj 481 606 vis_param pan 11;
#X obj 519 606 vis_param pan 12;
#X obj 557 606 vis_param pan 13;
#X obj 594 606 vis_param pan 14;
#X obj 631 606 vis_param pan 15;
#X obj 669 606 vis_param pan 16;
#X obj 707 606 vis_param pan 17;
#X obj 744 606 vis_param pan 18;
#X obj 781 606 vis_param pan 19;
#X obj 819 606 vis_param pan 20;
#X obj 857 606 vis_param pan 21;
#X obj 894 606 vis_param pan 22;
#X obj 931 606 vis_param pan 23;
#X obj 969 606 vis_param pan 24;
#X obj 1007 606 vis_param pan 25;
#X obj 1044 606 vis_param pan 26;
#X obj 1081 606 vis_param pan 27;
#X obj 1119 606 vis_param pan 28;
#X obj 1157 606 vis_param pan 29;
#X obj 1194 606 vis_param pan 30;
#X obj 1231 606 vis_param pan 31;
#X obj 1269 606 vis_param pan 32;
#X obj 1307 606 vis_param pan 33;
#X obj 1344 606 vis_param pan 34;
#X obj 1381 606 vis_param pan 35;
#X obj 1419 606 vis_param pan 36;
#X obj 1457 606 vis_param pan 37;
#X obj 1494 606 vis_param pan 38;
#X obj 1531 606 vis_param pan 39;
#X obj 69 530 cnv 15 200 20 empty empty PAN 0 12 0 14 #d7d7bd #3f3353
0;
#X obj 69 161 cnv 15 200 20 empty empty RATIO 0 12 0 14 #d7d7bd #3f3353
0;
#X obj 69 321 cnv 15 200 20 empty empty VOLUME 0 12 0 14 #d7d7bd #3f3353
0;
#X obj 69 136 harm_param 0;
#X obj 107 136 harm_param 1;
#X obj 144 136 harm_param 2;
#X obj 181 136 harm_param 3;
#X obj 219 136 harm_param 4;
#X obj 257 136 harm_param 5;
#X obj 294 136 harm_param 6;
#X obj 331 136 harm_param 7;
#X obj 369 136 harm_param 8;
#X obj 407 136 harm_param 9;
#X obj 444 136 harm_param 10;
#X obj 481 136 harm_param 11;
#X obj 519 136 harm_param 12;
#X obj 557 136 harm_param 13;
#X obj 594 136 harm_param 14;
#X obj 631 136 harm_param 15;
#X obj 669 136 harm_param 16;
#X obj 707 136 harm_param 17;
#X obj 744 136 harm_param 18;
#X obj 781 136 harm_param 19;
#X obj 819 136 harm_param 20;
#X obj 857 136 harm_param 21;
#X obj 894 136 harm_param 22;
#X obj 931 136 harm_param 23;
#X obj 969 136 harm_param 24;
#X obj 1007 136 harm_param 25;
#X obj 1044 136 harm_param 26;
#X obj 1081 136 harm_param 27;
#X obj 1119 136 harm_param 28;
#X obj 1157 136 harm_param 29;
#X obj 1194 136 harm_param 30;
#X obj 1231 136 harm_param 31;
#X obj 1269 136 harm_param 32;
#X obj 1307 136 harm_param 33;
#X obj 1344 136 harm_param 34;
#X obj 1381 136 harm_param 35;
#X obj 1419 136 harm_param 36;
#X obj 1457 136 harm_param 37;
#X obj 1494 136 harm_param 38;
#X obj 1531 136 harm_param 39;
#X obj 69 111 cnv 15 200 20 empty empty HARMONICS 0 12 0 14 #d7d7bd
#3f3353 0;
#X obj 491 20 else/keyboard 21 74 5 0 0 1 set_midi_fundamental nothing
;
#X obj 339 21 cnv 15 20 20 empty empty FUNDAMENTAL 0 12 0 14 #d7d7bd
#3e3252 0;
#X obj 10 135 else/multi.vsl 45 485 0 200 1 empty master master_params
63 51 84 111 64 97 217 217 192 1 1 1 holder holder 0;
#X obj 9 111 cnv 15 20 20 empty empty MASTER 0 12 0 14 #d7d7bd #3f3353
0;
#X obj 10 40 tgl 45 0 recMsg MIDI_recMsg empty 17 7 0 48 #fcfcfc #000000
#000000 0 127;
#X obj 10 40 cnv 15 45 45 empty recStatus REC 7 23 0 18 #6f4060 #d8d9bf
0;
#X obj 250 46 tgl 15 0 mem_vol empty volume 20 7 0 10 #6e3f60 #d9d9bf
#3f3353 0 1;
#X obj 250 66 tgl 15 0 mem_pan sdfasdfadfadfdaf pan 20 7 0 10 #6e3f60
#d9d9bf #3f3353 0 1;
#X obj 170 46 tgl 15 0 mem_harm xxxx harmonics 20 7 0 10 #6e3f60 #d9d9bf
#3f3353 0 1;
#X obj 170 66 tgl 15 0 mem_ratio cccccc ratio 20 7 0 10 #6e3f60 #d9d9bf
#3f3353 0 1;
#X obj 119 41 bng 45 250 50 0 save_preset sssssssssss SAVE 5 23 0 15
#6e3f60 #3f3353 #d7d7bd;
#X obj 69 41 bng 45 250 50 0 load_preset sssssssssss LOAD 5 23 0 15
#6e3f60 #3f3353 #d7d7bd;
#X coords 0 -1 1 1 1600 650 1 0 0;
