#N canvas 1049 22 386 445 10;
#N canvas 331 22 852 413 gemwin 1;
#X obj 101 186 gemwin;
#X obj 118 81 r screenSize;
#X obj 126 124 loadbang;
#X msg 22 -63 create \, 1 \; pd dsp 1;
#X obj 381 287 circle;
#X msg 394 167 draw fill;
#X obj 381 -92 gemhead;
#X obj 381 125 translateXYZ;
#X obj 404 -71 gemmouse;
#X obj 404 -7 /;
#X obj 419 -49 r screenSize;
#X obj 419 -28 unpack;
#X obj 414 15 s mouseScaling;
#X obj 414 200 r mouseScaling;
#X obj 394 147 loadbang;
#X text 433 56 screen range (-5 to 5);
#X obj 404 37 * 11;
#X obj 404 58 - 6;
#X obj 404 103 line;
#X obj 414 265 line;
#X msg 414 242 \$1 100;
#X msg 404 80 \$1 100;
#X obj 414 221 * 1.4;
#X obj 653 -26 translateXYZ;
#X obj 653 69 text2d;
#X msg 686 47 48;
#X obj 580 23 gemkeyname;
#X msg 699 -46 2;
#X obj 686 -67 loadbang;
#X obj 653 -91 gemhead;
#X msg 118 103 dimen \$1 \$2;
#X obj 666 2 loadbang;
#X msg 666 23 text TENNEY: Critical band;
#X msg 118 43 \; screenSize 1280 800;
#X obj 118 21 loadbang;
#X obj 22 -88 r enter;
#X obj 101 -85 r destroyScreen;
#X msg 101 -22 destroy;
#X msg 126 151 fullscreen 1 \, cursor 0 \, menubar 0;
#X connect 1 0 30 0;
#X connect 2 0 38 0;
#X connect 3 0 0 0;
#X connect 5 0 4 0;
#X connect 6 0 7 0;
#X connect 7 0 4 0;
#X connect 8 0 9 0;
#X connect 9 0 12 0;
#X connect 9 0 16 0;
#X connect 10 0 11 0;
#X connect 11 0 9 1;
#X connect 13 0 22 0;
#X connect 14 0 5 0;
#X connect 16 0 17 0;
#X connect 17 0 21 0;
#X connect 18 0 7 1;
#X connect 19 0 4 1;
#X connect 20 0 19 0;
#X connect 21 0 18 0;
#X connect 22 0 20 0;
#X connect 23 0 24 0;
#X connect 25 0 24 1;
#X connect 26 1 24 0;
#X connect 27 0 23 2;
#X connect 28 0 27 0;
#X connect 28 0 25 0;
#X connect 29 0 23 0;
#X connect 30 0 0 0;
#X connect 31 0 32 0;
#X connect 32 0 24 0;
#X connect 34 0 33 0;
#X connect 35 0 3 0;
#X connect 36 0 37 0;
#X connect 37 0 0 0;
#X connect 38 0 0 0;
#X restore -3 136 pd gemwin;
#X text -7 178 the synth is 100% monophonic and it works as follows:
in case of multiple keys pressed simoultaneously \, only the key pressed
in the first time will work (and therefore other keys pressed after
this will be ignored). For a new key to work first release all the
keys and then press.;
#N canvas 7 22 933 742 guts 0;
#X obj 166 633 list-compare;
#X obj 239 526 unpack;
#X obj 272 548 once;
#X obj 196 655 sel 1;
#X obj 196 678 s resetGate;
#X obj 293 525 r resetGate;
#X obj 166 678 == 0;
#X obj 272 574 s frequency;
#X obj 166 699 s state;
#X obj 166 469 r pairs;
#X obj 166 491 t l l;
#X obj 235 609 pack 0 f;
#X obj 235 573 t b f;
#X obj -133 686 pack f 110;
#X obj -118 666 pack f 220;
#X obj -103 646 pack f 275;
#X obj -88 626 pack f 330;
#X obj -73 605 pack f 385;
#X obj -58 584 pack f 412.5;
#X obj -43 564 pack f 426.2;
#X obj -28 544 pack f 433.1;
#X obj -13 524 pack f 436.6;
#X obj 2 502 pack f 440;
#X obj 17 482 pack f 443.4;
#X obj 32 462 pack f 446.9;
#X obj 47 439 pack f 453.8;
#X obj 62 417 pack f 467.5;
#X obj 77 397 pack f 495;
#X obj 92 376 pack f 550;
#X obj 107 355 pack f 605;
#X obj 122 334 pack f 660;
#X obj 137 314 pack f 715;
#X obj 152 294 pack f 770;
#X obj 167 272 pack f 825;
#X obj 182 250 pack f 880;
#X text -64 686 A;
#X text -49 666 B;
#X text -33 648 C;
#X text -17 627 D;
#X text -3 604 E;
#X text 23 584 F;
#X text 38 561 G;
#X text 54 544 H;
#X text 70 525 I;
#X text 72 502 J;
#X text 100 482 K;
#X text 112 462 L;
#X text 127 439 M;
#X text 140 417 N;
#X text 145 396 O;
#X text 162 373 P;
#X text 174 355 Q;
#X text 189 335 R;
#X text 207 313 S;
#X text 222 292 T;
#X text 239 272 U;
#X text 251 249 V;
#X obj -119 713 s pairs;
#X text -135 16 keyboard to pure data;
#X text 166 448 gates/note preference;
#X obj 336 25 r frequency;
#X obj 386 306 *~;
#X obj 414 264 line~;
#X obj 401 597 dac~;
#X obj 414 221 r state;
#X text 343 4 synthesizer;
#X obj 197 205 sel 1;
#X obj 415 310 r mouseScaling;
#X obj 415 352 line~;
#X obj 415 373 expr~ pow($V1 \, 2.5);
#X msg 415 331 \$1 100;
#X obj 414 284 expr~ pow($V1 \, 2.5);
#X msg 414 242 \$1 1000;
#X obj 336 73 bp~ 1000 10;
#X obj 435 25 r frequency;
#X obj 386 223 +~;
#X obj 450 92 r selection;
#X obj 450 114 == 1;
#X obj 435 179 *~;
#X obj 450 158 line~;
#X msg 450 136 \$1 10;
#X obj 351 98 r selection;
#X obj 336 185 *~;
#X obj 351 164 line~;
#X msg 351 142 \$1 10;
#X obj 351 120 == 0;
#X obj 336 47 tabosc4~ sound1;
#X obj 435 47 tabosc4~ sound2;
#X obj 426 548 freeverb~;
#X obj 456 499 loadbang;
#X obj 411 569 +~;
#X obj 471 421 == 1;
#X obj 426 499 *~;
#X obj 471 465 line~;
#X msg 471 443 \$1 10;
#X obj 386 499 *~;
#X obj 431 465 line~;
#X msg 431 443 \$1 10;
#X obj 431 421 == 0;
#X obj 386 395 *~;
#X obj 431 399 r selection;
#X obj -112 81 gemkeyboard;
#X obj -133 106 pack;
#N canvas 199 22 418 278 sounds 0;
#X obj 0 -149 table sound1;
#X obj 0 -129 table sound2;
#X text 82 -150 ambos sonidos están sintetizados con 22 parciales.
;
#X obj 1 -5 loadbang;
#X obj 0 -102 loadbang;
#X msg 0 -80 \; sound1 sinesum 512 1000 0 500 0 250 0 125 0 62.5 0
31.25 0 15.625 0 7.8125 0 3.90625 0 1.95312 0 0.976562 0 \; sound1
normalize 1;
#X msg 1 17 \; sound2 sinesum 512 15 14 13 12 11 10 9 8 7 6 5 4 3 2
1 \; sound2 normalize 1;
#X connect 3 0 6 0;
#X connect 4 0 5 0;
#X restore 57 104 pd sounds;
#N canvas 561 188 360 442 discarded 0;
#X obj 219 110 +~ 0.05;
#X obj 219 131 +~ 0.95;
#X obj 219 89 noisi~ 55;
#X obj 51 170 *~;
#X obj 66 113 *~ 0.2;
#X obj 66 134 +~ 0.8;
#X obj 204 173 *~;
#X obj 219 152 lop~ 2;
#X obj 66 88 osc~ 27.5;
#X text 47 210 discarded AM for sounds 1 and 2;
#X obj 82 -29 *~ 0.5;
#X obj 82 -7 +~ 0.5;
#X obj 82 -53 noisi~;
#X obj 82 36 +~ 200;
#X obj 82 14 *~ 1000;
#X obj 63 58 vcf~ 10;
#X obj 82 -77 / 1024;
#X obj 231 -28 *~ 0.5;
#X obj 231 -6 +~ 0.5;
#X obj 231 -52 noisi~;
#X obj 231 37 +~ 1000;
#X obj 270 -76 * 3;
#X obj 231 15 *~ 100;
#X obj 212 59 vcf~ 10;
#X obj 231 -76 / 4;
#X obj 82 -99 r frequency;
#X obj 231 -107 r frequency;
#X connect 0 0 1 0;
#X connect 1 0 7 0;
#X connect 2 0 0 0;
#X connect 4 0 5 0;
#X connect 5 0 3 1;
#X connect 7 0 6 1;
#X connect 8 0 4 0;
#X connect 10 0 11 0;
#X connect 11 0 14 0;
#X connect 12 0 10 0;
#X connect 13 0 15 1;
#X connect 14 0 13 0;
#X connect 16 0 12 0;
#X connect 17 0 18 0;
#X connect 18 0 22 0;
#X connect 19 0 17 0;
#X connect 20 0 23 1;
#X connect 21 0 20 1;
#X connect 22 0 20 0;
#X connect 24 0 19 0;
#X connect 25 0 16 0;
#X connect 26 0 24 0;
#X connect 26 0 21 0;
#X restore 57 82 pd discarded;
#X obj -133 58 change;
#X obj -133 37 gemkeyname;
#X obj -133 128 swap;
#X obj -133 148 pack;
#X obj 224 228 s destroyScreen;
#X obj -133 172 route 0 11 8 2 14 3 5 4 34 38 40 37 46 45 31 35 12
15 1 17 32 9 53;
#X obj 435 71 bp~ 1000 10;
#X msg 456 522 roomsize 0.8 \, damping 0.2 \, width 1 \, wet 0.8 \,
dry 0.2;
#X connect 0 0 3 0;
#X connect 0 0 6 0;
#X connect 1 1 2 0;
#X connect 2 0 7 0;
#X connect 2 0 12 0;
#X connect 3 0 4 0;
#X connect 5 0 2 1;
#X connect 6 0 8 0;
#X connect 9 0 10 0;
#X connect 10 0 0 0;
#X connect 10 1 1 0;
#X connect 11 0 0 1;
#X connect 12 0 11 0;
#X connect 12 1 11 1;
#X connect 13 0 57 0;
#X connect 14 0 57 0;
#X connect 15 0 57 0;
#X connect 16 0 57 0;
#X connect 17 0 57 0;
#X connect 18 0 57 0;
#X connect 19 0 57 0;
#X connect 20 0 57 0;
#X connect 21 0 57 0;
#X connect 22 0 57 0;
#X connect 23 0 57 0;
#X connect 24 0 57 0;
#X connect 25 0 57 0;
#X connect 26 0 57 0;
#X connect 27 0 57 0;
#X connect 28 0 57 0;
#X connect 29 0 57 0;
#X connect 30 0 57 0;
#X connect 31 0 57 0;
#X connect 32 0 57 0;
#X connect 33 0 57 0;
#X connect 34 0 57 0;
#X connect 60 0 86 0;
#X connect 61 0 99 0;
#X connect 62 0 71 0;
#X connect 64 0 72 0;
#X connect 66 1 109 0;
#X connect 67 0 70 0;
#X connect 68 0 69 0;
#X connect 69 0 99 1;
#X connect 70 0 68 0;
#X connect 71 0 61 1;
#X connect 72 0 62 0;
#X connect 73 0 82 0;
#X connect 74 0 87 0;
#X connect 75 0 61 0;
#X connect 76 0 77 0;
#X connect 77 0 80 0;
#X connect 78 0 75 1;
#X connect 79 0 78 1;
#X connect 80 0 79 0;
#X connect 81 0 85 0;
#X connect 82 0 75 0;
#X connect 83 0 82 1;
#X connect 84 0 83 0;
#X connect 85 0 84 0;
#X connect 86 0 73 0;
#X connect 87 0 111 0;
#X connect 88 0 90 1;
#X connect 89 0 112 0;
#X connect 90 0 63 0;
#X connect 90 0 63 1;
#X connect 91 0 94 0;
#X connect 92 0 88 0;
#X connect 93 0 92 1;
#X connect 94 0 93 0;
#X connect 95 0 90 0;
#X connect 96 0 95 1;
#X connect 97 0 96 0;
#X connect 98 0 97 0;
#X connect 99 0 95 0;
#X connect 99 0 92 0;
#X connect 100 0 98 0;
#X connect 100 0 91 0;
#X connect 101 0 102 1;
#X connect 102 0 107 0;
#X connect 105 0 102 0;
#X connect 106 0 105 0;
#X connect 107 0 108 0;
#X connect 107 1 108 1;
#X connect 108 0 110 0;
#X connect 110 0 13 0;
#X connect 110 1 14 0;
#X connect 110 2 15 0;
#X connect 110 3 16 0;
#X connect 110 4 17 0;
#X connect 110 5 18 0;
#X connect 110 6 19 0;
#X connect 110 7 20 0;
#X connect 110 8 21 0;
#X connect 110 9 22 0;
#X connect 110 10 23 0;
#X connect 110 11 24 0;
#X connect 110 12 25 0;
#X connect 110 13 26 0;
#X connect 110 14 27 0;
#X connect 110 15 28 0;
#X connect 110 16 29 0;
#X connect 110 17 30 0;
#X connect 110 18 31 0;
#X connect 110 19 32 0;
#X connect 110 20 33 0;
#X connect 110 21 34 0;
#X connect 110 22 66 0;
#X connect 111 0 78 0;
#X connect 112 0 88 0;
#X restore 61 136 pd guts;
#X msg -1 35 sound1 \; selection 0;
#X msg 86 35 sound2 \; selection 1;
#X obj 210 17 bng 50 250 50 0 enter empty empty 17 7 0 10 -262144 -1
-1;
#X obj -1 12 loadbang;
#X obj 36 -133 SYNTHESIZER FOR JAMES TENNEY'S CRITICAL BAND;
#X text -4 98 To see your mouse pointer again \, press your mouse button
(mac) or left button.;
#X text -7 160 NOTE:;
#X text -2 80 TO EXIT FULLSCREEN \, PRESS ESC.;
#X text -2 -93 Choose which of the following two sounds (default is
sound1) you want to play. Even if they don't resemble any acoustic
instrument's timbre \, the twofold division of the ensemble into winds
and strings was considered when designing these sounds. Only in that
sense "sound1" identifies with the wind section while "sound2" does
with the string section:;
#X text -6 -110 INSTRUCTIONS:;
#X text 169 -5 TO START PLAYING \, PRESS:;
#X text -2 269 ángel faraldo \, march 2010;
#X connect 6 0 3 0;
