#N canvas 788 328 427 385 10;
#N canvas 139 400 538 388 processing 0;
#N canvas 251 397 368 402 amp-factor 0;
#X obj 19 22 inlet~;
#X obj 186 277 dbtorms~;
#X obj 91 336 outlet~;
#X obj 19 68 rmstodb~;
#X text 18 4 Signal;
#X text 138 335 Factor in RMS;
#X obj 155 59 + 100;
#X obj 201 193 -~;
#X obj 155 102 sig~;
#X obj 202 216 +~ 100;
#X obj 186 244 *~;
#X obj 155 26 inlet threshold;
#X obj 57 222 *~ -1;
#X obj 56 248 +~ 1;
#X obj 57 175 expr~ ($v1 > $v2);
#X connect 0 0 3 0;
#X connect 1 0 2 0;
#X connect 3 0 7 1;
#X connect 3 0 14 0;
#X connect 6 0 8 0;
#X connect 7 0 9 0;
#X connect 8 0 7 0;
#X connect 8 0 14 1;
#X connect 9 0 10 1;
#X connect 10 0 1 0;
#X connect 11 0 6 0;
#X connect 12 0 13 0;
#X connect 13 0 2 0;
#X connect 14 0 10 0;
#X connect 14 0 12 0;
#X restore 137 190 pd amp-factor;
#X obj 288 26 inlet threshold;
#X obj 64 300 *~;
#X obj 66 36 inlet~;
#X obj 64 350 outlet~;
#N canvas 320 492 534 384 att-rel-filtering 0;
#X obj 22 26 inlet~;
#X text 67 26 amp-factor;
#X obj 21 235 outlet~;
#X obj 22 195 lop~ 1000;
#X connect 0 0 3 0;
#X connect 3 0 2 0;
#X restore 137 217 pd att-rel-filtering;
#X obj 137 142 abs~;
#X obj 397 27 inlet level;
#X obj 138 270 *~;
#X obj 288 144 - 100;
#X obj 288 167 * -1;
#X obj 288 205 +;
#X obj 328 169 t b f;
#X obj 288 226 dbtorms;
#N canvas 635 269 362 593 maxhold~ 0;
#X obj 148 154 - 1;
#X obj 32 193 f;
#X obj 57 175 t b f;
#X obj 57 256 f;
#X obj 32 79 t b f f;
#X obj 32 134 f 1;
#X obj 48 224 t b f;
#X obj 32 154 sel 1;
#X obj 230 163 moses 0;
#X obj 33 278 f;
#X obj 32 56 drip;
#X obj 32 35 pack~;
#X obj 32 15 inlet~;
#X obj 31 544 outlet~;
#X obj 31 500 repack;
#X obj 31 522 unpack~;
#X text 91 101 must be at least the same as the delay;
#X obj 147 176 400;
#X obj 34 342 >;
#X obj 34 363 sel 0 1;
#X obj 34 320 t f f;
#X obj 34 413 f;
#X obj 79 386 f;
#X obj 61 445 f;
#X obj 61 466 t f f;
#X obj 61 412 * 0.999;
#X connect 0 0 5 1;
#X connect 1 0 6 0;
#X connect 1 0 9 0;
#X connect 2 0 3 0;
#X connect 2 1 0 0;
#X connect 3 0 9 0;
#X connect 4 0 5 0;
#X connect 4 1 8 0;
#X connect 4 2 1 1;
#X connect 5 0 7 0;
#X connect 6 0 17 0;
#X connect 6 1 3 1;
#X connect 6 1 8 1;
#X connect 7 0 1 0;
#X connect 7 1 2 0;
#X connect 8 1 6 0;
#X connect 9 0 20 0;
#X connect 10 0 4 0;
#X connect 11 0 10 0;
#X connect 12 0 11 0;
#X connect 14 0 15 0;
#X connect 15 0 13 0;
#X connect 17 0 5 1;
#X connect 18 0 19 0;
#X connect 19 0 21 0;
#X connect 19 1 22 0;
#X connect 20 0 18 0;
#X connect 20 1 22 1;
#X connect 21 0 25 0;
#X connect 22 0 21 1;
#X connect 22 0 23 0;
#X connect 23 0 24 0;
#X connect 24 0 14 0;
#X connect 24 1 18 1;
#X connect 25 0 21 1;
#X connect 25 0 23 0;
#X restore 137 166 pd maxhold~ 100;
#X obj 65 199 z~ 80;
#X connect 0 0 5 0;
#X connect 1 0 0 1;
#X connect 1 0 9 0;
#X connect 2 0 4 0;
#X connect 3 0 15 0;
#X connect 3 0 6 0;
#X connect 5 0 8 0;
#X connect 6 0 14 0;
#X connect 7 0 12 0;
#X connect 8 0 2 1;
#X connect 9 0 10 0;
#X connect 10 0 11 0;
#X connect 11 0 13 0;
#X connect 12 0 11 0;
#X connect 12 1 11 1;
#X connect 13 0 8 1;
#X connect 14 0 0 0;
#X connect 15 0 2 0;
#X restore 21 223 pd processing;
#X obj 132 77 f;
#X obj 184 132 f;
#X floatatom 132 49 5 0 0 1 threshold(-30/0dB) - -, f 5;
#X floatatom 184 107 5 0 0 1 level(-30/0dB) - -, f 5;
#X obj 21 195 inlet~;
#X obj 21 245 outlet~;
#X obj 132 24 r LimThreshold;
#X obj 184 84 r LimLevel;
#X connect 0 0 6 0;
#X connect 1 0 0 1;
#X connect 2 0 0 2;
#X connect 3 0 1 0;
#X connect 4 0 2 0;
#X connect 5 0 0 0;
#X connect 7 0 3 0;
#X connect 8 0 4 0;
