#N canvas 1273 137 839 619 10;
#X obj 71 581 tabletool \$1;
#X obj 561 401 table \$0-makeline 500;
#X obj 533 186 f;
#X obj 533 208 t f f;
#X obj 533 228 min;
#X obj 571 251 max;
#X obj 560 318 -;
#X obj 560 338 abs;
#X obj 560 380 s \$0-makeline;
#X msg 560 359 resize \$1;
#X obj 267 512 tabletool \$0-makeline;
#X obj 306 226 t b f;
#X obj 383 223 t b f;
#X obj 216 385 t b l;
#X obj 229 24 inlet;
#X obj 288 24 inlet;
#X obj 353 27 inlet;
#X obj 99 36 inlet;
#X obj 153 37 inlet;
#X obj 547 164 t b f f;
#X obj 120 145 t f f;
#X obj 383 109 int;
#X obj 115 114 int;
#X obj 28 34 inlet;
#X obj 40 517 list;
#X obj 73 459 pack \$0 0 0;
#X msg 266 487 series \$1 \$2 \$3;
#X obj 557 105 pow;
#X msg 556 84 10 \$1;
#X obj 555 62 * 0.01;
#X obj 555 42 clip -100 100;
#X obj 273 354 pack 1 f 1;
#X msg 71 560 copy_range \$2 \$1-makeline 0 \$3;
#X obj 440 268 t b f f;
#X connect 2 0 3 0;
#X connect 3 0 4 0;
#X connect 3 1 5 0;
#X connect 4 0 33 0;
#X connect 5 0 6 1;
#X connect 6 0 7 0;
#X connect 7 0 9 0;
#X connect 7 0 25 2;
#X connect 9 0 8 0;
#X connect 11 0 31 0;
#X connect 11 1 31 1;
#X connect 12 0 31 0;
#X connect 12 1 31 2;
#X connect 13 0 25 0;
#X connect 13 1 26 0;
#X connect 14 0 31 0;
#X connect 15 0 11 0;
#X connect 16 0 30 0;
#X connect 17 0 22 0;
#X connect 18 0 21 0;
#X connect 19 0 2 0;
#X connect 19 1 4 1;
#X connect 19 2 5 1;
#X connect 20 1 2 0;
#X connect 21 0 19 0;
#X connect 22 0 20 0;
#X connect 23 0 24 0;
#X connect 24 0 32 0;
#X connect 25 0 24 1;
#X connect 26 0 10 0;
#X connect 27 0 12 0;
#X connect 28 0 27 0;
#X connect 29 0 28 0;
#X connect 30 0 29 0;
#X connect 31 0 13 0;
#X connect 32 0 0 0;
#X connect 33 0 31 0;
#X connect 33 1 25 1;
#X connect 33 2 6 0;
