#N canvas 1929 137 413 399 10;
#X obj 189 208 tabletool \$0-copy;
#X msg 132 182 copy_range 0 \$1 0 250;
#X obj 101 351 tabletool \$1;
#X msg 32 324 copy_range 250 \$1-copy 0 250;
#X msg 189 119 copy_range 0 \$1 250 499 \, reverse;
#X msg 151 161 copy_range 0 \$1 0 250 \, reverse;
#X msg 169 139 copy_range 0 \$1 250 499;
#X msg 74 280 copy_range 0 \$1-copy 0 250;
#X obj 190 229 table \$0-copy 250;
#X msg 54 301 copy_range 250 \$1-copy 0 250;
#X msg 100 257 copy_range 0 \$1-copy 0 250;
#X obj 36 19 inlet;
#X obj 36 42 list append \$0 \$1;
#X obj 36 64 route 0 1 2 3;
#X obj 65 159 unpack f s;
#X obj 84 139 unpack f s;
#X obj 102 119 unpack f s;
#X obj 122 98 unpack f s;
#X text 213 38 1) negative to positive;
#X text 214 56 2) positive to negative;
#X text 214 73 3) mirror negative;
#X text 214 90 4) mirror positive;
#X connect 1 0 0 0;
#X connect 3 0 2 0;
#X connect 4 0 0 0;
#X connect 5 0 0 0;
#X connect 6 0 0 0;
#X connect 7 0 2 0;
#X connect 9 0 2 0;
#X connect 10 0 2 0;
#X connect 11 0 12 0;
#X connect 12 0 13 0;
#X connect 13 0 14 0;
#X connect 13 1 15 0;
#X connect 13 2 16 0;
#X connect 13 3 17 0;
#X connect 14 0 3 0;
#X connect 14 1 1 0;
#X connect 15 0 9 0;
#X connect 15 1 5 0;
#X connect 16 0 7 0;
#X connect 16 1 6 0;
#X connect 17 0 10 0;
#X connect 17 1 4 0;
