#N canvas 585 23 701 774 10;
#X obj 115 14 r speed;
#X obj 135 594 tabread4~ sound-\$1;
#X obj 180 140 r filesize;
#X obj 180 160 route \$1;
#X obj 121 708 - 85;
#X obj 340 366 t b f;
#X obj 381 318 r volume-\$1;
#X obj 121 729 s vu-\$1;
#X obj 381 385 s vol-number-\$1;
#X obj 121 645 *~, f 35;
#X obj 328 534 line~;
#X msg 328 514 \$1 100;
#N canvas 0 23 450 635 resize 0;
#X obj 209 239 s sound-\$1;
#X msg 242 101 44100 \$1;
#X obj 242 123 -;
#X msg 209 217 resize \$1;
#X obj 148 166 f;
#X obj 217 150 f;
#X obj 143 38 r fill-table-\$1;
#X obj 143 60 sel 0 1;
#X obj 246 39 inlet;
#X obj 209 173 +;
#X obj 245 61 t f f;
#X msg 192 480 label \$1;
#X msg 248 377 32;
#X obj 192 357 t f b;
#X msg 192 437 \$1\$2;
#X obj 192 459 symbol;
#X obj 248 397 makefilename %cs.;
#X obj 192 416 pack f s;
#X obj 192 501 s dur-\$1;
#X obj 192 275 / 44100;
#X obj 192 294 * 100;
#X obj 192 314 int;
#X obj 192 335 * 0.01;
#X obj 148 240 f;
#X obj 148 501 outlet;
#X obj 97 39 inlet;
#X connect 1 0 2 0;
#X connect 2 0 5 1;
#X connect 3 0 0 0;
#X connect 4 0 3 0;
#X connect 4 0 23 0;
#X connect 5 0 9 0;
#X connect 6 0 7 0;
#X connect 7 0 4 0;
#X connect 7 1 5 0;
#X connect 8 0 10 0;
#X connect 9 0 3 0;
#X connect 9 0 23 0;
#X connect 10 0 1 0;
#X connect 10 0 4 1;
#X connect 10 1 9 1;
#X connect 11 0 18 0;
#X connect 12 0 16 0;
#X connect 13 0 17 0;
#X connect 13 1 12 0;
#X connect 14 0 15 0;
#X connect 15 0 11 0;
#X connect 16 0 17 1;
#X connect 17 0 14 0;
#X connect 19 0 20 0;
#X connect 20 0 21 0;
#X connect 21 0 22 0;
#X connect 22 0 13 0;
#X connect 23 0 19 0;
#X connect 23 0 24 0;
#X connect 25 0 23 0;
#X restore 155 182 pd resize;
#X obj 490 126 loadbang;
#X obj 409 188 * 0.5;
#X obj 409 167 / 100;
#X obj 409 209 set timeline x;
#X obj 490 189 pointer timeline;
#X obj 490 146 \$1;
#X obj 399 145 r offset-\$1;
#X obj 280 434 * 0.01;
#X obj 241 455 *, f 7;
#X obj 135 475 +~ 0, f 18;
#X obj 131 362 r phase;
#X obj 251 255 f;
#X obj 251 210 t b f;
#X obj 252 188 change -782;
#X obj 251 232 delay 200;
#X obj 115 56 + 25;
#X obj 115 77 * 10;
#X obj 115 36 clip -25 25;
#X obj 115 97 t f f, f 36;
#X obj 355 210 r accel;
#X obj 328 319 + 0, f 5;
#X obj 490 62 r clear-\$1;
#X obj 490 105 s sound-\$1;
#X msg 490 83 const 0;
#X obj 115 119 tabread4 vel2pitch-\$1;
#X obj 328 120 tabread4 vel2gain-\$1;
#X obj 355 297 tabread4 accel2gain-\$1;
#X obj 381 363 - 100;
#X obj 328 555 dbtorms~;
#X obj 355 233 clip -1.5 1.5;
#X obj 355 254 + 1.5;
#X obj 355 276 * 166.667;
#X obj 132 668 throw~ output;
#X obj 328 390 + 0, f 7;
#X obj 334 431 - 1;
#X obj 334 453 abs;
#X obj 334 410 r mute-\$1;
#X obj 328 493 * 1, f 6;
#X obj 334 472 t b f;
#X obj 121 688 env~ 8192;
#X obj 135 520 wrap~;
#X obj 135 498 /~ 4410, f 12;
#X obj 135 541 *~ 4410;
#X msg 490 168 traverse pd-wave-\$1 \, next;
#N canvas 0 23 450 300 dbrange 0;
#X obj 35 17 inlet;
#X obj 155 212 outlet;
#X obj 62 80 - 35;
#X obj 62 101 * 0.2;
#X obj 35 59 t f f;
#X obj 35 142 *, f 5;
#X obj 35 165 max 0;
#X obj 62 121 pow 2;
#X obj 35 38 moses 41, f 9;
#X connect 0 0 8 0;
#X connect 2 0 3 0;
#X connect 3 0 7 0;
#X connect 4 0 5 0;
#X connect 4 1 2 0;
#X connect 5 0 6 0;
#X connect 6 0 1 0;
#X connect 7 0 5 1;
#X connect 8 0 4 0;
#X connect 8 1 1 0;
#X restore 381 339 pd dbrange;
#N canvas 619 361 450 300 dbrange 0;
#X obj 35 17 inlet;
#X obj 155 242 outlet;
#X obj 62 131 * 0.2;
#X obj 35 89 t f f;
#X obj 35 172 *, f 5;
#X obj 62 151 pow 2;
#X obj 35 68 moses -50;
#X obj 62 110 + 45;
#X connect 0 0 6 0;
#X connect 2 0 5 0;
#X connect 3 0 4 0;
#X connect 3 1 7 0;
#X connect 4 0 1 0;
#X connect 5 0 4 1;
#X connect 6 0 3 0;
#X connect 6 1 1 0;
#X connect 7 0 2 0;
#X restore 328 143 pd dbrange;
#X obj 116 162 pow 2;
#X msg 116 140 2 \$1;
#X obj 135 453 *~ 44100, f 9;
#X obj 76 400 phasor~, f 9;
#X msg 131 382 0;
#X obj 124 248 /;
#X msg 124 228 44100 \$1;
#X obj 124 270 t b f;
#X obj 154 204 t f b f, f 14;
#X obj 76 381 vline~;
#X obj 121 321 r glide-\$1;
#X obj 76 362 pack 0 0;
#X obj 121 342 * 100;
#X obj 116 297 *, f 5;
#X obj 17 593 tabread4~ rectenv;
#X obj 121 621 *~;
#X obj 17 545 *~ 4410;
#X connect 0 0 30 0;
#X connect 1 0 74 1;
#X connect 2 0 3 0;
#X connect 3 0 12 1;
#X connect 3 0 12 0;
#X connect 4 0 7 0;
#X connect 5 0 46 0;
#X connect 5 1 46 1;
#X connect 6 0 57 0;
#X connect 9 0 45 0;
#X connect 9 0 52 0;
#X connect 10 0 41 0;
#X connect 11 0 10 0;
#X connect 12 0 67 0;
#X connect 13 0 18 0;
#X connect 14 0 16 0;
#X connect 15 0 14 0;
#X connect 17 0 16 1;
#X connect 18 0 56 0;
#X connect 19 0 26 0;
#X connect 19 0 15 0;
#X connect 20 0 21 1;
#X connect 21 0 22 1;
#X connect 22 0 54 0;
#X connect 23 0 63 0;
#X connect 24 0 21 0;
#X connect 25 0 27 0;
#X connect 25 1 24 1;
#X connect 26 0 25 0;
#X connect 27 0 24 0;
#X connect 28 0 29 0;
#X connect 29 0 31 0;
#X connect 30 0 28 0;
#X connect 31 0 37 0;
#X connect 31 1 38 0;
#X connect 32 0 42 0;
#X connect 33 0 46 0;
#X connect 34 0 36 0;
#X connect 36 0 35 0;
#X connect 37 0 60 0;
#X connect 38 0 58 0;
#X connect 39 0 33 1;
#X connect 40 0 8 0;
#X connect 41 0 9 1;
#X connect 42 0 43 0;
#X connect 43 0 44 0;
#X connect 44 0 39 0;
#X connect 46 0 50 0;
#X connect 47 0 48 0;
#X connect 48 0 51 0;
#X connect 49 0 47 0;
#X connect 50 0 11 0;
#X connect 51 0 50 0;
#X connect 51 1 50 1;
#X connect 52 0 4 0;
#X connect 53 0 55 0;
#X connect 54 0 53 0;
#X connect 55 0 1 0;
#X connect 56 0 17 0;
#X connect 57 0 40 0;
#X connect 57 0 5 0;
#X connect 58 0 33 0;
#X connect 59 0 72 0;
#X connect 60 0 59 0;
#X connect 61 0 22 0;
#X connect 62 0 61 0;
#X connect 62 0 75 0;
#X connect 63 0 62 1;
#X connect 64 0 66 0;
#X connect 65 0 64 0;
#X connect 66 0 72 0;
#X connect 66 1 72 1;
#X connect 67 0 65 0;
#X connect 67 1 21 0;
#X connect 67 2 20 0;
#X connect 67 2 61 1;
#X connect 67 2 54 1;
#X connect 67 2 55 1;
#X connect 68 0 62 0;
#X connect 69 0 71 0;
#X connect 70 0 68 0;
#X connect 71 0 70 1;
#X connect 72 0 70 0;
#X connect 73 0 74 0;
#X connect 74 0 9 0;
#X connect 75 0 73 0;
