#N canvas 0 23 1440 855 10;
#X obj 20 20 cnv 15 750 600 empty empty empty 20 12 0 14 -261682 -66577
0;
#X obj 67 71 cnv 15 250 66 empty empty empty 20 12 0 14 -228856 -66577
0;
#X msg 1624 416 vis 1;
#X obj 1142 111 f \$1;
#X obj 497 28 bng 15 250 50 0 \$0-asdfasdfadf \$0jhdfgstrywtgkusfy7vt9srrt
RESET 20 8 0 10 -262144 -1 -1;
#X obj 227 28 bng 15 250 50 0 \$0-asdfasdfadf \$0jhdfgstrywtgkusfy7vt9srrt
SAVE-AS 20 8 0 10 -262144 -1 -1;
#X obj 307 28 bng 15 250 50 0 \$0-asdfasdfadf \$0jhdfgstrywtgkusfy7vt9srrt
SAVE 20 8 0 10 -262144 -1 -1;
#X obj 367 28 bng 15 250 50 0 \$0-asdfasdfadf \$0jhdfgstrywtgkusfy7vt9srrt
LOAD 20 8 0 10 -262144 -1 -1;
#X obj 1388 65 symbol;
#X obj 1388 45 savepanel;
#X obj 1388 149 pack s \$1;
#X obj 1321 105 symbol;
#X obj 1321 187 pack s \$1;
#X obj 1321 85 openpanel;
#X obj 427 28 bng 15 250 50 0 \$0-asdfasdfadf \$0jhdfgstrywtgkusfy7vt9srrt
RELOAD 20 8 0 10 -262144 -1 -1;
#X symbolatom 66 28 25 0 0 0 - - -;
#X obj 1652 143 list fromsymbol;
#X msg 1547 140 47;
#X obj 1547 119 t b s, f 18;
#X obj 1562 263 list split, f 20;
#X obj 1679 220 f;
#X obj 1652 190 t b b;
#X obj 1562 242 list;
#X obj 1620 284 list tosymbol;
#X obj 1679 241 + 1;
#X obj 1547 168 list-find;
#X msg 963 79 reverse;
#X msg 983 162 smooth;
#X msg 971 107 invert;
#X msg 977 135 sort;
#X obj 583 504 vradio 15 1 0 4 \$0-asdfasdfadf \$0jhdfgstrywtgkusfy7vt9srrt
empty 0 -8 0 10 -262144 -1 -1 1;
#X text 601 504 COPY REAR INTO FORWARD;
#X text 601 519 MIRROR REAR INTO FORWARD;
#X text 601 535 COPY FORWARD INTO REAR;
#X text 601 550 MIROR FORWARD INTO REAR;
#X obj 587 121 bng 15 250 50 0 empty empty SMOOTH 20 8 0 10 -262144
-1 -1;
#X obj 587 61 bng 15 250 50 0 \$0-asdfasdfadf \$0jhdfgstrywtgkusfy7vt9srrt
REVERSE 20 8 0 10 -262144 -1 -1;
#X obj 587 81 bng 15 250 50 0 \$0-asdfasdfadf \$0jhdfgstrywtgkusfy7vt9srrt
INVERT 20 8 0 10 -262144 -1 -1;
#X obj 587 101 bng 15 250 50 0 empty \$0jhdfgstrywtgkusfy7vt9srrt SORT
20 8 0 10 -262144 -1 -1;
#X obj 587 141 bng 15 250 50 0 empty \$0jhdfgstrywtgkusfy7vt9srrt CLIP
20 8 0 10 -262144 -1 -1;
#X obj 67 138 cnv 15 250 66 empty empty empty 20 12 0 14 -191407 -66577
0;
#X obj 67 205 cnv 15 250 67 empty empty empty 20 12 0 14 -162280 -66577
0;
#X obj 67 273 cnv 15 250 66 empty empty empty 20 12 0 14 -128992 -66577
0;
#X obj 694 70 vradio 15 1 0 6 \$0-asdfasdfadf \$0jhdfgstrywtgkusfy7vt9srrt
ROUND(dB) 0 -8 0 10 -262144 -1 -1 5;
#X obj 587 196 bng 15 250 50 0 \$0-asdfasdfadf \$0jhdfgstrywtgkusfy7vt9srrt
+ 4 8 0 12 -262144 -1 -1;
#X obj 607 196 vradio 15 1 0 4 \$0-asdfasdfadf \$0jhdfgstrywtgkusfy7vt9srrt
empty 0 -8 0 10 -262144 -1 -1 3;
#X msg 629 809 -1;
#X msg 663 875 offset \$1;
#X msg 663 808 1;
#X obj 693 782 sel 0 1 2 3, f 26;
#X obj 587 216 bng 15 250 50 0 \$0-asdfasdfadf \$0jhdfgstrywtgkusfy7vt9srrt
- 4 8 0 12 -262144 -1 -1;
#X obj 602 296 bng 15 250 50 0 \$0-asdfasdfadf \$0jhdfgstrywtgkusfy7vt9srrt
+ 4 8 0 12 -262144 -1 -1;
#X obj 622 296 vradio 15 1 0 4 \$0-asdfasdfadf \$0jhdfgstrywtgkusfy7vt9srrt
empty 0 -8 0 10 -262144 -1 -1 0;
#X msg 300 728 -1;
#X msg 334 727 1;
#X obj 364 701 sel 0 1 2 3, f 26;
#X obj 602 316 bng 15 250 50 0 \$0-asdfasdfadf \$0jhdfgstrywtgkusfy7vt9srrt
- 4 8 0 12 -262144 -1 -1;
#X text 586 179 V. OFFSET;
#X obj 1626 326 loadbang;
#X msg 1626 351 symbol load-or-store-curves!;
#X msg 330 888 shift0 \$1;
#X obj 705 196 nbx 5 14 -55 20 0 0 \$0-asdfasdfadf \$0jhdfgstrywtgkusfy7vt9srrt
MAX -25 7 0 10 -262144 -1 -1 20 256;
#X obj 705 216 nbx 5 14 -55 20 0 0 \$0-asdfasdfadf \$0jhdfgstrywtgkusfy7vt9srrt
MIN -25 7 0 10 -262144 -1 -1 -55 256;
#X obj 841 287 t b f f;
#X obj 818 312 f;
#X obj 818 334 t f f;
#X obj 818 384 min;
#X obj 856 387 max;
#X obj 835 410 pack;
#X obj 682 325 vradio 15 1 0 2 \$0-asdfasdfadf \$0jhdfgstrywtgkusfy7vt9srrt
empty 0 -8 0 10 -262144 -1 -1 1;
#X obj 336 823 route 0 1;
#X obj 336 801 list prepend 0;
#X msg 415 871 shift \$1;
#X obj 639 430 nbx 5 14 -55 20 0 0 \$0-asdfadsfadfa \$0jhdfgstrywtgkusfy7vt9srrt
START 0 -7 0 10 -262144 -1 -1 20 256;
#X obj 699 430 nbx 5 14 -55 20 0 0 \$0-asdfadsfadfa \$0jhdfgstrywtgkusfy7vt9srrt
END 0 -7 0 10 -262144 -1 -1 -55 256;
#X obj 700 450 nbx 5 14 -25 25 0 0 \$0-asdfadsfadfa \$0jhdfgstrywtgkusfy7vt9srrt
empty -25 7 0 10 -262144 -1 -1 25 256;
#X obj 639 450 nbx 5 14 -25 25 0 0 \$0-asdfadsfadfa \$0jhdfgstrywtgkusfy7vt9srrt
RANGE(ac) -60 7 0 10 -262144 -1 -1 -25 256;
#X obj 639 400 nbx 5 14 -100 100 0 0 \$0-asdfadsfadfa \$0jhdfgstrywtgkusfy7vt9srrt
exp -25 7 0 10 -262144 -1 -1 0 256;
#X text 713 179 SCALE;
#X msg 367 728 1;
#X msg 402 726 10;
#X msg 442 726 50;
#X msg 482 726 250;
#X text 699 340 circular;
#X text 699 324 zeroes;
#X obj 334 771 * 1;
#X obj 700 468 bng 15 250 50 0 \$0-asdfasdfadf \$0jhdfgstrywtgkusfy7vt9srrt
MAKE 20 8 0 10 -262144 -1 -1;
#X text 696 400 (+- 100);
#X obj 124 755 loadbang;
#X obj 663 852 * 0.001;
#X obj 874 195 until;
#X msg 864 152 5;
#X text 637 382 INSERT LINES;
#X msg 952 300 0.1;
#X text 713 68 0.1;
#X obj 1259 327 r vis-clock;
#X msg 1259 349 change;
#X msg 1320 410 1;
#X msg 1248 429 0;
#X obj 1275 468 spigot 1;
#X obj 1248 408 t b b;
#X obj 1275 490 f \$1;
#X text 626 195 0.1;
#X text 626 210 1;
#X text 626 226 3;
#X text 626 243 5;
#X msg 693 807 0.1;
#X msg 734 806 1;
#X msg 777 806 3;
#X msg 816 806 5;
#X msg 1063 300 0.5;
#X msg 1029 300 0.33;
#X msg 986 300 0.25;
#X msg 1136 300 1;
#X msg 1098 300 0.66;
#X obj 952 274 sel 0 1 2 3 4 5, f 35;
#X text 713 84 0.25;
#X text 714 99 0.33;
#X text 714 115 0.5;
#X text 714 130 0.66;
#X text 714 145 1;
#X msg 238 715 -25;
#X msg 239 747 25;
#X text 55 582 -25 Km/h;
#X text 313 580 0 Km/h;
#X text 556 580 +25 Km/h;
#X obj 66 6 r current-v2g-\$1, f 18;
#X msg 1142 132 \; vel2gain-\$1 const 0 \;;
#X obj 1624 438 s pd-v2g-\$1;
#X obj 1624 393 r vis-v2g-\$1;
#X obj 1626 373 s current-v2g-\$1;
#X obj 1621 305 s current-v2g-\$1;
#X msg 1388 171 \; vel2gain-\$2 write \$1;
#X msg 1321 209 \; vel2gain-\$2 read \$1;
#X obj 1248 305 r vel2gain-tabletool-\$1;
#X obj 1248 380 tabletool vel2gain-\$1;
#X msg 1275 511 copy vel2gain-\$1;
#X obj 1275 533 tabletool vg\$1;
#X obj 1014 575 + 25;
#X obj 1078 580 + 25;
#X obj 1014 597 * 10;
#X obj 1078 602 * 10;
#X text 641 295 0.1;
#X text 641 311 1;
#X text 641 326 5;
#X text 641 342 25;
#X text 602 278 HORIZONTAL SHIFT (Km.);
#X obj 657 909 s vel2gain-tabletool-\$1;
#X obj 900 712 make-lines vel2gain-\$1, f 39;
#X obj 950 487 s vel2gain-tabletool-\$1;
#X obj 963 211 s vel2gain-tabletool-\$1;
#X obj 67 340 cnv 15 250 66 empty empty empty 20 12 0 14 -228856 -66577
0;
#X obj 67 407 cnv 15 250 66 empty empty empty 20 12 0 14 -191407 -66577
0;
#X obj 67 474 cnv 15 250 67 empty empty empty 20 12 0 14 -162280 -66577
0;
#X obj 67 541 cnv 15 250 33 empty empty empty 20 12 0 14 -128992 -66577
0;
#X text 34 564 -inf;
#X obj 318 71 cnv 15 250 66 empty empty empty 20 12 0 14 -128992 -66577
0;
#X obj 318 138 cnv 15 250 66 empty empty empty 20 12 0 14 -162280 -66577
0;
#X obj 318 205 cnv 15 250 67 empty empty empty 20 12 0 14 -191407 -66577
0;
#X obj 318 273 cnv 15 250 66 empty empty empty 20 12 0 14 -228856 -66577
0;
#X obj 318 340 cnv 15 250 66 empty empty empty 20 12 0 14 -128992 -66577
0;
#X obj 318 407 cnv 15 250 66 empty empty empty 20 12 0 14 -162280 -66577
0;
#X obj 318 474 cnv 15 250 67 empty empty empty 20 12 0 14 -191407 -66577
0;
#X obj 318 541 cnv 15 250 33 empty empty empty 20 12 0 14 -228856 -66577
0;
#N canvas 0 23 450 278 (subpatch) 0;
#X array vel2gain-\$1 500 float 0;
#X coords 0 20 499 -55 503 504 1 0 0;
#X restore 66 71 graph;
#X obj 583 630 mirror-curves vel2gain-\$1;
#X text 22 63 +20 dB;
#X text 27 130 10 dB;
#X text 32 196 0 dB;
#X text 21 266 -10 dB;
#X text 21 328 -20 dB;
#X text 21 396 -30 dB;
#X text 22 466 -40 dB;
#X text 22 536 -50 dB;
#X msg 835 434 normalize \$1 \$2 \, clip -55 20;
#X msg 990 187 clip -55 20;
#X msg 955 342 round \$1 \, clip -55 20;
#X msg 234 646 20;
#X msg 241 684 -55;
#X connect 2 0 128 0;
#X connect 3 0 127 0;
#X connect 4 0 3 0;
#X connect 5 0 9 0;
#X connect 6 0 8 0;
#X connect 7 0 13 0;
#X connect 8 0 10 0;
#X connect 8 0 18 0;
#X connect 9 0 8 0;
#X connect 10 0 132 0;
#X connect 11 0 12 0;
#X connect 11 0 18 0;
#X connect 12 0 133 0;
#X connect 13 0 11 0;
#X connect 14 0 11 0;
#X connect 16 0 22 1;
#X connect 16 0 25 1;
#X connect 17 0 25 0;
#X connect 18 0 17 0;
#X connect 18 1 16 0;
#X connect 19 1 23 0;
#X connect 20 0 24 0;
#X connect 21 0 22 0;
#X connect 21 1 20 0;
#X connect 22 0 19 0;
#X connect 23 0 131 0;
#X connect 24 0 19 1;
#X connect 25 0 20 1;
#X connect 25 1 21 0;
#X connect 26 0 150 0;
#X connect 27 0 150 0;
#X connect 28 0 150 0;
#X connect 29 0 150 0;
#X connect 30 0 165 0;
#X connect 35 0 91 0;
#X connect 36 0 26 0;
#X connect 37 0 28 0;
#X connect 38 0 29 0;
#X connect 39 0 175 0;
#X connect 43 0 115 0;
#X connect 44 0 48 0;
#X connect 45 0 49 0;
#X connect 46 0 89 0;
#X connect 47 0 147 0;
#X connect 48 0 89 0;
#X connect 49 0 106 0;
#X connect 49 1 107 0;
#X connect 49 2 108 0;
#X connect 49 3 109 0;
#X connect 50 0 46 0;
#X connect 51 0 54 0;
#X connect 52 0 55 0;
#X connect 53 0 85 0;
#X connect 54 0 85 0;
#X connect 55 0 79 0;
#X connect 55 1 80 0;
#X connect 55 2 81 0;
#X connect 55 3 82 0;
#X connect 56 0 53 0;
#X connect 58 0 59 0;
#X connect 59 0 130 0;
#X connect 60 0 147 0;
#X connect 61 0 64 0;
#X connect 62 0 63 0;
#X connect 63 0 64 0;
#X connect 63 1 66 1;
#X connect 63 2 67 1;
#X connect 64 0 65 0;
#X connect 65 0 66 0;
#X connect 65 1 67 0;
#X connect 66 0 68 0;
#X connect 67 0 68 1;
#X connect 68 0 174 0;
#X connect 69 0 71 1;
#X connect 70 0 60 0;
#X connect 70 1 72 0;
#X connect 71 0 70 0;
#X connect 72 0 147 0;
#X connect 73 0 148 3;
#X connect 74 0 148 4;
#X connect 75 0 139 0;
#X connect 76 0 138 0;
#X connect 77 0 148 5;
#X connect 79 0 85 1;
#X connect 80 0 85 1;
#X connect 81 0 85 1;
#X connect 82 0 85 1;
#X connect 85 0 71 0;
#X connect 86 0 148 0;
#X connect 88 0 177 0;
#X connect 88 0 178 0;
#X connect 88 0 121 0;
#X connect 88 0 122 0;
#X connect 88 0 4 0;
#X connect 89 0 47 0;
#X connect 90 0 27 0;
#X connect 91 0 90 0;
#X connect 93 0 176 0;
#X connect 95 0 96 0;
#X connect 96 0 97 0;
#X connect 96 0 135 0;
#X connect 97 0 99 1;
#X connect 98 0 99 1;
#X connect 99 0 101 0;
#X connect 100 0 98 0;
#X connect 100 1 99 0;
#X connect 101 0 136 0;
#X connect 106 0 89 1;
#X connect 107 0 89 1;
#X connect 108 0 89 1;
#X connect 109 0 89 1;
#X connect 110 0 176 0;
#X connect 111 0 176 0;
#X connect 112 0 176 0;
#X connect 113 0 176 0;
#X connect 114 0 176 0;
#X connect 115 0 93 0;
#X connect 115 1 112 0;
#X connect 115 2 111 0;
#X connect 115 3 110 0;
#X connect 115 4 114 0;
#X connect 115 5 113 0;
#X connect 121 0 76 0;
#X connect 122 0 75 0;
#X connect 126 0 15 0;
#X connect 129 0 2 0;
#X connect 134 0 135 0;
#X connect 135 0 100 0;
#X connect 136 0 137 0;
#X connect 138 0 140 0;
#X connect 139 0 141 0;
#X connect 140 0 148 1;
#X connect 141 0 148 2;
#X connect 174 0 149 0;
#X connect 175 0 150 0;
#X connect 176 0 149 0;
#X connect 177 0 73 0;
#X connect 177 0 61 0;
#X connect 178 0 74 0;
#X connect 178 0 62 0;
#X coords 0 -1 1 1 750 600 2 20 20;
