#N canvas 26 23 332 67 10;
#X declare -lib Gem;
#N canvas 461 23 979 855 video-rendering 0;
#X obj 45 677 rectangle 4 3;
#X obj 135 635 /;
#X obj 82 635 t f f;
#X obj 120 657 /;
#X obj 82 588 t b f;
#X obj 120 200 f;
#X obj 149 200 + 1;
#X obj 45 13 loadbang;
#X obj 101 525 s w;
#X obj 67 525 s l;
#X obj 136 525 s h;
#X obj 82 567 r w;
#X obj 150 613 r h;
#X obj 576 635 r w;
#X obj 621 634 r h;
#X obj 525 635 sel 0 1;
#X msg 525 730 0 \, destroy;
#X obj 45 421 pix_film;
#X obj 45 546 pix_texture;
#X obj 120 483 s loopplay;
#X msg 135 180 0;
#X obj 147 226 r l;
#X obj 154 158 r loopplay;
#X obj 120 462 spigot 0;
#X obj 132 270 change -1;
#X obj 132 293 sel 1;
#X msg 132 315 0;
#X obj 132 376 s set-rewind;
#X obj 135 119 r set-rewind;
#X obj 132 336 t f f;
#X obj 132 246 >;
#X obj 525 615 tgl 15 0 empty empty empty 17 7 0 10 -262144 -1 -1 0
1;
#X obj 120 59 r video-play;
#X obj 144 138 r video-rewind;
#X obj 165 421 r video-loop;
#X obj 525 592 r video-window;
#X obj 159 357 s set-video-play;
#X obj 532 757 gemwin;
#X obj 562 43 netreceive 3001;
#X obj 562 197 s video-window;
#X obj 751 129 s video-rewind;
#X obj 625 175 s video-play;
#X obj 688 151 s video-loop;
#X obj 300 829 netsend;
#X obj 544 687 list;
#X obj 101 13 declare -lib Gem;
#X obj 562 66 route video-window video-play video-loop video-rewind
netback;
#X obj 309 605 r netback;
#X obj 814 105 s netback;
#X obj 120 80 tgl 15 0 empty empty empty 17 7 0 10 -262144 -1 -1 0
1;
#X obj 54 58 gemhead 1;
#X obj 165 442 tgl 15 0 empty empty empty 17 7 0 10 -262144 -1 -1 0
1;
#X obj 129 398 r video-rewind;
#X msg 751 108 0;
#X obj 309 626 sel 0 1;
#X msg 340 674 connect localhost 3002;
#X msg 309 647 disconnect;
#X obj 67 504 unpack 0 0 0;
#X obj 576 656 pack f f;
#X obj 500 422 div 60;
#X obj 812 503 + 48;
#X obj 812 481 mod 10;
#X obj 708 462 div 10;
#X obj 708 482 mod 6;
#X obj 708 503 + 48;
#X obj 500 400 t f f f;
#X obj 604 503 + 48;
#X obj 604 481 mod 10;
#X obj 500 464 div 10;
#X obj 500 484 mod 6;
#X obj 500 505 + 48;
#X obj 500 526 makefilename %c;
#X obj 604 526 makefilename %c;
#X obj 708 526 makefilename %c;
#X obj 812 526 makefilename %c;
#X obj 500 443 t f f;
#X obj 500 274 sel 0;
#X obj 500 379 f;
#X obj 529 379 + 1;
#X msg 515 359 0;
#X obj 532 338 r loopplay;
#X obj 515 295 r set-rewind;
#X obj 523 316 r video-rewind;
#X obj 293 549 pack s s s s s s;
#X obj 293 441 * 100;
#X obj 293 504 + 48;
#X obj 392 486 mod 10;
#X obj 293 525 makefilename %c;
#X obj 392 524 makefilename %c;
#X obj 392 505 + 48;
#X obj 293 464 t f f;
#X obj 293 484 div 10;
#X obj 293 253 t f f;
#X obj 293 420 / 25;
#X msg 293 572 send vtime label \$3\$4:\$5\$6.\$1\$2;
#X obj 120 99 metro 40;
#X obj 293 232 mod 25;
#X msg 544 708 reset \, dimen \$1 \$2 \, frame 25 \, create \, 1;
#X obj 82 614 f 7;
#X msg 45 36 open ./data/E-Sound.mov;
#X connect 1 0 3 1;
#X connect 2 0 0 1;
#X connect 2 1 3 0;
#X connect 3 0 0 2;
#X connect 4 0 98 0;
#X connect 4 1 1 0;
#X connect 5 0 6 0;
#X connect 5 0 30 0;
#X connect 5 0 17 1;
#X connect 5 0 96 0;
#X connect 6 0 5 1;
#X connect 7 0 99 0;
#X connect 11 0 4 0;
#X connect 12 0 1 1;
#X connect 13 0 58 0;
#X connect 14 0 58 1;
#X connect 15 0 16 0;
#X connect 15 1 44 0;
#X connect 16 0 37 0;
#X connect 17 0 18 0;
#X connect 17 1 57 0;
#X connect 17 2 23 0;
#X connect 18 0 0 0;
#X connect 20 0 5 1;
#X connect 21 0 30 1;
#X connect 22 0 20 0;
#X connect 23 0 19 0;
#X connect 24 0 25 0;
#X connect 25 0 26 0;
#X connect 26 0 29 0;
#X connect 28 0 20 0;
#X connect 29 0 27 0;
#X connect 29 1 36 0;
#X connect 30 0 24 0;
#X connect 31 0 15 0;
#X connect 32 0 49 0;
#X connect 33 0 20 0;
#X connect 34 0 51 0;
#X connect 35 0 31 0;
#X connect 38 0 46 0;
#X connect 44 0 97 0;
#X connect 46 0 39 0;
#X connect 46 1 41 0;
#X connect 46 2 42 0;
#X connect 46 3 53 0;
#X connect 46 4 48 0;
#X connect 47 0 54 0;
#X connect 49 0 95 0;
#X connect 50 0 17 0;
#X connect 51 0 23 1;
#X connect 52 0 17 1;
#X connect 53 0 40 0;
#X connect 54 0 56 0;
#X connect 54 1 55 0;
#X connect 55 0 43 0;
#X connect 56 0 43 0;
#X connect 57 0 9 0;
#X connect 57 1 8 0;
#X connect 57 2 10 0;
#X connect 58 0 44 1;
#X connect 59 0 75 0;
#X connect 60 0 74 0;
#X connect 61 0 60 0;
#X connect 62 0 63 0;
#X connect 63 0 64 0;
#X connect 64 0 73 0;
#X connect 65 0 59 0;
#X connect 65 1 62 0;
#X connect 65 2 61 0;
#X connect 66 0 72 0;
#X connect 67 0 66 0;
#X connect 68 0 69 0;
#X connect 69 0 70 0;
#X connect 70 0 71 0;
#X connect 71 0 83 2;
#X connect 72 0 83 3;
#X connect 73 0 83 4;
#X connect 74 0 83 5;
#X connect 75 0 68 0;
#X connect 75 1 67 0;
#X connect 76 0 77 0;
#X connect 77 0 78 0;
#X connect 77 0 65 0;
#X connect 78 0 77 1;
#X connect 79 0 77 1;
#X connect 80 0 79 0;
#X connect 81 0 79 0;
#X connect 82 0 79 0;
#X connect 83 0 94 0;
#X connect 84 0 90 0;
#X connect 85 0 87 0;
#X connect 86 0 89 0;
#X connect 87 0 83 0;
#X connect 88 0 83 1;
#X connect 89 0 88 0;
#X connect 90 0 91 0;
#X connect 90 1 86 0;
#X connect 91 0 85 0;
#X connect 92 0 93 0;
#X connect 92 1 76 0;
#X connect 93 0 84 0;
#X connect 94 0 43 0;
#X connect 95 0 5 0;
#X connect 96 0 92 0;
#X connect 97 0 37 0;
#X connect 98 0 2 0;
#X connect 99 0 17 0;
#X restore 11 13 pd video-rendering;
