#N canvas 821 47 342 128 10;
#X text 27 105 now playing;
#X obj 11 64 cnv 15 100 60 empty empty audio 0 12 0 14 -262144 -66577
0;
#X obj 61 64 cnv 15 100 60 empty empty (wav) 0 12 0 14 -262144 -66577
0;
#X obj 111 64 cnv 15 100 60 empty empty files 0 12 0 14 -262144 -66577
0;
#X obj 161 64 cnv 15 100 60 empty empty in 0 12 0 14 -262144 -66577
0;
#X obj 191 64 cnv 15 100 60 empty empty folder: 0 12 0 14 -262144 -66577
0;
#X obj 251 63 cnv 15 1 60 empty \$0-countFiles 3 0 12 0 20 -262144
-66577 0;
#X obj 13 92 cnv 15 100 1 empty empty now 0 12 0 14 -262144 -66577
0;
#X obj 53 92 cnv 15 100 1 empty empty playing: 0 12 0 14 -262144 -66577
0;
#X obj 121 92 cnv 15 1 1 empty \$0-currentFile 03_noise.wav 0 12 0
20 -262144 -66577 0;
#X obj 11 8 bng 50 250 50 0 \$0-playNext \$0-none play 10 23 0 14 -262144
-1 -1;
#X obj 81 8 bng 50 250 50 0 \$0-reset \$0-none reset 6 23 0 14 -262144
-1 -1;
#X obj 140 8 cnv 15 100 60 empty empty FOLDERPLAY 0 12 0 24 -262144
-4034 0;
#N canvas 216 23 505 579 system 0;
#X obj 130 480 readsf~ 2;
#X obj 86 538 dac~;
#X msg 204 444 open \$1;
#X obj 231 215 f 1;
#X obj 261 215 + 1;
#X obj 231 279 s \$0-countFiles;
#X obj 204 3 loadbang;
#X msg 231 258 label \$1;
#X obj 231 237 makefilename %d;
#X obj 359 435 unpack s;
#X msg 359 456 label \$1;
#X obj 359 479 s \$0-currentFile;
#X msg 204 130 symbol *.wav \; pd dsp 1 \;;
#X msg 212 324 clear;
#X obj 103 96 ctlin 64;
#X msg 111 142 127;
#X obj 111 118 r \$0-playNext;
#X obj 143 445 != 1;
#X obj 231 87 s \$0-init;
#X msg 231 67 1;
#X obj 204 45 t b b;
#X obj 211 24 r \$0-reset;
#X obj 204 109 delay 10;
#X obj 246 192 r \$0-init;
#X obj 212 301 r \$0-init;
#X obj 143 423 r \$0-init;
#X obj 204 191 t s b;
#X msg 231 396 empty!;
#X obj 83 514 *~;
#X obj 69 452 vline~;
#X obj 109 514 *~;
#X msg 158 257 0 10;
#X msg 38 385 0 \, 1 10;
#X text 225 517 ÂNGEL FARALDO \, 2012;
#X text 225 533 angelfaraldo@gmail.com;
#X obj 359 392 jasch_lib/strtok /;
#X obj 103 167 sel 127;
#X obj 103 200 t b b;
#X obj 103 236 del 11;
#X msg 65 336 1;
#X obj 103 259 t b b;
#X obj 38 290 del 1;
#X obj 38 313 t b b;
#X obj 231 418 zexy/list2symbol;
#X obj 204 346 zexy/fifop;
#X obj 359 414 list-abs/list-rev;
#X obj 204 168 hcs/folder_list;
#X connect 0 0 28 1;
#X connect 0 1 30 1;
#X connect 2 0 0 0;
#X connect 3 0 4 0;
#X connect 3 0 8 0;
#X connect 4 0 3 1;
#X connect 6 0 20 0;
#X connect 7 0 5 0;
#X connect 8 0 7 0;
#X connect 9 0 10 0;
#X connect 10 0 11 0;
#X connect 12 0 46 0;
#X connect 13 0 44 0;
#X connect 14 0 36 0;
#X connect 15 0 36 0;
#X connect 16 0 15 0;
#X connect 17 0 0 0;
#X connect 19 0 18 0;
#X connect 20 0 22 0;
#X connect 20 1 19 0;
#X connect 21 0 20 0;
#X connect 22 0 12 0;
#X connect 23 0 3 1;
#X connect 24 0 13 0;
#X connect 25 0 17 0;
#X connect 26 0 44 0;
#X connect 26 1 3 0;
#X connect 27 0 43 0;
#X connect 28 0 1 0;
#X connect 29 0 28 0;
#X connect 29 0 30 0;
#X connect 30 0 1 1;
#X connect 31 0 29 0;
#X connect 32 0 29 0;
#X connect 35 0 45 0;
#X connect 36 0 37 0;
#X connect 37 0 38 0;
#X connect 37 1 31 0;
#X connect 38 0 40 0;
#X connect 39 0 0 0;
#X connect 40 0 41 0;
#X connect 40 1 44 0;
#X connect 41 0 42 0;
#X connect 42 0 32 0;
#X connect 42 1 39 0;
#X connect 43 0 10 0;
#X connect 44 0 2 0;
#X connect 44 0 35 0;
#X connect 44 1 27 0;
#X connect 45 0 9 0;
#X connect 46 0 26 0;
#X restore 140 41 pd system;
