#N canvas 749 22 287 236 10;
#X declare -lib jasch_lib;
#X declare -path files;
#X obj -69 1 cnv 15 285 232 empty empty patternSequencer 5 12 1 18
-261234 -66577 0;
#X obj -58 166 nbx 5 30 1 1000 0 0 outBpm inBpm B.P.M 0 -7 1 12 -262144
-1 -1 120 256;
#X obj 142 166 tgl 30 0 outSwitch inSwitch SWITCH 0 -7 1 12 -262144
-1 -1 1 1;
#X obj -58 106 hradio 30 1 0 5 outBeats inBeats BEATS 0 -8 1 12 -262144
-261234 -1 3;
#X obj -48 111 comment 0 16 Helvetica ? 0 0 0 0 1;
#X obj -19 111 comment 0 16 Helvetica ? 0 0 0 0 2;
#X obj 12 111 comment 0 16 Helvetica ? 0 0 0 0 3;
#X obj 42 111 comment 0 16 Helvetica ? 0 0 0 0 4;
#X obj 72 111 comment 0 16 Helvetica ? 0 0 0 0 5;
#X obj 112 106 hradio 30 1 0 3 outSubdivision inSubdivision SUBDIVISION
0 -8 1 12 -262144 -261234 -1 0;
#X obj 122 111 comment 86 16 Helvetica ? 0 0 0 0 2;
#X obj 153 111 comment 0 16 Helvetica ? 0 0 0 0 3;
#X obj 183 111 comment 0 16 Helvetica ? 0 0 0 0 4;
#N canvas 245 303 692 460 patch 0;
#X obj 4 27 loadbang;
#X obj 405 215 f 0;
#X obj 405 158 metro 1000;
#X obj 462 99 * 1000;
#X obj 462 79 /;
#X msg 462 58 60;
#X obj 462 37 t b f;
#X obj 435 215 + 1;
#X obj 462 136 /;
#X obj 513 103 t b f;
#X obj 552 141 *;
#X obj 560 193 s steps;
#X obj 552 328 s instruments;
#X obj 552 241 delay 1;
#X obj 405 260 mod 2;
#X obj 432 238 r steps;
#X obj 405 401 s stepsRadio;
#X obj 513 421 s stepsRadio;
#X msg 513 399 color 0 \$1 \$1;
#X obj 513 337 mod 2;
#X obj 513 357 == 0;
#N canvas 204 363 156 269 instruments 0;
#X obj 15 45 player 1;
#X obj 15 80 player 2;
#X obj 15 115 player 3;
#X obj 15 150 player 4;
#X obj 15 185 player 5;
#X restore 4 176 pd instruments;
#N canvas 317 104 600 535 makePatch 0;
#X obj 62 277 until;
#X obj 96 298 + 1;
#X obj 36 390 pack f s f;
#X obj 68 342 r steps;
#X obj 62 -3 r instruments;
#X obj 36 343 * 35;
#X obj 66 320 t f f;
#X obj 66 298 f 1;
#X msg 81 256 1;
#X obj 36 366 + 10;
#X obj 62 72 t f f b;
#X obj 122 73 r steps;
#X obj 36 496 s loadbang1;
#X obj 62 49 pipe 3;
#X obj 331 267 pack 0 0;
#X obj 62 19 t f f;
#X msg 331 290 \; pd-sequence relocate \$1x\$2+0+0 0x0+0+0;
#X obj 376 70 * 35;
#X obj 331 225 * 30;
#X obj 331 246 + 320;
#X obj 376 91 + 80;
#X obj 36 473 delay 1;
#X msg 101 120 \$1 \; pd-sequence menuclose \; pd-sequence clear \,
obj 300 10 sequencer\$1 \; stepsRadio number \$1 \; pd-instruments
clear;
#X msg 36 412 bang \; pd-sequence obj 300 \$1 \$2 \$3 \, obj 10 \$1
loader \$3 \; pd-instruments obj 15 \$1 player \$3 \; pd-sequence vis
1;
#X obj 68 365 makefilename seq%d;
#X obj 101 95 f 20;
#X connect 0 0 7 0;
#X connect 1 0 7 1;
#X connect 2 0 23 0;
#X connect 3 0 24 0;
#X connect 4 0 15 0;
#X connect 5 0 9 0;
#X connect 6 0 5 0;
#X connect 6 1 2 2;
#X connect 7 0 1 0;
#X connect 7 0 6 0;
#X connect 8 0 7 1;
#X connect 9 0 2 0;
#X connect 10 0 0 0;
#X connect 10 1 8 0;
#X connect 10 2 25 0;
#X connect 11 0 25 1;
#X connect 13 0 10 0;
#X connect 14 0 16 0;
#X connect 15 0 13 0;
#X connect 15 1 17 0;
#X connect 17 0 20 0;
#X connect 18 0 19 0;
#X connect 19 0 14 0;
#X connect 20 0 14 1;
#X connect 21 0 12 0;
#X connect 22 0 18 0;
#X connect 23 0 21 0;
#X connect 24 0 2 1;
#X connect 25 0 22 0;
#X restore 4 197 pd makePatch;
#X obj 4 6 import jasch_lib;
#X obj 462 16 r outBpm;
#X obj 552 103 + 1;
#X obj 552 81 r outBeats;
#X obj 513 60 r outSubdivision;
#X obj 513 82 + 2;
#X obj 378 114 r outSwitch;
#X obj 378 135 t f f;
#X obj 368 190 sel 1;
#X obj 552 307 f;
#X obj 559 265 r outInstruments;
#X obj 513 377 + 47;
#X obj 571 169 value step;
#N canvas 592 194 324 247 output 0;
#X msg 122 92 1 5;
#X obj 89 123 vline~;
#X obj 17 160 *~;
#X obj 122 44 r instruments;
#X msg 89 71 0 3;
#X obj 122 70 delay 5;
#X obj 17 19 catch~ outLeft;
#X obj 200 160 *~;
#X obj 217 19 catch~ outRight;
#X obj 88 203 dac~ 1 2;
#X connect 0 0 1 0;
#X connect 1 0 2 1;
#X connect 1 0 7 0;
#X connect 2 0 9 0;
#X connect 3 0 4 0;
#X connect 3 0 5 0;
#X connect 4 0 1 0;
#X connect 5 0 0 0;
#X connect 6 0 2 0;
#X connect 7 0 9 1;
#X connect 8 0 7 1;
#X restore 4 218 pd output;
#X msg 486 170 0;
#X obj 559 286 change;
#N canvas 0 22 1280 657 presets 0;
#X obj 43 327 savepanel;
#X obj 156 4 r outPresetSave;
#X obj 3 5 r outPresetLoad;
#X obj 94 591 qlist;
#X obj 3 69 openpanel;
#X msg 3 246 read \$1 \, bang;
#X obj 11 112 list-rev;
#X obj 11 91 strtok /;
#X obj 11 133 unpack s;
#X msg 11 194 label \$1;
#X obj 3 27 getdir;
#X obj 11 215 s inPreset;
#X obj 11 154 strtok .;
#X obj 11 174 unpack s;
#X msg 43 351 write \$1.txt;
#X obj 203 26 r outBeats;
#X obj 223 47 r outSubdivision;
#X obj 243 68 r outBpm;
#X obj 264 90 r outInstruments;
#X obj 181 235 until;
#X obj 238 278 + 1;
#X obj 181 208 t f b;
#X obj 181 257 t b b;
#X obj 208 278 f 1;
#X msg 223 236 1;
#X obj 183 415 prepend;
#X obj 208 334 t a b a;
#X obj 196 361 tabdump;
#X obj 43 286 getdir;
#X obj 156 24 t b b;
#X obj 183 111 pack 0 0 0 0 0;
#X obj 363 510 r presetWrite;
#X msg 181 132 \$5 \; presetWrite clear \, add inBeats \$2 \, add inSubdivision
\$3 \, add inBpm \$4 \, add inInstruments \$5;
#X obj 361 447 list append bang;
#X obj 361 470 prepend add;
#X obj 334 375 sel 1;
#X obj 247 384 list append 0;
#X obj 181 187 pipe 1;
#X obj 183 456 prepend add;
#X obj 585 447 textfile;
#X msg 585 425 read \$1 \, rewind \, bang;
#X obj 558 377 t f f;
#X obj 558 491 pack s f;
#X obj 558 512 prepend 10;
#X obj 558 532 prepend add;
#X obj 558 554 s presetWrite;
#X obj 805 490 textfile;
#X msg 805 468 read \$1 \, rewind \, bang;
#X obj 778 422 t f f;
#X obj 778 534 pack s f;
#X obj 778 555 prepend 10;
#X obj 778 575 prepend add;
#X obj 778 597 s presetWrite;
#X obj 334 312 pipe 1;
#X obj 183 436 prepend 50;
#X obj 1044 525 textfile;
#X msg 1044 503 read \$1 \, rewind \, bang;
#X obj 1017 457 t f f;
#X obj 1017 591 prepend 10;
#X obj 1017 611 prepend add;
#X obj 1017 633 s presetWrite;
#X obj 1017 431 pipe 1;
#X obj 1017 570 list append;
#X obj 558 351 pipe 1;
#X obj 778 396 pipe 1;
#X obj 778 513 makefilename %d-inVolume;
#X obj 1017 549 makefilename %d-inFile;
#X obj 1044 479 makefilename ./files/%d-instrument.txt;
#X obj 805 444 makefilename ./files/%d-volume.txt;
#X obj 585 401 makefilename ./files/%d-pan.txt;
#X obj 558 470 makefilename %d-inPan;
#X obj 361 423 makefilename %d-visualizePattern;
#X msg 334 400 add 10 1-visualizePattern bang;
#X msg 208 312 set \$1-pattern;
#X msg 247 361 5-pattern;
#X obj 43 307 makefilename %s/presets;
#X obj 3 48 makefilename %s/presets;
#X connect 0 0 14 0;
#X connect 1 0 29 0;
#X connect 2 0 10 0;
#X connect 4 0 5 0;
#X connect 4 0 7 0;
#X connect 5 0 3 0;
#X connect 6 0 8 0;
#X connect 7 0 6 0;
#X connect 8 0 12 0;
#X connect 9 0 11 0;
#X connect 10 0 76 0;
#X connect 12 0 13 0;
#X connect 13 0 9 0;
#X connect 14 0 3 0;
#X connect 15 0 30 1;
#X connect 16 0 30 2;
#X connect 17 0 30 3;
#X connect 18 0 30 4;
#X connect 19 0 22 0;
#X connect 20 0 23 1;
#X connect 21 0 19 0;
#X connect 21 1 24 0;
#X connect 22 0 27 0;
#X connect 22 1 23 0;
#X connect 23 0 20 0;
#X connect 23 0 73 0;
#X connect 23 0 53 0;
#X connect 24 0 23 1;
#X connect 25 0 54 0;
#X connect 26 0 27 0;
#X connect 26 1 74 0;
#X connect 26 2 74 0;
#X connect 27 0 25 0;
#X connect 28 0 75 0;
#X connect 29 0 28 0;
#X connect 29 1 30 0;
#X connect 30 0 32 0;
#X connect 31 0 3 0;
#X connect 32 0 37 0;
#X connect 33 0 34 0;
#X connect 34 0 3 0;
#X connect 35 0 72 0;
#X connect 35 1 71 0;
#X connect 36 0 25 1;
#X connect 37 0 21 0;
#X connect 38 0 3 0;
#X connect 39 0 42 1;
#X connect 40 0 39 0;
#X connect 41 0 70 0;
#X connect 41 1 69 0;
#X connect 42 0 43 0;
#X connect 43 0 44 0;
#X connect 44 0 45 0;
#X connect 46 0 49 1;
#X connect 47 0 46 0;
#X connect 48 0 65 0;
#X connect 48 1 68 0;
#X connect 49 0 50 0;
#X connect 50 0 51 0;
#X connect 51 0 52 0;
#X connect 53 0 35 0;
#X connect 53 0 63 0;
#X connect 54 0 38 0;
#X connect 55 0 62 1;
#X connect 56 0 55 0;
#X connect 57 0 66 0;
#X connect 57 1 67 0;
#X connect 58 0 59 0;
#X connect 59 0 60 0;
#X connect 61 0 57 0;
#X connect 62 0 58 0;
#X connect 63 0 41 0;
#X connect 63 0 64 0;
#X connect 64 0 48 0;
#X connect 64 0 61 0;
#X connect 65 0 49 0;
#X connect 66 0 62 0;
#X connect 67 0 56 0;
#X connect 68 0 47 0;
#X connect 69 0 40 0;
#X connect 70 0 42 0;
#X connect 71 0 33 0;
#X connect 72 0 3 0;
#X connect 73 0 26 0;
#X connect 74 0 36 0;
#X connect 75 0 0 0;
#X connect 76 0 4 0;
#X restore 4 153 pd presets;
#N canvas 105 536 980 199 saveBasic 0;
#X obj 51 53 r outBeats;
#X obj 51 75 t b f;
#X obj 291 75 t b f;
#X obj 521 75 t b f;
#X obj 751 75 t b f;
#X obj 291 54 r outSubdivision;
#X obj 521 54 r outBpm;
#X obj 751 54 r outInstruments;
#X obj 258 8 r loadbang0;
#X obj 18 7 r loadbang0;
#X obj 488 8 r loadbang0;
#X obj 718 8 r loadbang0;
#X obj 51 149 qlist;
#X msg 78 125 clear \, add inBeats \$1;
#X obj 291 149 qlist;
#X obj 521 149 qlist;
#X obj 751 149 qlist;
#X msg 778 125 clear \, add inInstruments \$1;
#X msg 548 125 clear \, add inBpm \$1;
#X msg 318 125 clear \, add inSubdivision \$1;
#X msg 488 29 read ./files/bpm.txt \, rewind \, bang;
#X msg 521 100 write ./files/bpm.txt;
#X msg 718 29 read ./files/voices.txt \, rewind \, bang;
#X msg 751 100 write ./files/voices.txt;
#X msg 291 100 write ./files/subd.txt;
#X msg 18 29 read ./files/beats.txt \, rewind \, bang;
#X msg 258 29 read ./files/subd.txt \, rewind \, bang;
#X msg 51 100 write ./files/beats.txt;
#X connect 0 0 1 0;
#X connect 1 0 27 0;
#X connect 1 1 13 0;
#X connect 2 0 24 0;
#X connect 2 1 19 0;
#X connect 3 0 21 0;
#X connect 3 1 18 0;
#X connect 4 0 23 0;
#X connect 4 1 17 0;
#X connect 5 0 2 0;
#X connect 6 0 3 0;
#X connect 7 0 4 0;
#X connect 8 0 26 0;
#X connect 9 0 25 0;
#X connect 10 0 20 0;
#X connect 11 0 22 0;
#X connect 13 0 12 0;
#X connect 17 0 16 0;
#X connect 18 0 15 0;
#X connect 19 0 14 0;
#X connect 20 0 15 0;
#X connect 21 0 15 0;
#X connect 22 0 16 0;
#X connect 23 0 16 0;
#X connect 24 0 14 0;
#X connect 25 0 12 0;
#X connect 26 0 14 0;
#X connect 27 0 12 0;
#X restore 4 132 pd saveBasic;
#X msg 4 47 \; pd-sequence vis 0 inPreset label click_to_load_a_preset
\; loadbang0 bang \; pd dsp 1;
#X obj 112 6 declare -path files;
#X connect 0 0 41 0;
#X connect 1 0 7 0;
#X connect 1 0 14 0;
#X connect 2 0 1 0;
#X connect 3 0 8 0;
#X connect 4 0 3 0;
#X connect 5 0 4 0;
#X connect 6 0 5 0;
#X connect 6 1 4 1;
#X connect 7 0 1 1;
#X connect 8 0 2 1;
#X connect 9 0 8 0;
#X connect 9 0 10 0;
#X connect 9 1 8 1;
#X connect 9 1 10 1;
#X connect 9 1 19 1;
#X connect 10 0 11 0;
#X connect 10 0 13 0;
#X connect 10 0 35 0;
#X connect 10 0 37 0;
#X connect 13 0 32 0;
#X connect 14 0 19 0;
#X connect 14 0 16 0;
#X connect 15 0 14 1;
#X connect 18 0 17 0;
#X connect 19 0 20 0;
#X connect 20 0 34 0;
#X connect 24 0 6 0;
#X connect 25 0 10 0;
#X connect 26 0 25 0;
#X connect 27 0 28 0;
#X connect 28 0 9 0;
#X connect 29 0 30 0;
#X connect 30 0 31 0;
#X connect 30 1 2 0;
#X connect 31 1 1 1;
#X connect 32 0 12 0;
#X connect 33 0 38 0;
#X connect 34 0 18 0;
#X connect 37 0 1 1;
#X connect 38 0 32 0;
#X restore 25 209 pd patch;
#X obj 22 166 nbx 4 30 2 15 0 0 outInstruments inInstruments INSTRUMENTS
0 -7 1 12 -262144 -1 -1 5 256;
#N canvas 0 22 560 255 sequence 1;
#X obj 300 10 sequencer8;
#X obj 300 45 seq8 1;
#X obj 10 45 loader 1;
#X obj 300 80 seq8 2;
#X obj 10 80 loader 2;
#X obj 300 115 seq8 3;
#X obj 10 115 loader 3;
#X obj 300 150 seq8 4;
#X obj 10 150 loader 4;
#X obj 300 185 seq8 5;
#X obj 10 185 loader 5;
#X restore -58 209 pd sequence;
#X obj -58 46 bng 30 250 50 0 outPresetSave inPresetSave SAVE 0 -8
1 12 -262144 -1 -1;
#X obj 2 46 bng 30 250 50 0 outPresetLoad inPresetLoad LOAD 0 -8 1
12 -262144 -1 -1;
#X obj 33 46 cnv 15 150 30 empty inPreset preset3 5 15 1 14 -261234
-66577 0;
#X text 86 4 by Ángel Faraldo;
