#N canvas 0 22 199 241 10;
#X obj 58 139 i;
#X obj 58 111 sel 1;
#X obj 105 149 spigot;
#X obj 58 89 t f f;
#X obj 137 66 inlet;
#X obj 105 169 outlet;
#X obj 68 43 loadbang;
#X msg 68 64 1;
#X obj 58 19 ctlin 37;
#X text 24 196 angel faraldo 2008;
#X connect 0 0 2 0;
#X connect 1 0 0 0;
#X connect 2 0 5 0;
#X connect 3 0 1 0;
#X connect 3 1 2 1;
#X connect 4 0 2 0;
#X connect 4 0 0 1;
#X connect 6 0 7 0;
#X connect 7 0 3 0;
#X connect 8 0 3 0;
