#N canvas 8 22 288 243 10;
#X obj 67 163 outlet~;
#X obj 110 88 *~ 0;
#X obj 110 21 noise~;
#X obj 110 43 samphold~;
#X obj 131 66 r \$1.dev;
#X obj 27 60 r \$1.mean;
#X obj 161 19 inlet~;
#X obj 27 106 samphold~;
#X obj 27 83 sig~;
#X obj 67 139 +~;
#X obj 110 108 sigpack/round~;
#X connect 1 0 10 0;
#X connect 2 0 3 0;
#X connect 3 0 1 0;
#X connect 4 0 1 1;
#X connect 5 0 8 0;
#X connect 6 0 3 1;
#X connect 6 0 7 1;
#X connect 7 0 9 0;
#X connect 8 0 7 0;
#X connect 9 0 0 0;
#X connect 10 0 9 1;
