#N canvas 0 22 375 538 10;
#X obj 146 83 t b f;
#X obj 82 350 wrap~;
#X obj 127 433 abs~;
#X obj 142 390 mod~ 2;
#X obj 127 412 -~;
#X obj 102 319 +~ 1000;
#X obj 158 211 -;
#X obj 83 130 inlet~;
#X obj 137 501 outlet~;
#X obj 283 18 inlet;
#X obj 137 457 *~ 1;
#X obj 106 59 \$1;
#X obj 146 60 \$2;
#X text 170 60 lower boundary;
#X text 10 60 higher boundary;
#X obj 149 18 inlet;
#X obj 88 18 loadbang;
#X obj 157 347 wrap~;
#X obj 142 368 -~;
#X obj 227 417 line~;
#X obj 137 479 +~;
#X obj 108 276 line~;
#X obj 93 297 /~;
#X obj 108 208 line~;
#X obj 108 164 * -1;
#X obj 93 228 +~;
#X msg 108 187 \$1 5;
#X msg 108 255 \$1 5;
#X msg 227 396 \$1 5;
#X connect 0 0 6 0;
#X connect 0 1 6 1;
#X connect 0 1 24 0;
#X connect 1 0 4 0;
#X connect 2 0 10 0;
#X connect 3 0 4 1;
#X connect 4 0 2 0;
#X connect 5 0 1 0;
#X connect 5 0 17 0;
#X connect 5 0 18 0;
#X connect 6 0 10 1;
#X connect 6 0 27 0;
#X connect 7 0 25 0;
#X connect 9 0 12 0;
#X connect 10 0 20 0;
#X connect 11 0 6 0;
#X connect 12 0 0 0;
#X connect 12 0 28 0;
#X connect 15 0 11 0;
#X connect 16 0 11 0;
#X connect 16 0 12 0;
#X connect 17 0 18 1;
#X connect 18 0 3 0;
#X connect 19 0 20 1;
#X connect 20 0 8 0;
#X connect 21 0 22 1;
#X connect 22 0 5 0;
#X connect 23 0 25 1;
#X connect 24 0 26 0;
#X connect 25 0 22 0;
#X connect 26 0 23 0;
#X connect 27 0 21 0;
#X connect 28 0 19 0;
