#N canvas 1555 156 326 335 10;
#N canvas 320 23 831 593 wavedesign 0;
#X obj 565 558 s samp.dev.7;
#X obj 655 558 s samp.dev.8;
#X obj 475 558 s samp.dev.6;
#X obj 385 558 s samp.dev.5;
#X obj 295 558 s samp.dev.4;
#X obj 205 558 s samp.dev.3;
#X obj 115 558 s samp.dev.2;
#X obj 25 559 s samp.dev.1;
#X obj 25 537 i;
#X obj 115 536 i;
#X obj 205 536 i;
#X obj 295 536 i;
#X obj 385 536 i;
#X obj 475 536 i;
#X obj 565 536 i;
#X obj 655 536 i;
#X obj 25 473 / 127;
#X obj 25 516 * 63;
#X obj 25 495 pow 1.33;
#X obj 115 473 / 127;
#X obj 115 516 * 63;
#X obj 115 495 pow 1.33;
#X obj 205 473 / 127;
#X obj 205 516 * 63;
#X obj 205 495 pow 1.33;
#X obj 295 473 / 127;
#X obj 295 516 * 63;
#X obj 295 495 pow 1.33;
#X obj 385 473 / 127;
#X obj 385 516 * 63;
#X obj 385 495 pow 1.33;
#X obj 475 472 / 127;
#X obj 475 515 * 63;
#X obj 475 494 pow 1.33;
#X obj 565 472 / 127;
#X obj 565 515 * 63;
#X obj 565 494 pow 1.33;
#X obj 655 472 / 127;
#X obj 655 515 * 63;
#X obj 655 494 pow 1.33;
#X obj 25 249 s samp.mean.1;
#X obj 115 249 s samp.mean.2;
#X obj 205 249 s samp.mean.3;
#X obj 295 249 s samp.mean.4;
#X obj 385 249 s samp.mean.5;
#X obj 475 249 s samp.mean.6;
#X obj 565 249 s samp.mean.7;
#X obj 655 249 s samp.mean.8;
#X obj 25 7 ctlin 1;
#X obj 115 7 ctlin 2;
#X obj 205 7 ctlin 3;
#X obj 295 7 ctlin 4;
#X obj 385 7 ctlin 5;
#X obj 475 7 ctlin 6;
#X obj 565 7 ctlin 7;
#X obj 655 7 ctlin 8;
#X obj 25 279 ctlin 10;
#X obj 25 215 - 63;
#X obj 25 191 moses 64;
#X obj 70 215 - 64;
#X obj 115 215 - 63;
#X obj 115 191 moses 64;
#X obj 160 215 - 64;
#X obj 205 215 - 63;
#X obj 205 191 moses 64;
#X obj 250 215 - 64;
#X obj 295 215 - 63;
#X obj 295 191 moses 64;
#X obj 340 215 - 64;
#X obj 385 215 - 63;
#X obj 385 191 moses 64;
#X obj 430 215 - 64;
#X obj 475 215 - 63;
#X obj 475 191 moses 64;
#X obj 520 215 - 64;
#X obj 565 215 - 63;
#X obj 565 191 moses 64;
#X obj 610 215 - 64;
#X obj 655 215 - 63;
#X obj 655 191 moses 64;
#X obj 700 215 - 64;
#X obj 115 279 ctlin 11;
#X obj 205 279 ctlin 12;
#X obj 295 279 ctlin 13;
#X obj 385 279 ctlin 14;
#X obj 475 279 ctlin 15;
#X obj 565 279 ctlin 16;
#X obj 655 279 ctlin 17;
#X obj 733 29 r lb.samp.mean;
#X obj 733 301 r lb.samp.dev;
#X obj 655 29 ctlBypass;
#X obj 565 29 ctlBypass;
#X obj 475 29 ctlBypass;
#X obj 385 29 ctlBypass;
#X obj 295 29 ctlBypass;
#X obj 205 29 ctlBypass;
#X obj 115 29 ctlBypass;
#X obj 25 29 ctlBypass;
#X obj 655 301 ctlBypass;
#X obj 565 301 ctlBypass;
#X obj 475 301 ctlBypass;
#X obj 385 301 ctlBypass;
#X obj 295 301 ctlBypass;
#X obj 205 301 ctlBypass;
#X obj 115 301 ctlBypass;
#X obj 25 301 ctlBypass;
#X connect 8 0 7 0;
#X connect 9 0 6 0;
#X connect 10 0 5 0;
#X connect 11 0 4 0;
#X connect 12 0 3 0;
#X connect 13 0 2 0;
#X connect 14 0 0 0;
#X connect 15 0 1 0;
#X connect 16 0 18 0;
#X connect 17 0 8 0;
#X connect 18 0 17 0;
#X connect 19 0 21 0;
#X connect 20 0 9 0;
#X connect 21 0 20 0;
#X connect 22 0 24 0;
#X connect 23 0 10 0;
#X connect 24 0 23 0;
#X connect 25 0 27 0;
#X connect 26 0 11 0;
#X connect 27 0 26 0;
#X connect 28 0 30 0;
#X connect 29 0 12 0;
#X connect 30 0 29 0;
#X connect 31 0 33 0;
#X connect 32 0 13 0;
#X connect 33 0 32 0;
#X connect 34 0 36 0;
#X connect 35 0 14 0;
#X connect 36 0 35 0;
#X connect 37 0 39 0;
#X connect 38 0 15 0;
#X connect 39 0 38 0;
#X connect 48 0 97 0;
#X connect 49 0 96 0;
#X connect 50 0 95 0;
#X connect 51 0 94 0;
#X connect 52 0 93 0;
#X connect 53 0 92 0;
#X connect 54 0 91 0;
#X connect 55 0 90 0;
#X connect 56 0 105 0;
#X connect 57 0 40 0;
#X connect 58 0 57 0;
#X connect 58 1 59 0;
#X connect 59 0 40 0;
#X connect 60 0 41 0;
#X connect 61 0 60 0;
#X connect 61 1 62 0;
#X connect 62 0 41 0;
#X connect 63 0 42 0;
#X connect 64 0 63 0;
#X connect 64 1 65 0;
#X connect 65 0 42 0;
#X connect 66 0 43 0;
#X connect 67 0 66 0;
#X connect 67 1 68 0;
#X connect 68 0 43 0;
#X connect 69 0 44 0;
#X connect 70 0 69 0;
#X connect 70 1 71 0;
#X connect 71 0 44 0;
#X connect 72 0 45 0;
#X connect 73 0 72 0;
#X connect 73 1 74 0;
#X connect 74 0 45 0;
#X connect 75 0 46 0;
#X connect 76 0 75 0;
#X connect 76 1 77 0;
#X connect 77 0 46 0;
#X connect 78 0 47 0;
#X connect 79 0 78 0;
#X connect 79 1 80 0;
#X connect 80 0 47 0;
#X connect 81 0 104 0;
#X connect 82 0 103 0;
#X connect 83 0 102 0;
#X connect 84 0 101 0;
#X connect 85 0 100 0;
#X connect 86 0 99 0;
#X connect 87 0 98 0;
#X connect 88 0 79 0;
#X connect 88 0 76 0;
#X connect 88 0 73 0;
#X connect 88 0 70 0;
#X connect 88 0 67 0;
#X connect 88 0 64 0;
#X connect 88 0 61 0;
#X connect 88 0 58 0;
#X connect 89 0 16 0;
#X connect 89 0 19 0;
#X connect 89 0 22 0;
#X connect 89 0 37 0;
#X connect 89 0 34 0;
#X connect 89 0 31 0;
#X connect 89 0 28 0;
#X connect 89 0 25 0;
#X connect 90 0 79 0;
#X connect 91 0 76 0;
#X connect 92 0 73 0;
#X connect 93 0 70 0;
#X connect 94 0 67 0;
#X connect 95 0 64 0;
#X connect 96 0 61 0;
#X connect 97 0 58 0;
#X connect 98 0 37 0;
#X connect 99 0 34 0;
#X connect 100 0 31 0;
#X connect 101 0 28 0;
#X connect 102 0 25 0;
#X connect 103 0 22 0;
#X connect 104 0 19 0;
#X connect 105 0 16 0;
#X restore 170 12 pd wavedesign;
#N canvas 123 107 560 333 frequencyBoundaries 0;
#X obj 12 2 ctlin 26;
#X obj 65 186 zexy/minmax;
#X obj 65 166 pack 0 0;
#X obj 83 141 t b f;
#X obj 128 242 -;
#X obj 138 219 t b f;
#X obj 128 261 abs;
#X obj 83 2 ctlin 27;
#X obj 187 154 / 127;
#X obj 187 111 ctlin 18;
#X obj 187 218 s pitch.low.dev;
#X obj 128 282 s pitch.high.mean;
#X obj 65 303 s pitch.low.mean;
#X text 247 196 = (total frequency range / 2);
#X obj 432 152 / 127;
#X obj 441 218 s pitch.high.dev;
#X obj 432 109 ctlin 19;
#X obj 93 114 s pitch.mean;
#X obj 432 241 s pitch.dev;
#X obj 432 174 pow 1.33;
#X obj 187 176 pow 1.33;
#X text 171 304 en MIDI NOTES;
#X text 148 3 to get a maximum frequency of 1/8 the sample rate per
period computation (at least 8 samples per period: 5512.5 Hz @ 44.1
Khz);
#X obj 21 46 r lb.pitch.low;
#X obj 91 68 r lb.pitch.high;
#X obj 84 91 / 1.12598;
#X obj 12 91 / 1.12598;
#X obj 187 197 * 56.3955;
#X obj 432 195 * 56.3955;
#X obj 83 24 ctlBypass;
#X obj 12 24 ctlBypass;
#X obj 187 133 ctlBypass;
#X obj 432 131 ctlBypass;
#X connect 0 0 30 0;
#X connect 1 0 4 0;
#X connect 1 0 12 0;
#X connect 1 1 5 0;
#X connect 2 0 1 0;
#X connect 3 0 2 0;
#X connect 3 1 2 1;
#X connect 4 0 6 0;
#X connect 5 0 4 0;
#X connect 5 1 4 1;
#X connect 6 0 11 0;
#X connect 7 0 29 0;
#X connect 8 0 20 0;
#X connect 9 0 31 0;
#X connect 14 0 19 0;
#X connect 16 0 32 0;
#X connect 19 0 28 0;
#X connect 20 0 27 0;
#X connect 23 0 26 0;
#X connect 24 0 25 0;
#X connect 25 0 3 0;
#X connect 25 0 17 0;
#X connect 26 0 2 0;
#X connect 27 0 10 0;
#X connect 28 0 15 0;
#X connect 28 0 18 0;
#X connect 29 0 25 0;
#X connect 30 0 26 0;
#X connect 31 0 8 0;
#X connect 32 0 14 0;
#X restore 29 12 pd frequencyBoundaries;
#N canvas 18 22 569 460 sequence 0;
#X obj 252 203 change;
#X obj 34 80 / 127;
#X obj 252 180 == 0;
#X obj 252 224 s seq.int;
#X obj 34 339 / 127;
#X obj 61 166 s seq.freq.mean;
#X text 218 67 sequence frequency is from 0 to 25 Hz \, somehow the
physiological boundary between beat and pitch.;
#X obj 34 404 s seq.freq.dev;
#X text 79 383 (range / 2);
#X obj 34 5 ctlin 28;
#X obj 34 269 ctlin 20;
#X obj 42 55 r lb.seq.freq.mean;
#X obj 42 315 r lb.seq.freq.dev;
#X obj 192 279 ctlin 29;
#X obj 192 322 / 127;
#X obj 192 342 * 7;
#X obj 192 362 + 1;
#X obj 192 383 int;
#X obj 300 322 / 127;
#X obj 300 363 int;
#X obj 300 384 s seq.steps.dev;
#X obj 192 404 s seq.steps.mean;
#X obj 300 279 ctlin 21;
#X text 196 250 # of steps to read in the sequence (always starting
from 1);
#X obj 300 342 * 5;
#X obj 34 383 * 12.5;
#X obj 61 144 * 25;
#X obj 34 123 sel 0;
#X obj 225 116 ctlin 34;
#X obj 225 159 sel 2;
#X obj 34 102 pow 4;
#X obj 34 361 pow 4;
#X obj 34 30 ctlBypass;
#X obj 34 291 ctlBypass;
#X obj 225 138 ctlBypass;
#X obj 192 300 ctlBypass;
#X obj 300 301 ctlBypass;
#X connect 0 0 3 0;
#X connect 1 0 30 0;
#X connect 2 0 0 0;
#X connect 4 0 31 0;
#X connect 9 0 32 0;
#X connect 10 0 33 0;
#X connect 11 0 1 0;
#X connect 12 0 4 0;
#X connect 13 0 35 0;
#X connect 14 0 15 0;
#X connect 15 0 16 0;
#X connect 16 0 17 0;
#X connect 17 0 21 0;
#X connect 18 0 24 0;
#X connect 19 0 20 0;
#X connect 22 0 36 0;
#X connect 24 0 19 0;
#X connect 25 0 7 0;
#X connect 26 0 5 0;
#X connect 27 1 26 0;
#X connect 28 0 34 0;
#X connect 29 1 2 0;
#X connect 30 0 27 0;
#X connect 31 0 25 0;
#X connect 32 0 1 0;
#X connect 33 0 4 0;
#X connect 34 0 29 0;
#X connect 35 0 14 0;
#X connect 36 0 18 0;
#X restore 29 32 pd sequence;
#N canvas 563 291 213 234 loadbangs 0;
#X obj 9 7 loadbang;
#X msg 9 28 bang \; lb.samp.mean 63 \; lb.samp.dev 0 \; lb.seq.freq.mean
0 \; lb.pitch.high 127 \; lb.pitch.low 0 \; seq.steps.mean 8 \; voices
1 1;
#X connect 0 0 1 0;
#X restore 105 33 pd loadbangs;
#N canvas 820 249 682 485 other_controls 0;
#X obj 16 364 s smoothing;
#X obj 11 46 ctlin 33;
#X obj 11 171 + 1;
#X obj 238 116 s phase.sync;
#X msg 238 95 0;
#X obj 238 31 ctlin 34;
#X obj 238 73 sel 2;
#X obj 99 61 ctlin 25;
#X obj 11 192 s period.mean;
#X obj 99 192 s period.dev;
#X obj 99 171 int;
#X obj 99 109 / 127;
#X obj 99 130 pow 1.33;
#X obj 99 150 * 63;
#X obj 11 149 int;
#X obj 11 87 / 127;
#X obj 11 108 pow 1.33;
#X obj 11 128 * 127;
#X text 236 12 phase syncronization of all phasor objects;
#X text 14 10 # of periods between updates;
#X text 56 24 (mean an dev);
#X obj 392 143 s bandwidth;
#X obj 365 31 ctlin 32;
#X obj 365 100 sel 0;
#X obj 365 79 / 1;
#X text 424 121 in semitones;
#X obj 16 278 / 127;
#X obj 237 149 ctlin 36;
#X obj 276 257 s mute;
#X obj 16 299 pow 8;
#X obj 16 320 * 22049;
#X obj 16 342 + 0.005;
#X obj 16 232 ctlin 24;
#X obj 392 122 st2Q;
#X obj 544 29 ctlin 35;
#X obj 598 458 s voices;
#X obj 475 396 + 1;
#X msg 551 374 clear;
#X obj 475 352 bang;
#X obj 598 192 f 1;
#X obj 627 192 + 1;
#X msg 628 235 1;
#X obj 598 171 until;
#X msg 598 257 \$1 0;
#X obj 571 127 t f b;
#X obj 475 330 until;
#X obj 475 307 f;
#X obj 561 281 t f b;
#X msg 475 417 \$1 1;
#X obj 544 98 sel 0;
#X obj 583 100 - 1;
#X obj 10 66 ctlBypass;
#X obj 99 84 ctlBypass;
#X obj 16 255 ctlBypass;
#X obj 239 52 ctlBypass;
#X obj 365 56 ctlBypass;
#X obj 544 51 ctlBypass;
#X msg 303 221 \; pd dsp \$1;
#X obj 237 173 moses 1;
#X obj 276 197 t f f;
#X obj 263 307 s mute;
#X obj 237 282 t f f;
#X msg 237 354 \; pd dsp \$1;
#X obj 237 331 pipe 500;
#X obj 544 74 moses 8;
#X msg 598 149 8;
#X obj 628 214 sel 8;
#X obj 475 374 zexy/urn 8;
#X connect 1 0 51 0;
#X connect 2 0 8 0;
#X connect 4 0 3 0;
#X connect 5 0 54 0;
#X connect 6 0 4 0;
#X connect 7 0 52 0;
#X connect 10 0 9 0;
#X connect 11 0 12 0;
#X connect 12 0 13 0;
#X connect 13 0 10 0;
#X connect 14 0 2 0;
#X connect 15 0 16 0;
#X connect 16 0 17 0;
#X connect 17 0 14 0;
#X connect 22 0 55 0;
#X connect 23 1 33 0;
#X connect 24 0 23 0;
#X connect 26 0 29 0;
#X connect 27 0 58 0;
#X connect 29 0 30 0;
#X connect 30 0 31 0;
#X connect 31 0 0 0;
#X connect 32 0 53 0;
#X connect 33 0 21 0;
#X connect 34 0 56 0;
#X connect 36 0 48 0;
#X connect 37 0 67 0;
#X connect 38 0 67 0;
#X connect 39 0 40 0;
#X connect 39 0 43 0;
#X connect 39 0 66 0;
#X connect 40 0 39 1;
#X connect 41 0 39 1;
#X connect 42 0 39 0;
#X connect 43 0 35 0;
#X connect 44 0 47 0;
#X connect 44 1 65 0;
#X connect 45 0 38 0;
#X connect 46 0 45 0;
#X connect 47 0 46 0;
#X connect 47 1 37 0;
#X connect 48 0 35 0;
#X connect 49 1 44 0;
#X connect 50 0 44 0;
#X connect 51 0 15 0;
#X connect 52 0 11 0;
#X connect 53 0 26 0;
#X connect 54 0 6 0;
#X connect 55 0 24 0;
#X connect 56 0 64 0;
#X connect 58 0 61 0;
#X connect 58 1 59 0;
#X connect 59 0 28 0;
#X connect 59 1 57 0;
#X connect 61 0 63 0;
#X connect 61 1 60 0;
#X connect 63 0 62 0;
#X connect 64 0 49 0;
#X connect 64 1 50 0;
#X connect 65 0 42 0;
#X connect 66 0 41 0;
#X connect 67 0 36 0;
#X connect 67 1 37 0;
#X restore 105 54 pd other_controls;
#N canvas 573 116 489 407 envelope 0;
#X obj 34 13 ctlin 30;
#X obj 34 57 / 127;
#X obj 34 120 s envelope.mean;
#N canvas 0 22 450 300 (subpatch) 0;
#X array envelope 15 float 1 black black;
#A 0 0.125 0.142857 0.166667 0.2 0.25 0.333333 0.5 1 2 3 4 5 6 7 8
;
#X coords 0 8 14 0 200 140 1;
#X restore 44 255 graph;
#X obj 158 52 / 127;
#X obj 158 74 * 8;
#X obj 158 119 s envelope.dev;
#X obj 158 8 ctlin 22;
#X obj 158 96 int;
#X obj 34 98 int;
#X obj 34 78 * 15;
#X obj 257 36 ctlin 38;
#X obj 257 80 s env.int;
#X obj 158 30 ctlBypass;
#X obj 34 35 ctlBypass;
#X obj 257 58 ctlBypass;
#X connect 0 0 14 0;
#X connect 1 0 10 0;
#X connect 4 0 5 0;
#X connect 5 0 8 0;
#X connect 7 0 13 0;
#X connect 8 0 6 0;
#X connect 9 0 2 0;
#X connect 10 0 9 0;
#X connect 11 0 15 0;
#X connect 13 0 4 0;
#X connect 14 0 1 0;
#X connect 15 0 12 0;
#X restore 29 53 pd envelope;
#X obj 29 183 ctlin 9;
#X obj 29 283 dbtorms;
#X obj 29 305 s outVol;
#X obj 29 203 / 127;
#X obj 29 244 * 112;
#X obj 29 223 expr pow($f1 \, 0.5);
#X floatatom 39 265 5 0 0 0 - - -, f 5;
#X obj 29 93 voice.miss.uc33 1 1;
#X obj 29 113 voice.miss.uc33 2 2;
#X obj 29 133 voice.miss.uc33 3 3;
#X obj 29 153 voice.miss.uc33 4 4;
#X obj 164 93 voice.miss.uc33 5 5;
#X obj 164 113 voice.miss.uc33 6 6;
#X obj 164 133 voice.miss.uc33 7 7;
#X obj 164 153 voice.miss.uc33 8 8;
#X connect 6 0 9 0;
#X connect 7 0 8 0;
#X connect 9 0 11 0;
#X connect 10 0 7 0;
#X connect 10 0 12 0;
#X connect 11 0 10 0;
