#N canvas 150 402 311 257 10;
#X obj 65 224 outlet~;
#X obj 113 145 *~ 0;
#X obj 113 78 noise~;
#X obj 113 100 samphold~;
#X obj 164 78 phasor~;
#X obj 134 123 r \$1.dev;
#X obj 20 117 r \$1.mean;
#X obj 164 11 inlet~;
#X obj 20 163 samphold~;
#X obj 20 140 sig~;
#X obj 179 32 inlet~;
#X obj 164 54 /~;
#X obj 203 57 r phase.sync;
#X obj 65 200 +~;
#X obj 113 166 sigpack/round~;
#X connect 1 0 14 0;
#X connect 2 0 3 0;
#X connect 3 0 1 0;
#X connect 4 0 3 1;
#X connect 4 0 8 1;
#X connect 5 0 1 1;
#X connect 6 0 9 0;
#X connect 7 0 11 0;
#X connect 8 0 13 0;
#X connect 9 0 8 0;
#X connect 10 0 11 1;
#X connect 11 0 4 0;
#X connect 12 0 4 1;
#X connect 13 0 0 0;
#X connect 14 0 13 1;
