#N canvas 47 23 715 1240 10;
#X obj 106 302 *~ 0.5;
#X obj 106 322 +~ 0.5;
#X obj 124 415 mtof~;
#X obj 42 578 r seq.int;
#X obj 42 598 sig~;
#X obj 42 618 expr~ if($v1 == 0 \, $v2 \, $v3);
#X obj 124 376 +~;
#X obj 106 262 tabread~ waveform.\$1;
#X obj 106 351 *~;
#X obj 242 322 -~;
#X obj 144 141 r phase.sync;
#X obj 202 700 s~ period.wave.\$1;
#X obj 294 639 r~ period.wave.\$1;
#X obj 195 660 period.gen period;
#X obj 116 202 wrap~;
#X obj 116 222 s~ period.event.\$1;
#X obj 75 22 r~ period.event.\$1;
#X obj 106 282 /~ 63;
#X obj 242 261 r~ period.event.\$1;
#X obj 207 474 r~ single.event.\$1;
#X obj 105 161 phasor~;
#X obj 124 435 -~ 8.1758;
#X text 267 396 mirror boundaries for pitch range (MIDI);
#X obj 207 554 mtof~;
#X obj 207 574 -~ 8.1758;
#X obj 171 844 route \$1;
#X obj 171 824 r voices;
#X obj 156 1012 *~;
#X obj 171 992 line~;
#X obj 193 22 r~ period.sequence.\$1;
#X obj 105 182 *~;
#X obj 105 141 *~;
#X obj 111 242 s~ period.sequence.\$1;
#X obj 193 42 dev.gen2 seq.steps;
#X obj 288 494 r~ period.wave.\$1;
#X obj 219 618 s~ single.event.\$1;
#X obj 207 514 dev.gen3 pitch;
#X obj 177 782 r bandwidth;
#N canvas 484 22 757 479 wave 0;
#X obj 190 388 +~;
#X obj 276 17 block~ 8;
#X obj 190 432 table waveform.\$1 8;
#X obj 190 411 tabsend~ waveform.\$1;
#X obj 4 75 phasor~;
#X obj 4 119 tabread~ waveform.\$1;
#X obj 4 97 *~ 8;
#X obj 4 141 outlet~;
#X obj 4 17 inlet~;
#X obj 140 48 *~ 4;
#X text 161 15 frequency;
#X obj 43 54 r phase.sync;
#X obj 155 112 *~ 4;
#X obj 155 91 inlet~;
#X obj 140 157 phasor~;
#X obj 179 136 r phase.sync;
#X obj 140 135 /~;
#X text 187 111 # periods;
#X obj 140 232 samp.gen 1;
#X obj 140 69 clip~ 0 22049;
#X obj 211 284 zexy/z~ 1;
#X obj 281 284 zexy/z~ 2;
#X obj 351 284 zexy/z~ 3;
#X obj 421 285 zexy/z~ 4;
#X obj 491 284 zexy/z~ 5;
#X obj 561 285 zexy/z~ 6;
#X obj 631 285 zexy/z~ 7;
#X obj 631 231 samp.gen 8;
#X obj 211 231 samp.gen 2;
#X obj 491 231 samp.gen 6;
#X obj 351 231 samp.gen 4;
#X obj 421 231 samp.gen 5;
#X obj 281 231 samp.gen 3;
#X obj 561 231 samp.gen 7;
#X connect 0 0 3 0;
#X connect 4 0 6 0;
#X connect 5 0 7 0;
#X connect 6 0 5 0;
#X connect 8 0 4 0;
#X connect 8 0 9 0;
#X connect 9 0 19 0;
#X connect 11 0 4 1;
#X connect 12 0 16 1;
#X connect 13 0 12 0;
#X connect 14 0 18 0;
#X connect 14 0 27 0;
#X connect 14 0 28 0;
#X connect 14 0 29 0;
#X connect 14 0 30 0;
#X connect 14 0 31 0;
#X connect 14 0 32 0;
#X connect 14 0 33 0;
#X connect 15 0 14 1;
#X connect 16 0 14 0;
#X connect 18 0 0 0;
#X connect 19 0 16 0;
#X connect 20 0 0 0;
#X connect 21 0 0 0;
#X connect 22 0 0 0;
#X connect 23 0 0 0;
#X connect 24 0 0 0;
#X connect 25 0 0 0;
#X connect 26 0 0 0;
#X connect 27 0 26 0;
#X connect 28 0 20 0;
#X connect 29 0 24 0;
#X connect 30 0 22 0;
#X connect 31 0 23 0;
#X connect 32 0 21 0;
#X connect 33 0 25 0;
#X restore 156 720 pd wave;
#X text 207 719 <- synthesis;
#X obj 156 802 vcf~;
#N canvas 421 27 537 215 lin2exp 0;
#X obj 160 148 +~;
#X obj 175 94 *~ -1;
#X obj 16 35 expr~ if($v1 >= 0 \, $v1 \, 0) \; if($v1 < 0 \, -$v1 \,
0);
#X obj 16 10 inlet~;
#X obj 160 170 outlet~;
#X text 190 20 we've determined an exponent of 2.5 because we think
it produces quite a smooth dynamic range from ppp (at the center) to
fff (at the edges).;
#X obj 16 72 expr~ pow($v1 \, 2);
#X obj 175 72 expr~ pow($v1 \, 2);
#X connect 0 0 4 0;
#X connect 1 0 0 1;
#X connect 2 0 6 0;
#X connect 2 1 7 0;
#X connect 3 0 2 0;
#X connect 6 0 0 0;
#X connect 7 0 1 0;
#X restore 156 762 pd lin2exp;
#X text 223 761 <- Amplitude to exp.;
#X obj 194 865 r mute;
#X obj 171 928 f;
#X obj 179 906 sel 1;
#X obj 156 742 /~ 63;
#X obj 325 1014 /~ 63;
#N canvas 421 27 537 215 lin2exp 0;
#X obj 151 151 +~;
#X obj 166 97 *~ -1;
#X obj 7 38 expr~ if($v1 >= 0 \, $v1 \, 0) \; if($v1 < 0 \, -$v1 \,
0);
#X obj 7 13 inlet~;
#X obj 151 173 outlet~;
#X text 181 23 we've determined an exponent of 2.5 because we think
it produces quite a smooth dynamic range from ppp (at the center) to
fff (at the edges).;
#X obj 8 75 expr~ pow($v1 \, 2);
#X obj 166 75 expr~ pow($v1 \, 2);
#X connect 0 0 4 0;
#X connect 1 0 0 1;
#X connect 2 0 6 0;
#X connect 2 1 7 0;
#X connect 3 0 2 0;
#X connect 6 0 0 0;
#X connect 7 0 1 0;
#X restore 324 1034 pd lin2exp;
#X obj 325 832 r~ period.sequence.\$1;
#X obj 325 931 wrap~;
#X obj 325 973 *~ 8;
#X obj 333 952 s~ envelope.event.\$1;
#X obj 340 852 r~ envelope.event.\$1;
#X obj 340 871 dev.gen4 envelope;
#X obj 156 1079 *~;
#X obj 325 911 /~;
#X obj 171 1035 sig~;
#X obj 254 902 r env.int;
#X obj 171 950 spigot;
#X obj 194 885 t f f;
#X msg 171 972 \$1 100;
#X obj 250 961 delay 5;
#X msg 171 1101 \$1 5;
#X obj 171 1122 vline~;
#X obj 156 1143 *~;
#X obj 229 933 bang;
#X msg 219 961 0;
#X obj 250 982 f;
#X obj 250 1003 t b f;
#X obj 91 83 sig~ 1;
#X obj 135 98 /~ 8;
#X obj 120 119 /~;
#X obj 124 454 clip~ 0 5512.5;
#X obj 207 594 clip~ 0 5512.5;
#X obj 171 1056 expr~ if($v1 == 1 \, $v2 \, 1);
#X obj 75 62 mirror.walls 25 0;
#X msg 250 1030 0.4;
#X obj 325 993 tabread4~ waveform.\$1;
#X obj 156 1165 *~;
#X msg 217 1109 \$1 5;
#X obj 217 1130 vline~;
#X obj 217 1085 r outVol;
#X obj 242 282 dev.gen1 pitch.high;
#X obj 193 62 mirror.walls 8 1;
#X obj 195 680 mirror.walls 128 1;
#X obj 124 396 mirror.walls 112.791 0;
#X obj 207 534 mirror.walls 112.791 0;
#X obj 340 891 mirror.walls 8 0;
#X obj 75 42 dev.gen1 seq.freq;
#X obj 152 302 dev.gen1 pitch.low;
#X obj 165 1186 expr~ atan($v1);
#X obj 165 1206 *~ 0.63662;
#X obj 156 1228 dac~ \$2;
#X connect 0 0 1 0;
#X connect 1 0 8 0;
#X connect 2 0 21 0;
#X connect 3 0 4 0;
#X connect 4 0 5 0;
#X connect 5 0 13 0;
#X connect 5 0 38 0;
#X connect 5 0 40 1;
#X connect 6 0 86 0;
#X connect 7 0 17 0;
#X connect 8 0 6 0;
#X connect 9 0 8 1;
#X connect 10 0 20 1;
#X connect 12 0 13 1;
#X connect 13 0 85 0;
#X connect 14 0 15 0;
#X connect 16 0 89 0;
#X connect 17 0 0 0;
#X connect 18 0 83 0;
#X connect 18 0 90 0;
#X connect 19 0 36 0;
#X connect 20 0 30 0;
#X connect 21 0 73 0;
#X connect 23 0 24 0;
#X connect 24 0 74 0;
#X connect 25 0 44 0;
#X connect 26 0 25 0;
#X connect 27 0 55 0;
#X connect 28 0 27 1;
#X connect 29 0 33 0;
#X connect 30 0 7 0;
#X connect 30 0 14 0;
#X connect 30 0 32 0;
#X connect 31 0 20 0;
#X connect 33 0 84 0;
#X connect 34 0 36 1;
#X connect 36 0 87 0;
#X connect 37 0 40 2;
#X connect 38 0 46 0;
#X connect 40 0 27 0;
#X connect 41 0 40 0;
#X connect 43 0 60 0;
#X connect 44 0 59 0;
#X connect 45 0 44 0;
#X connect 46 0 41 0;
#X connect 47 0 48 0;
#X connect 48 0 75 1;
#X connect 49 0 56 0;
#X connect 50 0 51 0;
#X connect 50 0 52 0;
#X connect 51 0 78 0;
#X connect 53 0 54 0;
#X connect 54 0 88 0;
#X connect 55 0 65 0;
#X connect 56 0 50 0;
#X connect 57 0 75 0;
#X connect 58 0 66 0;
#X connect 58 0 68 1;
#X connect 59 0 61 0;
#X connect 60 0 45 0;
#X connect 60 1 59 1;
#X connect 60 1 61 0;
#X connect 61 0 28 0;
#X connect 62 0 68 0;
#X connect 63 0 64 0;
#X connect 64 0 65 1;
#X connect 65 0 79 0;
#X connect 66 0 67 0;
#X connect 66 0 62 0;
#X connect 67 0 63 0;
#X connect 68 0 69 0;
#X connect 69 0 77 0;
#X connect 69 1 57 0;
#X connect 70 0 72 0;
#X connect 71 0 72 1;
#X connect 72 0 31 1;
#X connect 73 0 5 1;
#X connect 74 0 5 2;
#X connect 74 0 35 0;
#X connect 75 0 55 1;
#X connect 76 0 31 0;
#X connect 77 0 63 0;
#X connect 78 0 47 0;
#X connect 79 0 93 0;
#X connect 80 0 81 0;
#X connect 81 0 79 1;
#X connect 82 0 80 0;
#X connect 83 0 9 0;
#X connect 84 0 30 1;
#X connect 84 0 71 0;
#X connect 85 0 11 0;
#X connect 85 0 38 1;
#X connect 86 0 2 0;
#X connect 87 0 23 0;
#X connect 88 0 56 1;
#X connect 89 0 76 0;
#X connect 90 0 6 1;
#X connect 90 1 9 1;
#X connect 91 0 92 0;
