#N canvas 729 65 268 442 10;
#X obj -29 13 gemhead;
#X obj 108 331 sel 1 0;
#X msg 108 380 draw fill;
#X msg 127 355 draw line;
#X obj -29 331 translateXYZ 0 0 0;
#X obj 57 77 unpack;
#X obj 71 40 route pos out;
#X obj 12 224 *;
#X obj 27 204 r pixXstep;
#X obj 27 254 r minX;
#X obj 12 274 +;
#X obj 122 224 *;
#X obj 122 274 +;
#X obj 137 205 r pixYstep;
#X obj 137 255 r minY;
#X obj 71 17 netreceive \$1;
#X obj 122 136 - 800;
#X obj 122 157 abs;
#X obj -29 39 color 0 0 0;
#X obj 122 179 - 127;
#X obj 96 406 rectangle 0.04 0.06;
#X obj -15 128 loadbang;
#X msg -15 151 -1000;
#X connect 0 0 18 0;
#X connect 1 0 2 0;
#X connect 1 1 3 0;
#X connect 2 0 20 0;
#X connect 3 0 20 0;
#X connect 4 0 20 0;
#X connect 5 0 16 0;
#X connect 5 1 7 0;
#X connect 6 0 5 0;
#X connect 6 1 1 0;
#X connect 7 0 10 0;
#X connect 8 0 7 1;
#X connect 9 0 10 1;
#X connect 10 0 4 1;
#X connect 11 0 12 0;
#X connect 12 0 4 2;
#X connect 13 0 11 1;
#X connect 14 0 12 1;
#X connect 15 0 6 0;
#X connect 16 0 17 0;
#X connect 17 0 19 0;
#X connect 18 0 4 0;
#X connect 19 0 11 0;
#X connect 21 0 22 0;
#X connect 22 0 4 1;
