#N canvas 398 -753 303 453 10;
#X obj 28 7 gemhead;
#X obj 165 332 sel 1 0;
#X msg 165 381 draw fill;
#X msg 184 356 draw line;
#X obj 28 332 translateXYZ 0 0 0;
#X obj 69 175 *;
#X obj 84 155 r pixXstep;
#X obj 84 205 r minX;
#X obj 69 225 +;
#X obj 179 225 *;
#X obj 179 275 +;
#X obj 194 205 r pixYstep;
#X obj 194 254 r minY;
#X obj 179 117 - 800;
#X obj 179 141 abs;
#X obj 165 308 r out;
#X obj 114 66 r position;
#X obj 114 88 unpack;
#X obj 179 167 - 127;
#X obj 28 33 color 0 0 0;
#X obj 153 407 rectangle 0.04 0.06;
#X connect 0 0 19 0;
#X connect 1 0 2 0;
#X connect 1 1 3 0;
#X connect 2 0 20 0;
#X connect 3 0 20 0;
#X connect 4 0 20 0;
#X connect 5 0 8 0;
#X connect 6 0 5 1;
#X connect 7 0 8 1;
#X connect 8 0 4 1;
#X connect 9 0 10 0;
#X connect 10 0 4 2;
#X connect 11 0 9 1;
#X connect 12 0 10 1;
#X connect 13 0 14 0;
#X connect 14 0 18 0;
#X connect 15 0 1 0;
#X connect 16 0 17 0;
#X connect 17 0 13 0;
#X connect 17 1 5 0;
#X connect 18 0 9 0;
#X connect 19 0 4 0;
