#N canvas 0 22 520 339 10;
#X msg 84 158 disconnect;
#X obj 84 292 tgl 15 0 empty empty empty 17 7 0 10 -262144 -1 -1 0
1;
#X msg 21 81 send pos \$1 \$2;
#X msg 31 125 send out \$1;
#X obj 21 227 spigot;
#X msg 163 168 0;
#X msg 192 168 1;
#X obj 21 59 r position;
#X obj 31 103 r out;
#X obj 172 44 loadbang;
#X obj 163 21 r conn_\$1;
#X obj 163 117 sel 0 1;
#X obj 192 145 t b b;
#X msg 172 74 0;
#X obj 250 90 r ip_\$1;
#X obj 229 184 list;
#X msg 229 208 connect \$1 \$2;
#X obj 84 271 netsend;
#X obj 272 275 PRINT;
#X obj 300 90 r port_\$1;
#X obj 300 114 t b f;
#X obj 250 157 pack s f;
#X obj 321 184 t b;
#X obj 321 230 s load_conn_\$1;
#X msg 321 208 0;
#X connect 0 0 17 0;
#X connect 2 0 4 0;
#X connect 3 0 4 0;
#X connect 4 0 17 0;
#X connect 5 0 4 1;
#X connect 6 0 4 1;
#X connect 7 0 2 0;
#X connect 8 0 3 0;
#X connect 9 0 13 0;
#X connect 10 0 11 0;
#X connect 11 0 0 0;
#X connect 11 0 5 0;
#X connect 11 1 12 0;
#X connect 12 0 6 0;
#X connect 12 1 15 0;
#X connect 13 0 11 0;
#X connect 14 0 21 0;
#X connect 15 0 16 0;
#X connect 16 0 17 0;
#X connect 16 0 18 0;
#X connect 17 0 1 0;
#X connect 19 0 20 0;
#X connect 20 0 21 0;
#X connect 20 1 21 1;
#X connect 21 0 15 1;
#X connect 21 0 22 0;
#X connect 22 0 24 0;
#X connect 24 0 23 0;
