#N canvas 769 74 450 300 10;
#X declare -stdlib py;
#X obj 8 14 declare -stdlib py;
#X obj 253 256 print;
#X msg 149 144 set get_pc;
#X msg 233 171 3;
#X obj 166 226 py bassl;
#X connect 2 0 4 0;
#X connect 3 0 4 1;
#X connect 4 0 1 0;
