#N canvas 246 22 691 679 10;
#X obj 20 286 s fundamental;
#X obj 19 245 mtof;
#X obj 20 103 bng 15 250 50 0 empty empty 1-solo-evento 17 7 0 12 -262144
-1 -1;
#X obj 363 540 catch~ sumaOsciladores;
#X obj 336 591 dac~;
#X obj 347 333 vsl 15 100 0 100 0 0 empty empty vol. 0 -9 0 10 -262144
-1 -1 8000 1;
#X obj 348 480 line~;
#X obj 348 440 dbtorms;
#X msg 348 460 \$1 30;
#X obj 348 561 *~;
#X obj 246 65 vsl 15 100 0.01 1 0 1 p1g r-p1g 1 0 -9 0 10 -262144 -1
-1 4800 1;
#X obj 261 65 vsl 15 100 0.01 1 0 1 p2g r-p2g 2 0 -9 0 10 -262144 -1
-1 7600 1;
#X obj 276 65 vsl 15 100 0.01 1 0 1 p3g r-p3g 3 0 -9 0 10 -262144 -1
-1 3300 1;
#X obj 291 65 vsl 15 100 0.01 1 0 1 p4g r-p4g 4 0 -9 0 10 -262144 -1
-1 5900 1;
#X obj 306 65 vsl 15 100 0.01 1 0 1 p5g r-p5g 5 0 -9 0 10 -262144 -1
-1 4900 1;
#X obj 321 65 vsl 15 100 0.01 1 0 1 p6g r-p6g 6 0 -9 0 10 -262144 -1
-1 900 1;
#X obj 336 65 vsl 15 100 0.01 1 0 1 p7g r-p7g 7 0 -9 0 10 -262144 -1
-1 7900 1;
#X obj 351 65 vsl 15 100 0.01 1 0 1 p8g r-p8g 8 0 -9 0 10 -262144 -1
-1 2900 1;
#X obj 366 65 vsl 15 100 0.01 1 0 1 p9g r-p9g 9 0 -9 0 10 -262144 -1
-1 0 1;
#X obj 381 65 vsl 15 100 0.01 1 0 1 p10g r-p10g 10 0 -9 0 10 -262144
-1 -1 2900 1;
#X text 319 176 maximos de cada parcial.;
#X obj 38 591 s duracion;
#X obj 402 112 bng 15 250 50 0 empty empty empty 17 7 0 10 -262144
-1 -1;
#X obj 403 131 s reordenar;
#N canvas 0 22 941 138 reordenacionParciales 0;
#X obj 7 9 r reordenar;
#X obj 7 69 s r-p1g;
#X obj 7 29 random 11;
#X obj 97 9 r reordenar;
#X obj 97 29 random 11;
#X obj 187 9 r reordenar;
#X obj 187 29 random 11;
#X obj 277 9 r reordenar;
#X obj 277 29 random 11;
#X obj 367 9 r reordenar;
#X obj 367 29 random 11;
#X obj 637 9 r reordenar;
#X obj 637 29 random 11;
#X obj 727 9 r reordenar;
#X obj 727 29 random 11;
#X obj 817 9 r reordenar;
#X obj 817 29 random 11;
#X obj 817 69 s r-p10g;
#X obj 727 69 s r-p9g;
#X obj 637 69 s r-p8g;
#X obj 457 9 r reordenar;
#X obj 457 29 random 11;
#X obj 547 9 r reordenar;
#X obj 547 29 random 11;
#X obj 547 69 s r-p7g;
#X obj 457 69 s r-p6g;
#X obj 367 69 s r-p5g;
#X obj 277 69 s r-p4g;
#X obj 187 69 s r-p3g;
#X obj 97 69 s r-p2g;
#X obj 817 49 / 10;
#X obj 727 49 / 10;
#X obj 637 49 / 10;
#X obj 547 49 / 10;
#X obj 457 49 / 10;
#X obj 367 49 / 10;
#X obj 277 49 / 10;
#X obj 187 49 / 10;
#X obj 97 49 / 10;
#X obj 7 49 / 10;
#X connect 0 0 2 0;
#X connect 2 0 39 0;
#X connect 3 0 4 0;
#X connect 4 0 38 0;
#X connect 5 0 6 0;
#X connect 6 0 37 0;
#X connect 7 0 8 0;
#X connect 8 0 36 0;
#X connect 9 0 10 0;
#X connect 10 0 35 0;
#X connect 11 0 12 0;
#X connect 12 0 32 0;
#X connect 13 0 14 0;
#X connect 14 0 31 0;
#X connect 15 0 16 0;
#X connect 16 0 30 0;
#X connect 20 0 21 0;
#X connect 21 0 34 0;
#X connect 22 0 23 0;
#X connect 23 0 33 0;
#X connect 30 0 17 0;
#X connect 31 0 18 0;
#X connect 32 0 19 0;
#X connect 33 0 24 0;
#X connect 34 0 25 0;
#X connect 35 0 26 0;
#X connect 36 0 27 0;
#X connect 37 0 28 0;
#X connect 38 0 29 0;
#X connect 39 0 1 0;
#X restore 403 151 pd reordenacionParciales;
#X obj 19 205 + 36;
#X obj 348 521 *~;
#X obj 403 93 spigot;
#X obj 436 73 tgl 15 0 empty empty empty 17 7 0 10 -262144 -1 -1 0
1;
#X text 455 72 cambiar espectro en cada evento;
#X obj 21 61 tgl 15 0 empty empty melodia_on/off 0 -9 0 12 -262144
-1 -1 0 1;
#X obj 78 61 r duracion;
#X obj 19 184 random 24;
#X obj 38 529 pow;
#X obj 24 488 t b f;
#X msg 24 509 2;
#X obj 38 549 * 1000;
#X obj 23 424 random 6;
#X obj 24 446 - 3;
#X obj 23 405 bng 15 250 50 0 empty empty empty 17 7 0 10 -262144 -1
-1;
#X obj 69 366 tgl 15 0 empty empty empty 17 7 0 10 -262144 -1 -1 0
1;
#X text 87 364 cambiar duracion en cada evento;
#X floatatom 77 531 5 0 0 1 duracion_base - -;
#X obj 25 618 loadbang;
#X text 96 631 esto es para computar audio automaticamente \, sin tener
que ir al terminal y pulsar "compute audio";
#X obj 21 82 metro 1000;
#X floatatom 27 227 5 0 0 1 fundamental_en_MIDI - -;
#X floatatom 27 267 10 0 0 1 fundamental_en_Hz - -;
#N canvas 1 462 284 348 envolvente 0;
#X obj 115 27 r duracion;
#X obj 75 50 random;
#X obj 93 71 r duracion;
#X obj 75 91 -;
#X obj 75 111 abs;
#X text 123 49 tiempo de ataque;
#X text 102 111 tiempo de decay;
#X obj 18 275 line~;
#X obj 19 98 f;
#X obj 31 182 delay;
#X msg 58 241 0 \$1;
#X obj 57 220 f;
#X obj 43 30 t b b;
#X msg 19 231 1 \$1;
#X obj 18 297 outlet~;
#X obj 43 7 r trigger2;
#X connect 0 0 1 1;
#X connect 1 0 3 0;
#X connect 1 0 8 1;
#X connect 2 0 3 1;
#X connect 3 0 4 0;
#X connect 4 0 11 1;
#X connect 7 0 14 0;
#X connect 8 0 13 0;
#X connect 8 0 9 0;
#X connect 9 0 11 0;
#X connect 10 0 7 0;
#X connect 11 0 10 0;
#X connect 12 0 8 0;
#X connect 12 1 1 0;
#X connect 13 0 7 0;
#X connect 15 0 12 0;
#X restore 363 501 pd envolvente;
#X text 23 327 DURACION/TIEMPO;
#X text 519 299 OSCILADORES;
#X text 306 297 OUTPUT (VOLUMEN);
#X text 19 25 FUNDAMENTALES/MELODIA;
#X floatatom 45 572 6 0 0 1 duracion - -;
#X obj 58 143 s trigger1;
#X obj 38 164 s trigger2;
#X msg 25 640 \; pd dsp 1;
#X obj 403 52 r trigger1;
#X obj 24 345 r trigger1;
#X obj 19 123 t b b b;
#X text 366 21 ESPECTRO/TIMBRE;
#X text 55 246 NUMEROS MIDI A FRECUENCIAS.;
#X floatatom 31 468 5 0 0 0 - - -;
#X obj 474 362 oscilador 5;
#X obj 564 382 oscilador 8;
#X obj 474 322 oscilador 1;
#X obj 474 382 oscilador 7;
#X obj 564 342 oscilador 4;
#X obj 564 362 oscilador 6;
#X obj 474 402 oscilador 9;
#X obj 564 322 oscilador 2;
#X obj 474 342 oscilador 3;
#X obj 564 402 oscilador 10;
#X obj 24 386 spigot 1;
#X connect 1 0 0 0;
#X connect 1 0 47 0;
#X connect 2 0 59 0;
#X connect 3 0 9 1;
#X connect 5 0 7 0;
#X connect 6 0 26 0;
#X connect 7 0 8 0;
#X connect 8 0 6 0;
#X connect 9 0 4 1;
#X connect 9 0 4 0;
#X connect 22 0 23 0;
#X connect 25 0 1 0;
#X connect 25 0 46 0;
#X connect 26 0 9 0;
#X connect 27 0 22 0;
#X connect 28 0 27 1;
#X connect 30 0 45 0;
#X connect 31 0 45 1;
#X connect 32 0 25 0;
#X connect 33 0 36 0;
#X connect 34 0 35 0;
#X connect 34 1 33 1;
#X connect 35 0 33 0;
#X connect 36 0 21 0;
#X connect 36 0 53 0;
#X connect 37 0 38 0;
#X connect 38 0 34 0;
#X connect 38 0 62 0;
#X connect 39 0 37 0;
#X connect 40 0 73 1;
#X connect 42 0 36 1;
#X connect 43 0 56 0;
#X connect 45 0 2 0;
#X connect 48 0 26 1;
#X connect 57 0 27 0;
#X connect 58 0 73 0;
#X connect 59 0 32 0;
#X connect 59 1 55 0;
#X connect 59 2 54 0;
#X connect 73 0 39 0;
