#N canvas 1866 499 524 231 10;
#X obj 4 8 cnv 15 210 148 empty empty empty 20 12 0 14 #e0e0e0 #404040 0;
#X text 8 12 args:;
#X text 6 53 2 partial number;
#X text 6 33 1 ID;
#X text 6 73 3 frequency variation range (Hz.);
#X text 6 93 4 relative amplitude;
#X text 6 113 5 amplitude variation range (dB.);
#X floatatom 222 11 5 0 0 0 - \$0-fundamental_p \$0-fundamental 0;
#X text 257 31 number of partials;
#X floatatom 222 30 5 0 0 0 - \$0-numPartials_p \$0-numPartials 0;
#X floatatom 222 49 5 0 0 0 - \$0-maxPartials_p \$0-maxPartials 0;
#X floatatom 222 68 5 0 0 0 - \$0-mfd_p \$0-mfd 0;
#X floatatom 222 87 5 0 0 2 - \$0-pad_p \$0-pad 0;
#X floatatom 222 106 5 0 0 0 - \$0-arad_p \$0-arad 0;
#X obj 222 126 bng 30 250 50 0 \$0-create empty empty 17 7 0 10 #fcfcfc #000000 #000000;
#X text 257 130 create!;
#X text 257 50 highest partial;
#X text 257 107 average relative amplitude deviation (dB);
#X text 257 69 max frequency deviation (Hz);
#X text 257 88 partial/amplitude deviation range;
#N canvas 804 25 564 665 creation 1;
#X obj 16 139 until;
#X obj 39 162 f 0;
#X obj 65 161 + 1;
#X msg 54 139 0;
#X msg 46 576 clear;
#X obj 35 116 t f b b;
#X obj 39 185 * 25;
#X obj 39 205 + 25;
#X obj 39 598 s pd-overtones;
#N canvas -1202 613 327 752 overtones 0;
#X obj 25 25 a.overtone 1003 74 3.22654 0 0;
#X obj 25 50 a.overtone 1003 21 2.33089 0 0;
#X obj 25 75 a.overtone 1003 5 3.33906 0 0;
#X obj 25 100 a.overtone 1003 21 3.83734 0 0;
#X obj 25 125 a.overtone 1003 9 2.25818 0 0;
#X obj 25 150 a.overtone 1003 5 1.98845 0 0;
#X obj 25 175 a.overtone 1003 50 0.220211 0 0;
#X obj 25 200 a.overtone 1003 6 0.732604 0 0;
#X obj 25 225 a.overtone 1003 58 0.889615 0 0;
#X obj 25 250 a.overtone 1003 50 2.78504 0 0;
#X obj 25 275 a.overtone 1003 9 2.61621 0 0;
#X obj 25 300 a.overtone 1003 12 1.57862 0 0;
#X obj 25 325 a.overtone 1003 63 0.574247 0 0;
#X obj 25 350 a.overtone 1003 28 0.517845 0 0;
#X obj 25 375 a.overtone 1003 4 2.15139 0 0;
#X obj 25 400 a.overtone 1003 9 2.66369 0 0;
#X obj 25 425 a.overtone 1003 82 1.9997 0 0;
#X obj 25 450 a.overtone 1003 78 2.43318 0 0;
#X obj 25 475 a.overtone 1003 2 1.49159 0 0;
#X obj 25 500 a.overtone 1003 24 0.779984 0 0;
#X obj 25 525 a.overtone 1003 16 1.73677 0 0;
#X obj 25 550 a.overtone 1003 77 2.63568 0 0;
#X obj 25 575 a.overtone 1003 43 0.258264 0 0;
#X obj 25 600 a.overtone 1003 82 3.11148 0 0;
#X obj 25 625 a.overtone 1003 13 0.154826 0 0;
#X obj 25 650 a.overtone 1003 89 3.66807 0 0;
#X obj 25 675 a.overtone 1003 57 0.0479543 0 0;
#X obj 25 700 a.overtone 1003 23 1.56688 0 0;
#X obj 25 725 a.overtone 1003 51 2.26591 0 0;
#X obj 25 750 a.overtone 1003 8 1.17867 0 0;
#X obj 25 775 a.overtone 1003 87 1.82237 0 0;
#X obj 25 800 a.overtone 1003 2 0.321386 0 0;
#X obj 25 825 a.overtone 1003 31 1.96813 0 0;
#X obj 25 850 a.overtone 1003 59 0.396369 0 0;
#X obj 25 875 a.overtone 1003 26 1.5996 0 0;
#X obj 25 900 a.overtone 1003 12 1.43945 0 0;
#X obj 25 925 a.overtone 1003 57 2.31733 0 0;
#X obj 25 950 a.overtone 1003 22 0.786517 0 0;
#X obj 25 975 a.overtone 1003 78 0.396214 0 0;
#X obj 25 1000 a.overtone 1003 51 3.67649 0 0;
#X obj 25 1025 a.overtone 1003 14 2.43466 0 0;
#X obj 25 1050 a.overtone 1003 64 2.58572 0 0;
#X obj 25 1075 a.overtone 1003 6 1.19294 0 0;
#X obj 25 1100 a.overtone 1003 16 0.58926 0 0;
#X obj 25 1125 a.overtone 1003 55 0.510693 0 0;
#X obj 25 1150 a.overtone 1003 52 3.55502 0 0;
#X obj 25 1175 a.overtone 1003 9 0.704877 0 0;
#X obj 25 1200 a.overtone 1003 49 1.40622 0 0;
#X obj 25 1225 a.overtone 1003 75 1.76868 0 0;
#X obj 25 1250 a.overtone 1003 19 0.134664 0 0;
#X obj 25 1275 a.overtone 1003 35 1.34214 0 0;
#X obj 25 1300 a.overtone 1003 14 2.87095 0 0;
#X obj 25 1325 a.overtone 1003 41 1.17484 0 0;
#X obj 25 1350 a.overtone 1003 11 0.897153 0 0;
#X obj 25 1375 a.overtone 1003 17 3.59927 0 0;
#X obj 25 1400 a.overtone 1003 59 1.59125 0 0;
#X obj 25 1425 a.overtone 1003 7 1.15858 0 0;
#X obj 25 1450 a.overtone 1003 28 0.66313 0 0;
#X obj 25 1475 a.overtone 1003 5 4.19817 0 0;
#X obj 25 1500 a.overtone 1003 26 2.04698 0 0;
#X restore 39 618 pd overtones;
#X obj 35 91 f;
#X obj 50 68 r \$0-numPartials;
#X obj 39 226 t f b;
#X obj 81 274 r \$0-maxPartials;
#X obj 66 297 *;
#X obj 66 320 int;
#X text 167 241 distribucion lineal que saca más números cercanos al limite inferior;
#X obj 66 342 + 1;
#X obj 84 139 s \$0-clear;
#X obj 46 554 r \$0-clear;
#X obj 35 26 r \$0-create;
#X obj 195 332 r \$0-pad;
#X obj 39 512 pack f \$0 0 f f f;
#X obj 66 363 t f b b f;
#X obj 83 439 *;
#X obj 98 416 r \$0-mfd;
#X obj 271 464 r \$0-arad;
#X obj 256 487 *;
#X obj 182 416 t f b;
#X obj 182 389 abs;
#X obj 84 116 loadbang;
#X obj 35 47 delay 50;
#X msg 39 534 obj 25 \$1 a.overtone \$2 \$3 \$4 \$5 \$6;
#X obj 66 249 maxlib/linear;
#X obj 83 393 maxlib/linear;
#X obj 209 441 maxlib/linear;
#X obj 182 364 maxlib/gauss;
#X connect 0 0 1 0 empty;
#X connect 1 0 2 0 empty;
#X connect 1 0 6 0 empty;
#X connect 2 0 1 1 empty;
#X connect 3 0 1 1 empty;
#X connect 4 0 8 0 empty;
#X connect 5 0 0 0 empty;
#X connect 5 1 3 0 empty;
#X connect 5 2 18 0 empty;
#X connect 6 0 7 0 empty;
#X connect 7 0 12 0 empty;
#X connect 10 0 5 0 empty;
#X connect 11 0 10 1 empty;
#X connect 12 0 22 0 empty;
#X connect 12 1 33 0 empty;
#X connect 13 0 14 1 empty;
#X connect 14 0 15 0 empty;
#X connect 15 0 17 0 empty;
#X connect 17 0 23 0 empty;
#X connect 19 0 4 0 empty;
#X connect 20 0 31 0 empty;
#X connect 21 0 36 1 empty;
#X connect 22 0 32 0 empty;
#X connect 23 0 22 2 empty;
#X connect 23 1 34 0 empty;
#X connect 23 2 36 0 empty;
#X connect 23 3 36 2 empty;
#X connect 24 0 22 3 empty;
#X connect 25 0 24 1 empty;
#X connect 26 0 27 1 empty;
#X connect 27 0 22 5 empty;
#X connect 28 0 22 4 empty;
#X connect 28 1 35 0 empty;
#X connect 29 0 28 0 empty;
#X connect 30 0 18 0 empty;
#X connect 31 0 10 0 empty;
#X connect 32 0 8 0 empty;
#X connect 33 0 14 0 empty;
#X connect 34 0 24 0 empty;
#X connect 35 0 27 0 empty;
#X connect 36 0 29 0 empty;
#X restore 66 206 pd creation;
#N canvas 0 25 1101 439 patch 0;
#X obj 567 64 bng 15 250 50 0 empty empty empty 17 7 0 10 #fcfcfc #000000 #000000;
#X obj 567 83 f \$0;
#X msg 567 104 \; \$1-fundamental_p 33 \; \$1-numPartials_p 60 \; \$1-maxPartials_p 100 \; \$1-mfd_p 5 \; \$1-pad_p 4 \; \$1-arad_p 12;
#X obj 196 56 catch~ \$0-overtoneL;
#X obj 246 79 catch~ \$0-overtoneR;
#X obj 24 187 s \$0-fund;
#X obj 24 256 s \$0-loadbang;
#X obj 24 210 r \$0-create;
#X obj 39 142 r \$0-fundamental;
#X obj 24 163 f;
#X obj 24 91 r \$0-create;
#X obj 378 83 dbtorms;
#X obj 378 169 line~;
#X obj 246 201 *~;
#X obj 196 200 *~;
#X obj 378 61 inlet;
#X obj 567 41 loadbang;
#X obj 24 20 r \$0-create;
#X msg 24 42 0;
#X obj 24 65 s \$0-vol;
#X obj 385 125 loadbang;
#X msg 385 147 0;
#X msg 378 103 \$1 10;
#X obj 196 101 *~ 0.1;
#X obj 246 101 *~ 0.1;
#X obj 24 115 delay 200;
#X obj 24 232 delay 500;
#X obj 197 229 dac~ 1 2;
#X connect 0 0 1 0 empty;
#X connect 1 0 2 0 empty;
#X connect 3 0 23 0 empty;
#X connect 4 0 24 0 empty;
#X connect 7 0 26 0 empty;
#X connect 8 0 9 1 empty;
#X connect 9 0 5 0 empty;
#X connect 10 0 25 0 empty;
#X connect 11 0 22 0 empty;
#X connect 12 0 13 1 empty;
#X connect 12 0 14 1 empty;
#X connect 13 0 27 1 empty;
#X connect 14 0 27 0 empty;
#X connect 15 0 11 0 empty;
#X connect 16 0 0 0 empty;
#X connect 17 0 18 0 empty;
#X connect 18 0 19 0 empty;
#X connect 20 0 21 0 empty;
#X connect 21 0 12 0 empty;
#X connect 22 0 12 0 empty;
#X connect 23 0 14 0 empty;
#X connect 24 0 13 0 empty;
#X connect 25 0 9 0 empty;
#X connect 26 0 6 0 empty;
#X restore 4 206 pd patch;
#X obj 7 186 hsl 128 15 0 127 0 0 empty \$0-vol VOLUME 8 -8 0 10 #fcfcfc #000000 #000000 0 0;
#X text 335 181 angelfaraldo@gmail.com \, 2012;
#X text 257 10 fundamental (Hz);
#X connect 22 0 21 0 empty;
