#N canvas 1866 499 524 231 10;
#X declare -stdpath maxlib;
#X obj 4 8 cnv 15 210 148 empty empty empty 20 12 0 14 #e0e0e0 #404040
0;
#X text 8 12 args:;
#X text 6 53 2 partial number;
#X text 6 33 1 ID;
#X text 6 73 3 frequency variation range (Hz.);
#X text 6 93 4 relative amplitude;
#X text 6 113 5 amplitude variation range (dB.);
#X floatatom 222 11 5 0 0 0 - \$0-fundamental_p \$0-fundamental 0;
#X text 257 31 number of partials;
#X floatatom 222 30 5 0 0 0 - \$0-numPartials_p \$0-numPartials 0;
#X floatatom 222 49 5 0 0 0 - \$0-maxPartials_p \$0-maxPartials 0;
#X floatatom 222 68 5 0 0 0 - \$0-mfd_p \$0-mfd 0;
#X floatatom 222 87 5 0 0 2 - \$0-pad_p \$0-pad 0;
#X floatatom 222 106 5 0 0 0 - \$0-arad_p \$0-arad 0;
#X obj 222 126 bng 30 250 50 0 \$0-create empty empty 17 7 0 10 #fcfcfc
#000000 #000000;
#X text 257 130 create!;
#X text 257 50 highest partial;
#X text 257 107 average relative amplitude deviation (dB);
#X text 257 69 max frequency deviation (Hz);
#X text 257 88 partial/amplitude deviation range;
#N canvas 804 25 564 665 creation 0;
#X obj -28 131 until;
#X obj -5 154 f 0;
#X obj 21 153 + 1;
#X msg 10 131 0;
#X msg 2 568 clear;
#X obj -9 108 t f b b;
#X obj -5 177 * 25;
#X obj -5 197 + 25;
#X obj -5 590 s pd-overtones;
#N canvas -1202 613 327 752 overtones 0;
#X obj 25 25 a.overtone 1003 122 0.182771 117.003 1.98544;
#X obj 25 50 a.overtone 1003 318 0.0883512 320.617 3.25212;
#X obj 25 75 a.overtone 1003 217 0.355861 216.843 0.125581;
#X obj 25 100 a.overtone 1003 126 0.160606 123.521 5.09382;
#X obj 25 125 a.overtone 1003 61 0.0845588 64.8133 4.23022;
#X obj 25 150 a.overtone 1003 73 0.314282 79.6499 2.73865;
#X obj 25 175 a.overtone 1003 130 0.289752 125.983 5.80306;
#X obj 25 200 a.overtone 1003 9 0.219774 9.59001 6.12491;
#X obj 25 225 a.overtone 1003 146 0.0992293 146.862 1.62134;
#X obj 25 250 a.overtone 1003 176 0.00805552 169.322 5.54913;
#X obj 25 275 a.overtone 1003 220 0.185387 223.311 2.03578;
#X obj 25 300 a.overtone 1003 204 0.217105 198.8 7.71877;
#X obj 25 325 a.overtone 1003 346 0.146186 340.699 2.35826;
#X obj 25 350 a.overtone 1003 45 0.0486996 45.9004 1.27819;
#X obj 25 375 a.overtone 1003 109 0.192645 111.992 7.08018;
#X obj 25 400 a.overtone 1003 27 0.169317 22.0254 2.63057;
#X obj 25 425 a.overtone 1003 368 0.233936 367.082 2.77014;
#X obj 25 450 a.overtone 1003 236 0.0406808 230.485 2.64538;
#X obj 25 475 a.overtone 1003 1 0.363935 0.948322 2.71734;
#X obj 25 500 a.overtone 1003 72 0.282258 74.3088 4.76342;
#X obj 25 525 a.overtone 1003 406 0.208796 397.772 3.8287;
#X obj 25 550 a.overtone 1003 26 0.0976205 25.1694 8.81984;
#X obj 25 575 a.overtone 1003 117 0.0672271 112.362 2.70968;
#X obj 25 600 a.overtone 1003 97 0.0887725 99.5913 4.77145;
#X obj 25 625 a.overtone 1003 196 0.186224 193.509 5.45596;
#X obj 25 650 a.overtone 1003 275 0.122173 269.278 8.3008;
#X obj 25 675 a.overtone 1003 8 0.0506997 9.00934 2.64649;
#X obj 25 700 a.overtone 1003 111 0.22731 114.165 7.88029;
#X obj 25 725 a.overtone 1003 313 0.18321 317.81 1.10804;
#X obj 25 750 a.overtone 1003 215 0.391652 214.478 8.16216;
#X obj 25 775 a.overtone 1003 315 0.0592502 312.516 4.5656;
#X obj 25 800 a.overtone 1003 93 0.0630824 94.2415 0.638555;
#X obj 25 825 a.overtone 1003 264 0.119041 268.974 7.42422;
#X obj 25 850 a.overtone 1003 124 0.339645 128.425 0.65664;
#X obj 25 875 a.overtone 1003 26 0.165641 29.9966 3.60311;
#X obj 25 900 a.overtone 1003 276 0.0572426 271.771 3.80665;
#X obj 25 925 a.overtone 1003 77 0.116875 74.3177 5.3719;
#X obj 25 950 a.overtone 1003 318 0.281899 317.415 3.23917;
#X obj 25 975 a.overtone 1003 205 0.301335 208.941 2.13145;
#X obj 25 1000 a.overtone 1003 45 0.388286 41.3147 4.69149;
#X obj 25 1025 a.overtone 1003 292 0.259719 292.975 6.80268;
#X obj 25 1050 a.overtone 1003 104 0.166089 106.784 2.02701;
#X obj 25 1075 a.overtone 1003 68 0.140814 76.3617 6.49068;
#X obj 25 1100 a.overtone 1003 64 0.0173533 61.1051 4.74091;
#X obj 25 1125 a.overtone 1003 19 0.0107352 10.9765 8.47352;
#X obj 25 1150 a.overtone 1003 144 0.23281 149.434 9.34391;
#X obj 25 1175 a.overtone 1003 48 0.00546652 56.4552 2.83097;
#X obj 25 1200 a.overtone 1003 91 0.0171593 83.964 6.95213;
#X obj 25 1225 a.overtone 1003 318 0.249674 320.573 7.55165;
#X obj 25 1250 a.overtone 1003 30 0.149007 30.2027 3.266;
#X obj 25 1275 a.overtone 1003 41 0.0719318 46.937 3.41825;
#X obj 25 1300 a.overtone 1003 419 0.0417936 423.378 6.77489;
#X obj 25 1325 a.overtone 1003 112 0.14968 114.645 0.631533;
#X obj 25 1350 a.overtone 1003 221 0.188704 219.564 5.96222;
#X obj 25 1375 a.overtone 1003 55 0.177301 56.4367 1.8095;
#X obj 25 1400 a.overtone 1003 312 0.149237 308.794 0.0165466;
#X obj 25 1425 a.overtone 1003 161 0.0434438 164.947 3.31498;
#X obj 25 1450 a.overtone 1003 142 0.243696 144.853 7.36871;
#X obj 25 1475 a.overtone 1003 264 0.150408 263.412 9.51982;
#X obj 25 1500 a.overtone 1003 11 0.0958296 6.16785 1.79732;
#X restore -5 610 pd overtones;
#X obj -9 83 f;
#X obj 6 60 r \$0-numPartials;
#X obj -5 218 t f b;
#X obj 37 266 r \$0-maxPartials;
#X obj 22 241 linear;
#X obj 22 289 *;
#X obj 22 312 int;
#X text 65 236 distribucion lineal que saca más números cercanos
al limite inferior;
#X obj 22 334 + 1;
#X obj 40 131 s \$0-clear;
#X obj 2 546 r \$0-clear;
#X obj -9 18 r \$0-create;
#X obj 110 356 gauss;
#X obj 123 324 r \$0-pad;
#X obj -5 504 pack f \$0 0 f f f;
#X obj 22 355 t f b b f;
#X obj 39 431 *;
#X obj 54 408 r \$0-mfd;
#X obj 152 456 r \$0-arad;
#X obj 137 433 linear;
#X obj 137 479 *;
#X obj 110 408 t f b;
#X obj 39 385 linear;
#X obj 110 381 abs;
#X obj 40 108 loadbang;
#X obj -9 39 delay 50;
#X msg -5 526 obj 25 \$1 a.overtone \$2 \$3 \$4 \$5 \$6;
#X obj 236 109 declare -stdpath maxlib;
#X connect 0 0 1 0;
#X connect 1 0 2 0;
#X connect 1 0 6 0;
#X connect 2 0 1 1;
#X connect 3 0 1 1;
#X connect 4 0 8 0;
#X connect 5 0 0 0;
#X connect 5 1 3 0;
#X connect 5 2 19 0;
#X connect 6 0 7 0;
#X connect 7 0 12 0;
#X connect 10 0 5 0;
#X connect 11 0 10 1;
#X connect 12 0 24 0;
#X connect 12 1 14 0;
#X connect 13 0 15 1;
#X connect 14 0 15 0;
#X connect 15 0 16 0;
#X connect 16 0 18 0;
#X connect 18 0 25 0;
#X connect 20 0 4 0;
#X connect 21 0 35 0;
#X connect 22 0 33 0;
#X connect 23 0 22 1;
#X connect 24 0 36 0;
#X connect 25 0 24 2;
#X connect 25 1 32 0;
#X connect 25 2 22 0;
#X connect 25 3 22 2;
#X connect 26 0 24 3;
#X connect 27 0 26 1;
#X connect 28 0 30 1;
#X connect 29 0 30 0;
#X connect 30 0 24 5;
#X connect 31 0 24 4;
#X connect 31 1 29 0;
#X connect 32 0 26 0;
#X connect 33 0 31 0;
#X connect 34 0 19 0;
#X connect 35 0 10 0;
#X connect 36 0 8 0;
#X restore 66 206 pd creation;
#N canvas 0 25 1101 439 patch 0;
#X obj 567 64 bng 15 250 50 0 empty empty empty 17 7 0 10 #fcfcfc #000000
#000000;
#X obj 567 83 f \$0;
#X msg 567 104 \; \$1-fundamental_p 33 \; \$1-numPartials_p 60 \; \$1-maxPartials_p
100 \; \$1-mfd_p 5 \; \$1-pad_p 4 \; \$1-arad_p 12;
#X obj 196 56 catch~ \$0-overtoneL;
#X obj 246 79 catch~ \$0-overtoneR;
#X obj 24 187 s \$0-fund;
#X obj 24 256 s \$0-loadbang;
#X obj 24 210 r \$0-create;
#X obj 39 142 r \$0-fundamental;
#X obj 24 163 f;
#X obj 24 91 r \$0-create;
#X obj 378 83 dbtorms;
#X obj 378 169 line~;
#X obj 246 201 *~;
#X obj 196 200 *~;
#X obj 378 61 inlet;
#X obj 567 41 loadbang;
#X obj 24 20 r \$0-create;
#X msg 24 42 0;
#X obj 24 65 s \$0-vol;
#X obj 385 125 loadbang;
#X msg 385 147 0;
#X msg 378 103 \$1 10;
#X obj 196 101 *~ 0.1;
#X obj 246 101 *~ 0.1;
#X obj 24 115 delay 200;
#X obj 24 232 delay 500;
#X obj 197 229 dac~ 1 2;
#X connect 0 0 1 0;
#X connect 1 0 2 0;
#X connect 3 0 23 0;
#X connect 4 0 24 0;
#X connect 7 0 26 0;
#X connect 8 0 9 1;
#X connect 9 0 5 0;
#X connect 10 0 25 0;
#X connect 11 0 22 0;
#X connect 12 0 13 1;
#X connect 12 0 14 1;
#X connect 13 0 27 1;
#X connect 14 0 27 0;
#X connect 15 0 11 0;
#X connect 16 0 0 0;
#X connect 17 0 18 0;
#X connect 18 0 19 0;
#X connect 20 0 21 0;
#X connect 21 0 12 0;
#X connect 22 0 12 0;
#X connect 23 0 14 0;
#X connect 24 0 13 0;
#X connect 25 0 9 0;
#X connect 26 0 6 0;
#X restore 4 206 pd patch;
#X obj 7 186 hsl 128 15 0 127 0 0 empty \$0-vol VOLUME 8 -8 0 10 #fcfcfc
#000000 #000000 0 0;
#X text 335 181 angelfaraldo@gmail.com \, 2012;
#X text 257 10 fundamental (Hz);
#X msg 184 183 100;
#X obj 256 169 delay 1000;
#X connect 14 0 26 0;
#X connect 22 0 21 0;
#X connect 25 0 22 0;
#X connect 26 0 25 0;
