#N canvas 735 25 298 256 10;
#X floatatom 3 -10 5 0 0 0 - \$0-fundamental_p \$0-fundamental 0;
#X text 38 -11 fundamental;
#X text 38 10 number of partials;
#X floatatom 3 9 5 0 0 0 - \$0-numPartials_p \$0-numPartials 0;
#X floatatom 3 28 5 0 0 0 - \$0-maxPartials_p \$0-maxPartials 0;
#X floatatom 3 47 5 0 0 0 - \$0-mfd_p \$0-mfd 0;
#X floatatom 3 66 5 0 0 2 - \$0-pad_p \$0-pad 0;
#X floatatom 3 85 5 0 0 0 - \$0-arad_p \$0-arad 0;
#X obj 3 105 bng 30 250 50 0 \$0-create empty empty 17 7 0 10 #fcfcfc #000000 #000000;
#X text 38 109 create!;
#X text 38 29 highest partial;
#X text 38 86 average relative amplitude deviation (dB);
#X text 38 48 max frequency deviation (Hz);
#X text 38 67 partial/amplitude deviation range;
#N canvas 375 25 564 643 creation 1;
#X obj 19 129 until;
#X obj 42 152 f 0;
#X obj 68 151 + 1;
#X msg 57 129 0;
#X msg 49 566 clear;
#X obj 38 106 t f b b;
#X obj 42 175 * 25;
#X obj 42 195 + 25;
#X obj 42 588 s pd-overtones;
#N canvas 913 25 327 752 overtones 1;
#X restore 42 608 pd overtones;
#X obj 38 81 f;
#X obj 53 58 r \$0-numPartials;
#X obj 42 216 t f b;
#X obj 84 264 r \$0-maxPartials;
#X obj 69 239 linear;
#X obj 69 287 *;
#X obj 69 310 int;
#X text 122 224 distribucion lineal que saca más números cercanos al limite inferior;
#X obj 69 332 + 1;
#X obj 87 129 s \$0-clear;
#X obj 49 544 r \$0-clear;
#X obj 38 15 r \$0-create;
#X obj 157 354 gauss;
#X obj 170 322 r \$0-pad;
#X obj 42 502 pack f \$0 0 f f f;
#X obj 69 353 t f b b f;
#X obj 86 429 *;
#X obj 101 406 r \$0-mfd;
#X obj 199 454 r \$0-arad;
#X obj 184 431 linear;
#X obj 184 477 *;
#X obj 157 406 t f b;
#X obj 86 383 linear;
#X obj 157 379 abs;
#X obj 87 106 loadbang;
#X obj 38 37 delay 50;
#X msg 42 524 obj 25 \$1 a.overtone4 \$2 \$3 \$4 \$5 \$6;
#X connect 0 0 1 0;
#X connect 1 0 2 0;
#X connect 1 0 6 0;
#X connect 2 0 1 1;
#X connect 3 0 1 1;
#X connect 4 0 8 0;
#X connect 5 0 0 0;
#X connect 5 1 3 0;
#X connect 5 2 19 0;
#X connect 6 0 7 0;
#X connect 7 0 12 0;
#X connect 10 0 5 0;
#X connect 11 0 10 1;
#X connect 12 0 24 0;
#X connect 12 1 14 0;
#X connect 13 0 15 1;
#X connect 14 0 15 0;
#X connect 15 0 16 0;
#X connect 16 0 18 0;
#X connect 18 0 25 0;
#X connect 20 0 4 0;
#X connect 21 0 35 0;
#X connect 22 0 33 0;
#X connect 23 0 22 1;
#X connect 24 0 36 0;
#X connect 25 0 24 2;
#X connect 25 1 32 0;
#X connect 25 2 22 0;
#X connect 25 3 22 2;
#X connect 26 0 24 3;
#X connect 27 0 26 1;
#X connect 28 0 30 1;
#X connect 29 0 30 0;
#X connect 30 0 24 5;
#X connect 31 0 24 4;
#X connect 31 1 29 0;
#X connect 32 0 26 0;
#X connect 33 0 31 0;
#X connect 34 0 19 0;
#X connect 35 0 10 0;
#X connect 36 0 8 0;
#X restore 65 187 pd creation;
#N canvas 46 46 717 282 patch 0;
#X obj 363 -35 bng 15 250 50 0 empty empty empty 17 7 0 10 #fcfcfc #000000 #000000;
#X obj 363 -16 f \$0;
#X msg 363 5 \; \$1-fundamental_p 33 \; \$1-numPartials_p 60 \; \$1-maxPartials_p 100 \; \$1-mfd_p 5 \; \$1-pad_p 4 \; \$1-arad_p 12;
#X obj -171 90 s \$0-fund;
#X obj -171 159 s \$0-loadbang;
#X obj -171 113 r \$0-create;
#X obj -156 45 r \$0-fundamental;
#X obj -171 66 f;
#X obj -171 -6 r \$0-create;
#X obj 283 -34 dbtorms;
#X obj 283 52 line~;
#X obj 31 84 *~;
#X obj -29 83 *~;
#X obj 283 -56 inlet;
#X obj 363 -58 loadbang;
#X obj -171 -77 r \$0-create;
#X msg -171 -55 0;
#X obj -171 -32 s \$0-vol;
#X obj 290 8 loadbang;
#X msg 290 30 0;
#X msg 283 -14 \$1 10;
#X obj -29 40 *~ 0.1;
#X obj 31 40 *~ 0.1;
#X obj -171 18 delay 200;
#X obj -171 135 delay 500;
#X obj -29 105 dac~ 1;
#X obj 31 105 dac~ 2;
#X obj 91 84 *~;
#X obj 91 40 *~ 0.1;
#X obj 91 105 dac~ 3;
#X obj 151 84 *~;
#X obj 151 41 *~ 0.1;
#X obj 151 105 dac~ 4;
#X obj -29 -61 catch~ \$0-overtone1;
#X obj 31 -38 catch~ \$0-overtone2;
#X obj 91 -14 catch~ \$0-overtone3;
#X obj 151 9 catch~ \$0-overtone4;
#X obj -108 139 bng 15 250 50 0 empty empty empty 17 7 0 10 #fcfcfc #000000 #000000;
#X connect 0 0 1 0;
#X connect 1 0 2 0;
#X connect 5 0 24 0;
#X connect 6 0 7 1;
#X connect 7 0 3 0;
#X connect 8 0 23 0;
#X connect 9 0 20 0;
#X connect 10 0 11 1;
#X connect 10 0 12 1;
#X connect 10 0 30 1;
#X connect 10 0 27 1;
#X connect 11 0 26 0;
#X connect 12 0 25 0;
#X connect 13 0 9 0;
#X connect 14 0 0 0;
#X connect 15 0 16 0;
#X connect 16 0 17 0;
#X connect 18 0 19 0;
#X connect 19 0 10 0;
#X connect 20 0 10 0;
#X connect 21 0 12 0;
#X connect 22 0 11 0;
#X connect 23 0 7 0;
#X connect 24 0 4 0;
#X connect 27 0 29 0;
#X connect 28 0 27 0;
#X connect 30 0 32 0;
#X connect 31 0 30 0;
#X connect 33 0 21 0;
#X connect 34 0 22 0;
#X connect 35 0 28 0;
#X connect 36 0 31 0;
#X connect 37 0 4 0;
#X restore 3 187 pd patch;
#X obj 6 167 hsl 128 15 0 127 0 0 empty \$0-vol VOLUME 8 -8 0 10 #fcfcfc #000000 #000000 0 0;
#X text 117 212 angelfaraldo@gmail.com \, 2012;
#X connect 16 0 15 0;
