#N canvas 135 77 316 322 10;
#X obj 12 226 inlet~;
#X obj 121 120 wrap~;
#X obj 121 101 +~ 0.25;
#X obj 231 268 *~;
#X obj 169 267 *~;
#X obj 43 265 *~;
#X obj 107 267 *~;
#X obj 122 140 *~ 2;
#X obj 122 162 -~ 1;
#X obj 122 184 abs~;
#X obj 58 141 *~ 2;
#X obj 58 163 -~ 1;
#X obj 58 186 abs~;
#X obj 183 120 wrap~;
#X obj 184 140 *~ 2;
#X obj 184 162 -~ 1;
#X obj 184 184 abs~;
#X obj 183 101 +~ 0.5;
#X obj 245 119 wrap~;
#X obj 246 139 *~ 2;
#X obj 246 161 -~ 1;
#X obj 246 183 abs~;
#X obj 245 100 +~ 0.75;
#X obj 43 289 outlet~;
#X obj 107 291 outlet~;
#X obj 169 290 outlet~;
#X obj 231 291 outlet~;
#X obj 121 26 inlet~;
#X obj 121 50 phasor~;
#X obj 246 207 q8_sqrt~;
#X obj 184 207 q8_sqrt~;
#X obj 122 209 q8_sqrt~;
#X obj 58 209 q8_sqrt~;
#X obj 176 27 random 100;
#X obj 176 49 / 100;
#X obj 176 6 r \$1-loadbang;
#X connect 0 0 5 0;
#X connect 0 0 6 0;
#X connect 0 0 4 0;
#X connect 0 0 3 0;
#X connect 1 0 7 0;
#X connect 2 0 1 0;
#X connect 3 0 26 0;
#X connect 4 0 25 0;
#X connect 5 0 23 0;
#X connect 6 0 24 0;
#X connect 7 0 8 0;
#X connect 8 0 9 0;
#X connect 9 0 31 0;
#X connect 10 0 11 0;
#X connect 11 0 12 0;
#X connect 12 0 32 0;
#X connect 13 0 14 0;
#X connect 14 0 15 0;
#X connect 15 0 16 0;
#X connect 16 0 30 0;
#X connect 17 0 13 0;
#X connect 18 0 19 0;
#X connect 19 0 20 0;
#X connect 20 0 21 0;
#X connect 21 0 29 0;
#X connect 22 0 18 0;
#X connect 27 0 28 0;
#X connect 28 0 2 0;
#X connect 28 0 10 0;
#X connect 28 0 17 0;
#X connect 28 0 22 0;
#X connect 29 0 3 1;
#X connect 30 0 4 1;
#X connect 31 0 6 1;
#X connect 32 0 5 1;
#X connect 33 0 34 0;
#X connect 34 0 28 1;
#X connect 35 0 33 0;
