#N canvas 802 25 432 279 10;
#X obj 137 24 noise~;
#X obj 137 120 samphold~;
#X obj 137 195 s~ \$0-newFreq;
#X obj 208 25 r~ \$0-newFreq;
#X msg 41 66 reset;
#X obj 223 195 *~, f 8;
#X obj 223 215 outlet~;
#X obj 188 95 phasor~ 1;
#X obj 223 173 abs~;
#X obj 268 94 phasor~ 1;
#X obj 188 73 abs~;
#X obj 41 26 r \$1-loadbang;
#X obj 268 117 -~ 0.25;
#X obj 268 139 cos~;
#X obj 48 46 loadbang;
#X connect 0 0 1 0;
#X connect 1 0 2 0;
#X connect 1 0 8 0;
#X connect 3 0 9 0;
#X connect 3 0 10 0;
#X connect 4 0 1 0;
#X connect 5 0 6 0;
#X connect 7 0 1 1;
#X connect 8 0 5 0;
#X connect 9 0 12 0;
#X connect 10 0 7 0;
#X connect 11 0 4 0;
#X connect 12 0 13 0;
#X connect 13 0 5 1;
#X connect 14 0 4 0;
