#N canvas 616 22 388 478 10;
#X obj 38 5 r fundamental;
#X obj 38 38 * \$1;
#X obj 38 69 osc~;
#X obj 38 512 throw~ sumaOsciladores;
#X obj 75 355 r p\$1g;
#X obj 38 480 *~;
#X obj 166 55 r duracion;
#X obj 133 88 random;
#X obj 151 119 r duracion;
#X obj 133 169 -;
#X obj 133 189 abs;
#X text 181 87 tiempo de ataque;
#X text 180 179 tiempo de decay;
#X obj 56 323 line~;
#X obj 57 146 f;
#X obj 69 220 delay;
#X msg 106 279 0 \$1;
#X obj 105 248 f;
#X obj 81 68 t b b;
#X msg 57 279 1 \$1;
#X obj 56 448 *~;
#X obj 74 416 line~;
#X msg 74 386 \$1 10;
#X obj 81 35 r trigger2;
#X connect 0 0 1 0 empty;
#X connect 1 0 2 0 empty;
#X connect 2 0 5 0 empty;
#X connect 4 0 22 0 empty;
#X connect 5 0 3 0 empty;
#X connect 6 0 7 1 empty;
#X connect 7 0 9 0 empty;
#X connect 7 0 14 1 empty;
#X connect 8 0 9 1 empty;
#X connect 9 0 10 0 empty;
#X connect 10 0 17 1 empty;
#X connect 13 0 20 0 empty;
#X connect 14 0 19 0 empty;
#X connect 14 0 15 0 empty;
#X connect 15 0 17 0 empty;
#X connect 16 0 13 0 empty;
#X connect 17 0 16 0 empty;
#X connect 18 0 14 0 empty;
#X connect 18 1 7 0 empty;
#X connect 19 0 13 0 empty;
#X connect 20 0 5 1 empty;
#X connect 21 0 20 1 empty;
#X connect 22 0 21 0 empty;
#X connect 23 0 18 0 empty;
