#N canvas 1463 630 700 502 10;
#X obj 93 209 osc~;
#X obj 24 445 outlet~;
#X obj 106 107 inlet;
#X obj 188 263 inlet;
#X obj 370 24 inlet;
#X floatatom 373 50 5 0 0 0 - - - 0;
#X obj 93 186 * 1, f 18;
#X obj 171 139 r fundamental;
#X obj 171 161 t b f;
#X obj 66 34 r harm_\$1;
#X obj 93 157 +;
#X obj 106 129 t b f;
#X obj 24 268 line~;
#X msg 24 245 \$1 10;
#X obj 66 59 t f f;
#X obj 22 88 != 0;
#X obj 22 113 change -1;
#X obj 24 297 *~, f 12;
#X obj 24 422 *~;
#X obj 188 284 * 0.01;
#X obj 188 308 pow 3;
#X obj 75 393 line~;
#X msg 75 370 \$1 10;
#X text 104 89 ratio;
#X text 185 242 volume;
#X obj 93 252 *~ 0.1;
#X connect 0 0 25 0;
#X connect 2 0 11 0;
#X connect 3 0 19 0;
#X connect 4 0 5 0;
#X connect 6 0 0 0;
#X connect 7 0 8 0;
#X connect 8 0 6 0;
#X connect 8 1 6 1;
#X connect 9 0 14 0;
#X connect 10 0 6 0;
#X connect 11 0 10 0;
#X connect 11 1 10 1;
#X connect 12 0 17 0;
#X connect 13 0 12 0;
#X connect 14 0 15 0;
#X connect 14 1 10 0;
#X connect 15 0 16 0;
#X connect 16 0 13 0;
#X connect 17 0 18 0;
#X connect 18 0 1 0;
#X connect 19 0 20 0;
#X connect 20 0 22 0;
#X connect 21 0 18 1;
#X connect 22 0 21 0;
#X connect 25 0 17 1;
