#N canvas 539 39 590 206 10;
#X obj 278 128 cnv 15 300 65 empty empty empty 20 12 0 14 -228856 -66577
0;
#X obj 509 139 nbx 3 14 -1e+37 1e+37 0 0 --------------- \$0-countFiles
files: -50 7 0 14 -228856 -1 -1 32 256;
#X symbolatom 511 165 5 0 0 0 - #0-default_ext #0-ext, f 5;
#X obj 475 159 cnv 15 100 1 empty empty ext: 0 12 0 14 -228856 -66577
0;
#X obj 6 128 cnv 15 265 65 empty empty empty 20 12 0 14 -261682 -66577
0;
#X obj 13 135 tgl 50 0 \$0-keys \$0-none keys 10 24 0 14 -261682 -260097
-1 1 1;
#X obj 73 135 tgl 50 0 \$0-midi \$0-none midi 10 24 0 14 -261682 -260097
-1 0 1;
#X obj 133 135 vradio 25 1 0 2 \$0-play_type \$0-none empty 0 -8 0
10 -261682 -260097 -1 1;
#X obj 166 134 cnv 15 100 1 empty empty sequential 0 12 0 14 -261682
-66577 0;
#X obj 166 161 cnv 15 100 1 empty empty simultaneous 0 12 0 14 -261682
-66577 0;
#X obj 6 3 cnv 15 573 120 empty empty empty 20 12 0 14 -204786 -66577
0;
#X obj 206 56 cnv 15 100 1 empty empty filename: -30 12 0 14 -204786
-66577 0;
#X obj 252 56 cnv 15 1 1 empty \$0-currentFile 06.aiff 0 12 0 14 -204786
-66577 0;
#X obj 12 10 bng 80 250 50 0 \$0-playNext \$0-prePlayNext next 24 40
0 14 -204786 -4034 -1;
#X obj 252 16 nbx 3 14 -1e+37 1e+37 0 0 \$0-set_next \$0-preset_next
cue: -37 6 0 14 -204786 -1 -1 1 256;
#X obj 283 135 bng 50 250 50 0 \$0-reset \$0-none reload 4 25 0 12
-228856 -128992 -1;
#N canvas 1100 96 986 783 system 0;
#X obj 189 546 readsf~ 2;
#X obj 132 599 dac~, f 9;
#X msg 200 479 open \$1;
#X obj 313 12 loadbang;
#X obj 340 542 unpack s;
#X msg 396 568 label \$1;
#X obj 396 609 s \$0-currentFile;
#X msg 360 372 clear;
#X obj 384 131 s \$0-init;
#X obj 323 71 r \$0-reset;
#X msg 496 501 empty!;
#X obj 132 575 *~, f 7;
#X obj 132 545 vline~;
#X obj 183 575 *~, f 5;
#X msg 219 387 0 10;
#X msg 132 377 0 \, 1 10;
#X text 499 740 angelfaraldo@gmail.com;
#X obj 340 499 jasch_lib/strtok /;
#X obj 132 274 t b b, f 15;
#X obj 132 294 del 11;
#X msg 189 387 1;
#X obj 132 314 t b b, f 9;
#X obj 132 335 del 1;
#X obj 132 356 t b b, f 10;
#X obj 496 523 zexy/list2symbol;
#X obj 340 396 zexy/fifop;
#X obj 340 521 list-abs/list-rev;
#X obj 352 262 hcs/folder_list;
#X obj 360 309 cyclone/fromsymbol;
#X obj 360 331 print loading;
#X text 499 724 ÂNGEL FARALDO \, 2012-2018;
#X msg 313 213 symbol *.\$1 \; pd dsp 1 \;;
#X obj 376 173 r \$0-ext;
#X obj 313 193 symbol, f 11;
#X obj 322 52 s \$0-default_ext;
#X obj 313 174 delay 1;
#X msg 305 326 info;
#X obj 313 243 t b s, f 7;
#X obj 397 458 route float, f 17;
#X obj 397 479 s \$0-countFiles;
#X obj 255 501 r \$0-panic;
#X msg 205 523 0;
#X obj 531 609 + 1;
#X obj 501 703 s \$0-currentID;
#X obj 501 609 f 1;
#X obj 396 588 t a b, f 18;
#X obj 582 602 r \$0-countFiles;
#X obj 501 682 min, f 14;
#X obj 475 152 r \$0-set_next;
#X obj 340 416 spigot 1, f 19;
#X msg 509 255 0;
#X obj 563 335 - 1;
#X msg 476 254 1;
#X obj 526 132 s \$0-preset_next;
#X msg 526 111 set 1;
#X obj 360 351 r \$0-init;
#X obj 563 358 until;
#X obj 455 132 s \$0-panic;
#X obj 313 91 t b b b b, f 36;
#X obj 542 212 s \$0-setre;
#X obj 320 153 r \$0-setre;
#X msg 384 111 1;
#X obj 516 588 r \$0-init;
#X obj 476 171 t f b b f, f 17;
#X obj 575 192 s \$0-init;
#X obj 30 32 t b b, f 20;
#X obj 30 75 s \$0-currentFile;
#X obj 147 75 s \$0-currentID;
#X msg 147 54 0;
#X msg 30 54 label;
#X obj 476 232 t b f, f 15;
#X obj 476 211 pipe 1;
#X msg 455 113 0;
#X obj 360 288 spigot 1;
#X msg 240 723 label STOPPED \, color 13;
#X obj 340 436 t a b, f 31;
#X msg 523 458 label PLAYING \, color 16;
#X obj 523 478 s \$0-audio_status;
#X obj 240 746 s \$0-audio_status;
#X obj 512 630 >, f 8;
#X obj 512 651 sel 1;
#X obj 30 11 r \$0-reset;
#X obj 657 196 gspd/audioconf;
#X msg 676 174 sr 48000;
#X msg 657 155 sr 44100;
#X obj 657 117 r \$0-sr;
#X obj 657 32 samplerate~;
#X obj 657 12 loadbang;
#X obj 657 52 sel 44100 48000;
#X msg 657 73 set 0;
#X msg 700 73 set 1;
#X obj 744 71 print WARNING: Uncommon sampling rate;
#X obj 657 97 s \$0-preset_sr;
#X obj 657 135 sel 0 1;
#X msg 322 32 symbol aiff;
#X obj 134 136 ctlin 64;
#X obj 134 200 sel 127;
#X obj 72 178 r \$0-keys;
#X obj 27 200 spigot 0;
#X obj 134 178 spigot 0;
#X obj 27 178 sel 32;
#X obj 27 156 key;
#X obj 134 231 s \$0-prePlayNext;
#X obj 132 253 r \$0-playNext;
#X obj 179 158 r \$0-midi;
#X connect 0 0 11 1;
#X connect 0 1 13 1;
#X connect 0 2 74 0;
#X connect 2 0 0 0;
#X connect 3 0 94 0;
#X connect 3 0 58 0;
#X connect 4 0 5 0;
#X connect 5 0 45 0;
#X connect 7 0 25 0;
#X connect 9 0 58 0;
#X connect 10 0 24 0;
#X connect 11 0 1 0;
#X connect 12 0 11 0;
#X connect 12 0 13 0;
#X connect 13 0 1 1;
#X connect 14 0 12 0;
#X connect 15 0 12 0;
#X connect 17 0 26 0;
#X connect 18 0 19 0;
#X connect 18 1 14 0;
#X connect 19 0 21 0;
#X connect 20 0 0 0;
#X connect 21 0 22 0;
#X connect 21 1 25 0;
#X connect 22 0 23 0;
#X connect 23 0 15 0;
#X connect 23 1 20 0;
#X connect 24 0 5 0;
#X connect 25 0 49 0;
#X connect 25 1 38 0;
#X connect 26 0 4 0;
#X connect 27 0 25 0;
#X connect 27 0 73 0;
#X connect 28 0 29 0;
#X connect 31 0 37 0;
#X connect 32 0 33 1;
#X connect 33 0 31 0;
#X connect 35 0 33 0;
#X connect 36 0 25 0;
#X connect 37 0 36 0;
#X connect 37 1 27 0;
#X connect 38 0 39 0;
#X connect 38 1 10 0;
#X connect 40 0 41 0;
#X connect 40 0 74 0;
#X connect 41 0 0 0;
#X connect 42 0 44 1;
#X connect 44 0 42 0;
#X connect 44 0 47 0;
#X connect 44 0 79 0;
#X connect 45 0 6 0;
#X connect 45 1 44 0;
#X connect 46 0 47 1;
#X connect 46 0 79 1;
#X connect 47 0 43 0;
#X connect 48 0 63 0;
#X connect 49 0 75 0;
#X connect 50 0 49 1;
#X connect 50 0 73 1;
#X connect 51 0 56 0;
#X connect 52 0 49 1;
#X connect 52 0 73 1;
#X connect 54 0 53 0;
#X connect 55 0 7 0;
#X connect 56 0 25 0;
#X connect 58 0 35 0;
#X connect 58 1 61 0;
#X connect 58 2 72 0;
#X connect 58 3 54 0;
#X connect 60 0 35 0;
#X connect 61 0 8 0;
#X connect 62 0 44 1;
#X connect 63 0 71 0;
#X connect 63 1 50 0;
#X connect 63 2 59 0;
#X connect 63 3 64 0;
#X connect 65 0 69 0;
#X connect 65 1 68 0;
#X connect 68 0 67 0;
#X connect 69 0 66 0;
#X connect 70 0 52 0;
#X connect 70 1 51 0;
#X connect 71 0 70 0;
#X connect 72 0 57 0;
#X connect 73 0 28 0;
#X connect 74 0 78 0;
#X connect 75 0 2 0;
#X connect 75 0 17 0;
#X connect 75 1 76 0;
#X connect 76 0 77 0;
#X connect 79 0 80 0;
#X connect 80 0 74 0;
#X connect 81 0 65 0;
#X connect 83 0 82 0;
#X connect 84 0 82 0;
#X connect 85 0 93 0;
#X connect 86 0 88 0;
#X connect 87 0 86 0;
#X connect 88 0 89 0;
#X connect 88 1 90 0;
#X connect 88 2 91 0;
#X connect 89 0 92 0;
#X connect 90 0 92 0;
#X connect 93 0 84 0;
#X connect 93 1 83 0;
#X connect 94 0 34 0;
#X connect 95 0 99 0;
#X connect 96 0 102 0;
#X connect 97 0 98 1;
#X connect 98 0 102 0;
#X connect 99 0 96 0;
#X connect 100 0 98 0;
#X connect 101 0 100 0;
#X connect 103 0 18 0;
#X connect 104 0 99 1;
#X restore 517 101 pd system;
#X obj 95 10 bng 50 250 50 0 \$0-panic \$0-none stop 12 26 0 12 -261234
-258113 -1;
#X obj 252 38 nbx 3 14 -1e+37 1e+37 0 0 asdfasdlfhgadsfd \$0-currentID
cue: -37 6 0 14 -204786 -1 -1 6 256;
#X obj 179 10 cnv 15 100 1 empty empty next 0 12 0 14 -204786 -33289
0;
#X obj 12 94 cnv 15 80 20 empty \$0-audio_status STOPPED 12 11 0 14
-258699 -66577 0;
#X obj 149 10 cnv 15 100 1 empty empty set 0 12 0 14 -204786 -33289
0;
#X obj 178 32 cnv 15 100 1 empty empty last 0 12 0 14 -204786 -33289
0;
#X obj 345 135 vradio 25 1 0 2 \$0-sr \$0-preset_sr empty 0 -8 0 10
-228856 -128992 -1 1;
#X obj 378 134 cnv 15 100 1 empty empty 44.1_kHz 0 12 0 14 -228856
-66577 0;
#X obj 378 161 cnv 15 100 1 empty empty 48_kHz 0 12 0 14 -228856 -66577
0;
