#N canvas 1070 167 600 300 12;
#X obj 16 527 file glob;
#X obj 16 474 file patchpath;
#X msg 16 501 symbol \$1/*.wav;
#X msg 157 486 clear;
#X msg 212 513 sort;
#X obj 16 450 t b b, f 20;
#X obj 212 485 del 100;
#X obj 483 330 ctlin 64;
#X obj 483 406 sel 127;
#X obj 483 379 spigot 0;
#X obj 311 330 key;
#X obj 517 354 r \$0-midi;
#X obj 613 391 f 1;
#X obj 651 391 + 1;
#X obj 678 330 r \$0-goto;
#X obj 613 48 snake~ out 2;
#X obj 613 535 pack 0 0, f 10;
#X obj 613 483 t f f, f 9;
#X obj 613 508 mod 4;
#X obj 613 111 dac~ 1 2, f 12;
#X obj 0 0 cnv 15 600 300 empty empty empty 10 13 0 24 #b7b7b7 #373737 0;
#X obj 488 147 meter2~;
#X text 507 119 OUT;
#X obj 377 196 tgl 25 0 \$0-keys \$0-set-keys KEYS 30 13 0 12 #e4e4e4 #4d4d4d #373737 0 1;
#X obj 377 226 tgl 25 0 \$0-midi \$0-set-midi MIDI 30 13 0 12 #e4e4e4 #4d4d4d #373737 0 1;
#X obj 394 413 r \$0-keys;
#X obj 613 561 s \$0-file-select;
#X obj 613 423 s \$0-set-cue;
#X obj 613 453 r \$0-cue;
#X obj 16 18 nbx 18 75 1 100 1 0 \$0-cue \$0-set-cue empty 0 -8 0 10 #e4e4e4 #373737 #373737 0 10;
#X obj 377 258 nbx 3 25 1 100 0 0 \$0-goto \$0-set-goto GO\ TO 55 13 0 12 #e4e4e4 #373737 #373737 0 10;
#X obj 613 142 loadbang;
#X obj 613 178 f \$0;
#X obj 692 142 bng 19 250 50 0 empty empty empty 17 7 0 10 #e4e4e4 #4d4d4d #373737;
#X obj 377 129 bng 25 250 50 0 \$0-init \$0-set-init RELOAD 30 13 0 12 #dfdfdf #000000 #000000;
#X obj 377 163 bng 25 250 50 0 \$0-stopall \$0-set-stopall STOP\ ALL 30 13 0 12 #dfdfdf #000000 #000000;
#X obj 16 321 r \$0-init;
#X msg 613 206 bang \; \$1-set-goto 1 \; \$1-set-keys 1 \; \$1-set-midi 1 \; \$1-set-cue set 0 \; \$1-set-init bang \;;
#X obj 331 387 s \$0-set-stopall;
#X obj 311 362 sel 32 27;
#X obj 311 444 spigot 0, f 15;
#X obj 157 555 text define \$0-filelist;
#X obj 16 555 text insert \$0-filelist;
#X obj 613 22 catch~ \$0-summing_bus 2;
#X obj 226 18 bng 75 250 50 0 \$0-go \$0-set-go GO 29 38 0 12 #dfdfdf #000000 #000000;
#X obj 613 330 r \$0-go;
#X obj 311 485 s \$0-set-go;
#X obj 678 355 int;
#X msg 48 387 \; \$1-set-goto 1 \; \$1-set-cue set 0;
#X obj 48 361 f \$0;
#X obj 16 120 playfile 0 \$0;
#X obj 103 120 playfile 1 \$0;
#X obj 188 120 playfile 2 \$0;
#X obj 275 120 playfile 3 \$0;
#X connect 0 0 42 0;
#X connect 1 0 2 0;
#X connect 2 0 0 0;
#X connect 3 0 41 0;
#X connect 4 0 41 0;
#X connect 5 0 1 0;
#X connect 5 1 3 0;
#X connect 5 1 6 0;
#X connect 6 0 4 0;
#X connect 7 0 9 0;
#X connect 8 0 46 0 32.................z....T0+++OM....U8+++SF....;
#X connect 9 0 8 0;
#X connect 10 0 39 0;
#X connect 11 0 9 1;
#X connect 12 0 13 0;
#X connect 12 0 27 0;
#X connect 13 0 12 1;
#X connect 14 0 47 0;
#X connect 15 0 19 0;
#X connect 15 0 21 0;
#X connect 15 1 19 1;
#X connect 15 1 21 1;
#X connect 16 0 26 0;
#X connect 17 0 18 0;
#X connect 17 1 16 1;
#X connect 18 0 16 0;
#X connect 25 0 40 1;
#X connect 28 0 17 0;
#X connect 31 0 32 0;
#X connect 32 0 37 0;
#X connect 33 0 32 0;
#X connect 36 0 5 0;
#X connect 36 0 49 0;
#X connect 39 0 40 0;
#X connect 39 1 38 0;
#X connect 40 0 46 0;
#X connect 43 0 15 0;
#X connect 45 0 12 0;
#X connect 47 0 12 1;
#X connect 49 0 48 0;
