#N canvas 827 239 80 190 12;
#X obj 264 54 - 1;
#X obj 264 380 readsf~ 2, f 18;
#X msg 264 127 open \$1 \, 1;
#X obj 264 425 snake~ in 2, f 11;
#X obj 451 126 list fromsymbol;
#X obj 484 187 list length;
#X obj 451 156 t l l;
#X obj 484 220 - 5;
#X obj 451 249 list split;
#X obj 466 278 list split 1;
#X obj 466 306 == 115;
#X text 520 305 this is an "s";
#X msg 295 347 0;
#X obj 466 337 t f f, f 6;
#X obj 163 442 meter2~;
#X obj 264 28 route \$1;
#X obj 293 302 spigot;
#X obj 316 220 unpack 0 0;
#X obj 487 362 pack 0 \$1;
#X obj 368 249 != \$1;
#X obj 316 278 spigot, f 10;
#X obj 466 419 sel 1;
#X obj 264 4 r \$2-file-select;
#X obj 316 189 r \$2-toggle-players;
#X obj 293 161 r \$2-stop-playfile;
#X obj 466 448 s \$2-stop-playfile;
#X obj 487 387 s \$2-toggle-players;
#X obj 264 455 throw~ \$2-summing_bus;
#X obj 264 81 text get \$2-filelist;
#X obj 348 302 r \$2-stopall;
#X connect 0 0 28 0;
#X connect 1 0 3 0;
#X connect 1 0 14 0 32.................H....v4+++OB....b9+++iA....;
#X connect 1 1 3 1;
#X connect 1 1 14 1 32.................L....b4+++OC....W9+++iA....;
#X connect 2 0 1 0;
#X connect 3 0 27 0;
#X connect 4 0 6 0 32.................F.........fA.........r.....;
#X connect 5 0 7 0 32.................I.........PB.........DA....;
#X connect 6 0 8 0 32.................m.........vI.........zD....;
#X connect 6 1 5 0 32.................F....XA...fA....V....v.....;
#X connect 7 0 8 1 32.................E....7++++eA....+++++q.....;
#X connect 8 1 9 0 32.................E.........PA.........n.....;
#X connect 9 0 10 0 32.................O.........vC.........zA....;
#X connect 10 0 13 0;
#X connect 12 0 1 0 32.................H....P9+++OB....j++++6.....;
#X connect 13 0 21 0;
#X connect 13 1 18 0;
#X connect 15 0 0 0;
#X connect 16 0 12 0;
#X connect 17 0 20 0;
#X connect 17 1 19 0;
#X connect 18 0 26 0;
#X connect 19 0 20 1;
#X connect 20 0 16 1;
#X connect 21 0 25 0;
#X connect 22 0 15 0;
#X connect 23 0 17 0;
#X connect 24 0 16 0;
#X connect 28 0 2 0;
#X connect 28 0 4 0 32.................J....TM...fB....UC...HI....;
#X connect 29 0 12 0 32.................J....n7+++uB....J++++qA....;
#X coords 0 1 100 -1 83 169 1 158 417;
