#N canvas 8 22 430 440 10;
#X obj -270 -18 noise~;
#X obj -270 48 round~;
#X obj -259 240 mirrorWall~ 65536;
#X obj -259 263 /~ 32768;
#X obj -259 286 -~ 1;
#X obj -259 173 *~;
#X obj -259 123 *~;
#X obj -244 152 fexpr~ $x[0]-$y[-1];
#X obj -259 369 *~;
#X obj -245 72 tabread~ pesos;
#X obj -270 4 *~ 32768;
#X obj -270 26 +~ 32768;
#X obj -244 101 expr~ if($v1 >=32768 \, 1 \, -1);
#X obj -259 217 fexpr~ $x[0]-$y[-1];
#X obj -252 195 r reset4\$1;
#X obj -259 390 throw~ islands;
#X obj -226 349 line~;
#X obj -226 310 tgl 15 0 empty empty empty 17 7 0 10 -262144 -1 -1
0 1;
#X obj -226 286 inlet;
#X msg -226 328 \$1 5;
#X connect 0 0 10 0;
#X connect 1 0 9 0;
#X connect 1 0 12 0;
#X connect 2 0 3 0;
#X connect 3 0 4 0;
#X connect 4 0 8 0;
#X connect 5 0 13 0;
#X connect 6 0 5 0;
#X connect 6 0 7 0;
#X connect 7 0 5 1;
#X connect 8 0 15 0;
#X connect 9 0 6 0;
#X connect 10 0 11 0;
#X connect 11 0 1 0;
#X connect 12 0 6 1;
#X connect 13 0 2 0;
#X connect 14 0 13 0;
#X connect 16 0 8 1;
#X connect 17 0 19 0;
#X connect 18 0 17 0;
#X connect 19 0 16 0;
