#N canvas 369 290 488 484 10;
#X obj -9 154 soundfiler;
#X obj -9 7 loadbang;
#X msg -9 133 read -resize \$1 \$2;
#X obj 151 7 table \$1 1;
#X obj -9 112 pack s s;
#X obj -9 48 symbol \$1;
#X obj -9 69 t s s;
#X obj -9 27 delay 500;
#X obj 171 72 r position;
#X obj 153 127 t f f;
#X obj 220 127 t f f;
#X obj 205 209 &&;
#X obj 165 185 &&;
#X obj 220 185 &&;
#X obj 171 98 unpack;
#X obj 220 155 >= \$2;
#X obj 260 155 <= \$3;
#X obj 140 155 >= \$4;
#X obj 180 155 <= \$5;
#X obj 213 416 prepend set;
#X obj 213 394 symbol \$1;
#X obj 213 253 sel 1;
#X obj -2 243 f \$3;
#X obj 28 243 f \$2;
#X obj 13 266 -;
#X obj 1 196 loadbang;
#X obj 1 219 t b b;
#X obj -9 175 / 44.1;
#X obj -9 289 /;
#X obj -100 243 r position;
#X obj -100 266 unpack f f;
#X obj -43 288 - \$2;
#X obj -24 312 *;
#X obj -24 354 s location;
#X obj -24 333 spigot;
#X obj 213 232 change;
#X obj 213 437 s wordID;
#X obj 252 302 delay 1000;
#X obj 213 371 spigot;
#X msg 252 343 1;
#X obj 213 278 t b b b;
#X msg 196 315 0;
#X obj 261 323 loadbang;
#X obj -9 90 makefilename ../audio/%s.wav;
#X connect 0 0 27 0;
#X connect 1 0 7 0;
#X connect 2 0 0 0;
#X connect 4 0 2 0;
#X connect 5 0 6 0;
#X connect 6 0 43 0;
#X connect 6 1 4 1;
#X connect 7 0 5 0;
#X connect 8 0 14 0;
#X connect 9 0 17 0;
#X connect 9 1 18 0;
#X connect 10 0 15 0;
#X connect 10 1 16 0;
#X connect 11 0 35 0;
#X connect 12 0 11 0;
#X connect 13 0 11 1;
#X connect 14 0 9 0;
#X connect 14 1 10 0;
#X connect 15 0 13 0;
#X connect 16 0 13 1;
#X connect 17 0 12 0;
#X connect 18 0 12 1;
#X connect 19 0 36 0;
#X connect 20 0 19 0;
#X connect 21 0 40 0;
#X connect 22 0 24 0;
#X connect 23 0 24 1;
#X connect 24 0 28 1;
#X connect 25 0 26 0;
#X connect 26 0 22 0;
#X connect 26 1 23 0;
#X connect 27 0 28 0;
#X connect 28 0 32 1;
#X connect 29 0 30 0;
#X connect 30 1 31 0;
#X connect 31 0 32 0;
#X connect 32 0 34 0;
#X connect 34 0 33 0;
#X connect 35 0 21 0;
#X connect 35 0 34 1;
#X connect 37 0 39 0;
#X connect 38 0 20 0;
#X connect 39 0 38 1;
#X connect 40 0 41 0;
#X connect 40 1 38 0;
#X connect 40 2 37 0;
#X connect 41 0 38 1;
#X connect 42 0 39 0;
#X connect 43 0 4 0;
