#N canvas 199 201 886 529 10;
#X obj 11 120 openpanel;
#X obj 11 417 list-rev;
#X obj 11 396 strtok /;
#X obj 11 438 unpack s;
#X msg 11 459 label \$1;
#X obj 174 263 textfile;
#X obj 174 75 \$1;
#X obj 184 169 \$1;
#X msg 184 214 write \$1 cr;
#X obj 211 238 prepend set;
#X msg 174 119 read \$1 \, rewind \, bang;
#X obj 174 55 r loadbang1;
#X obj 184 147 t b s;
#X obj 174 315 list2symbol;
#X obj 10 10 bng 30 250 50 0 \$1-outLoader \$1-inLoader empty 17 7
0 10 -262144 -1 -1;
#X obj 416 401 textfile;
#X obj 416 32 \$1;
#X obj 426 307 \$1;
#X msg 426 352 write \$1 cr;
#X obj 455 376 prepend set;
#X msg 416 78 read \$1 \, rewind \, bang;
#X obj 416 11 r loadbang1;
#X obj 426 283 t b f;
#X obj 455 171 ==;
#X obj 426 240 spigot;
#X obj 451 123 t f f f;
#X obj 426 217 f;
#X obj 455 193 t b f;
#X obj 490 144 pipe 500;
#X obj 426 261 change;
#X obj 646 401 textfile;
#X obj 646 32 \$1;
#X obj 656 307 \$1;
#X msg 656 352 write \$1 cr;
#X obj 685 376 prepend set;
#X msg 646 78 read \$1 \, rewind \, bang;
#X obj 646 11 r loadbang1;
#X obj 656 283 t b f;
#X obj 685 171 ==;
#X obj 656 240 spigot;
#X obj 681 123 t f f f;
#X obj 656 217 f;
#X obj 685 193 t b f;
#X obj 720 144 pipe 500;
#X obj 656 261 change;
#X obj 41 10 cnv 15 250 30 empty \$1-inLabel Industry 20 12 0 14 -233017
-66577 0;
#X obj 43 30 hsl 149 10 0 148 0 0 \$1-outVolume \$1-inVolume vol 3
6 0 8 -262144 -1 -1 0 0;
#X obj 197 30 hsl 91 10 -45 45 0 0 \$1-outPan \$1-inPan pan 3 6 0 8
-262144 -1 -1 0 0;
#X obj 11 98 makefilename %s/samples;
#X obj 11 53 r \$1-outLoader;
#X obj 11 480 s \$1-inLabel;
#X obj 19 149 s \$1-filename;
#X obj 184 289 r \$1-inFile;
#X obj 174 339 s \$1-filename;
#X obj 451 100 r \$1-outVolume;
#X obj 416 423 s \$1-inVolume;
#X obj 646 423 s \$1-inPan;
#X obj 681 100 r \$1-outPan;
#X obj 11 76 getdir 1;
#X obj 416 53 makefilename ./%d-volume.txt;
#X obj 174 97 makefilename ./%d-instrument.txt;
#X obj 184 190 makefilename ./%d-instrument.txt;
#X obj 426 328 makefilename ./%d-volume.txt;
#X obj 656 328 makefilename ./%d-pan.txt;
#X obj 646 53 makefilename ./%d-pan.txt;
#X connect 0 0 2 0;
#X connect 0 0 12 0;
#X connect 0 0 51 0;
#X connect 1 0 3 0;
#X connect 2 0 1 0;
#X connect 3 0 4 0;
#X connect 4 0 50 0;
#X connect 5 0 13 0;
#X connect 6 0 60 0;
#X connect 7 0 61 0;
#X connect 8 0 5 0;
#X connect 9 0 5 0;
#X connect 10 0 5 0;
#X connect 11 0 6 0;
#X connect 12 0 7 0;
#X connect 12 1 9 0;
#X connect 13 0 2 0;
#X connect 13 0 53 0;
#X connect 15 0 55 0;
#X connect 16 0 59 0;
#X connect 17 0 62 0;
#X connect 18 0 15 0;
#X connect 19 0 15 0;
#X connect 20 0 15 0;
#X connect 21 0 16 0;
#X connect 22 0 17 0;
#X connect 22 1 19 0;
#X connect 23 0 27 0;
#X connect 24 0 29 0;
#X connect 25 0 26 1;
#X connect 25 1 23 1;
#X connect 25 2 28 0;
#X connect 26 0 24 0;
#X connect 27 0 26 0;
#X connect 27 1 24 1;
#X connect 28 0 23 0;
#X connect 29 0 22 0;
#X connect 30 0 56 0;
#X connect 31 0 64 0;
#X connect 32 0 63 0;
#X connect 33 0 30 0;
#X connect 34 0 30 0;
#X connect 35 0 30 0;
#X connect 36 0 31 0;
#X connect 37 0 32 0;
#X connect 37 1 34 0;
#X connect 38 0 42 0;
#X connect 39 0 44 0;
#X connect 40 0 41 1;
#X connect 40 1 38 1;
#X connect 40 2 43 0;
#X connect 41 0 39 0;
#X connect 42 0 41 0;
#X connect 42 1 39 1;
#X connect 43 0 38 0;
#X connect 44 0 37 0;
#X connect 48 0 0 0;
#X connect 49 0 58 0;
#X connect 52 0 13 0;
#X connect 54 0 25 0;
#X connect 57 0 40 0;
#X connect 58 0 48 0;
#X connect 59 0 20 0;
#X connect 60 0 10 0;
#X connect 61 0 8 0;
#X connect 62 0 18 0;
#X connect 63 0 33 0;
#X connect 64 0 35 0;
#X coords 0 -1 1 1 280 30 2 10 10;
