#N canvas 560 22 526 689 10;
#X obj 15 100 soundfiler;
#X obj 60 13 f \$1;
#X obj 33 -10 t s b;
#X obj 15 59 pack s s;
#X msg 15 79 read -resize \$1 \$2;
#X obj 265 303 r stepsRadio;
#X obj 265 324 route color number;
#X obj 370 370 sel 1;
#X obj 265 217 textfile;
#X obj 232 -9 \$1;
#X obj 265 123 \$1;
#X msg 265 168 write \$1 cr;
#X obj 265 101 t b l;
#X obj 294 192 prepend set;
#X msg 232 35 read \$1 \, rewind \, bang;
#N canvas 68 107 711 618 pattern2table 1;
#X msg 36 54 \$1 0;
#X obj 9 33 t b f;
#X obj 9 153 t b f;
#X obj 9 273 t b f;
#X obj 9 393 t b f;
#X obj 9 513 t b f;
#X msg 36 534 \$1 4;
#X msg 36 414 \$1 3;
#X msg 36 294 \$1 2;
#X msg 36 174 \$1 1;
#X obj 179 33 t b f;
#X obj 179 153 t b f;
#X obj 179 273 t b f;
#X obj 179 393 t b f;
#X obj 179 513 t b f;
#X msg 206 54 \$1 5;
#X msg 206 174 \$1 6;
#X msg 206 294 \$1 7;
#X msg 206 414 \$1 8;
#X msg 206 534 \$1 9;
#X obj 349 33 t b f;
#X obj 349 153 t b f;
#X obj 349 273 t b f;
#X obj 349 393 t b f;
#X obj 349 513 t b f;
#X msg 376 54 \$1 10;
#X msg 376 174 \$1 11;
#X msg 376 294 \$1 12;
#X msg 376 414 \$1 13;
#X msg 376 534 \$1 14;
#X obj 519 33 t b f;
#X obj 519 153 t b f;
#X obj 519 273 t b f;
#X obj 519 393 t b f;
#X obj 519 513 t b f;
#X msg 546 534 \$1 19;
#X msg 546 414 \$1 18;
#X msg 546 294 \$1 17;
#X msg 546 174 \$1 16;
#X msg 546 54 \$1 15;
#X obj 8 11 r \$1-outTgl1;
#X obj 36 76 tabwrite \$1-pattern;
#X obj 206 76 tabwrite \$1-pattern;
#X obj 376 76 tabwrite \$1-pattern;
#X obj 546 76 tabwrite \$1-pattern;
#X obj 36 196 tabwrite \$1-pattern;
#X obj 206 196 tabwrite \$1-pattern;
#X obj 376 196 tabwrite \$1-pattern;
#X obj 546 196 tabwrite \$1-pattern;
#X obj 546 316 tabwrite \$1-pattern;
#X obj 376 316 tabwrite \$1-pattern;
#X obj 206 316 tabwrite \$1-pattern;
#X obj 36 316 tabwrite \$1-pattern;
#X obj 36 436 tabwrite \$1-pattern;
#X obj 36 556 tabwrite \$1-pattern;
#X obj 206 556 tabwrite \$1-pattern;
#X obj 206 436 tabwrite \$1-pattern;
#X obj 376 436 tabwrite \$1-pattern;
#X obj 376 556 tabwrite \$1-pattern;
#X obj 546 556 tabwrite \$1-pattern;
#X obj 546 436 tabwrite \$1-pattern;
#X obj 519 338 s \$1-savePattern;
#X obj 9 98 s \$1-savePattern;
#X obj 9 218 s \$1-savePattern;
#X obj 9 338 s \$1-savePattern;
#X obj 9 458 s \$1-savePattern;
#X obj 9 578 s \$1-savePattern;
#X obj 179 578 s \$1-savePattern;
#X obj 349 578 s \$1-savePattern;
#X obj 519 578 s \$1-savePattern;
#X obj 519 458 s \$1-savePattern;
#X obj 349 458 s \$1-savePattern;
#X obj 179 458 s \$1-savePattern;
#X obj 179 338 s \$1-savePattern;
#X obj 349 338 s \$1-savePattern;
#X obj 349 218 s \$1-savePattern;
#X obj 519 218 s \$1-savePattern;
#X obj 179 218 s \$1-savePattern;
#X obj 179 98 s \$1-savePattern;
#X obj 349 98 s \$1-savePattern;
#X obj 519 98 s \$1-savePattern;
#X obj 8 131 r \$1-outTgl2;
#X obj 8 251 r \$1-outTgl3;
#X obj 8 371 r \$1-outTgl4;
#X obj 8 491 r \$1-outTgl5;
#X obj 178 11 r \$1-outTgl6;
#X obj 178 251 r \$1-outTgl8;
#X obj 178 371 r \$1-outTgl9;
#X obj 178 491 r \$1-outTgl10;
#X obj 348 11 r \$1-outTgl11;
#X obj 348 131 r \$1-outTgl12;
#X obj 348 251 r \$1-outTgl13;
#X obj 348 371 r \$1-outTgl14;
#X obj 348 491 r \$1-outTgl15;
#X obj 518 11 r \$1-outTgl16;
#X obj 518 131 r \$1-outTgl17;
#X obj 518 251 r \$1-outTgl18;
#X obj 518 371 r \$1-outTgl19;
#X obj 518 491 r \$1-outTgl20;
#X obj 178 131 r \$1-outTgl7;
#X connect 0 0 41 0;
#X connect 1 0 62 0;
#X connect 1 1 0 0;
#X connect 2 0 63 0;
#X connect 2 1 9 0;
#X connect 3 0 64 0;
#X connect 3 1 8 0;
#X connect 4 0 65 0;
#X connect 4 1 7 0;
#X connect 5 0 66 0;
#X connect 5 1 6 0;
#X connect 6 0 54 0;
#X connect 7 0 53 0;
#X connect 8 0 52 0;
#X connect 9 0 45 0;
#X connect 10 0 78 0;
#X connect 10 1 15 0;
#X connect 11 0 77 0;
#X connect 11 1 16 0;
#X connect 12 0 73 0;
#X connect 12 1 17 0;
#X connect 13 0 72 0;
#X connect 13 1 18 0;
#X connect 14 0 67 0;
#X connect 14 1 19 0;
#X connect 15 0 42 0;
#X connect 16 0 46 0;
#X connect 17 0 51 0;
#X connect 18 0 56 0;
#X connect 19 0 55 0;
#X connect 20 0 79 0;
#X connect 20 1 25 0;
#X connect 21 0 75 0;
#X connect 21 1 26 0;
#X connect 22 0 74 0;
#X connect 22 1 27 0;
#X connect 23 0 71 0;
#X connect 23 1 28 0;
#X connect 24 0 68 0;
#X connect 24 1 29 0;
#X connect 25 0 43 0;
#X connect 26 0 47 0;
#X connect 27 0 50 0;
#X connect 28 0 57 0;
#X connect 29 0 58 0;
#X connect 30 0 80 0;
#X connect 30 1 39 0;
#X connect 31 0 76 0;
#X connect 31 1 38 0;
#X connect 32 0 61 0;
#X connect 32 1 37 0;
#X connect 33 0 70 0;
#X connect 33 1 36 0;
#X connect 34 0 69 0;
#X connect 34 1 35 0;
#X connect 35 0 59 0;
#X connect 36 0 60 0;
#X connect 37 0 49 0;
#X connect 38 0 48 0;
#X connect 39 0 44 0;
#X connect 40 0 1 0;
#X connect 81 0 2 0;
#X connect 82 0 3 0;
#X connect 83 0 4 0;
#X connect 84 0 5 0;
#X connect 85 0 10 0;
#X connect 86 0 12 0;
#X connect 87 0 13 0;
#X connect 88 0 14 0;
#X connect 89 0 20 0;
#X connect 90 0 21 0;
#X connect 91 0 22 0;
#X connect 92 0 23 0;
#X connect 93 0 24 0;
#X connect 94 0 30 0;
#X connect 95 0 31 0;
#X connect 96 0 32 0;
#X connect 97 0 33 0;
#X connect 98 0 34 0;
#X connect 99 0 11 0;
#X restore 15 143 pd pattern2table;
#X obj 265 239 t b a;
#X obj 62 285 until;
#X obj 42 314 f 0;
#X obj 72 314 + 1;
#X msg 30 286 0;
#X obj 42 338 t f f;
#X obj 24 429 pack f s;
#X msg 24 453 \; \$2 \$1;
#X obj 62 264 f 20;
#X obj 69 361 + 1;
#X obj 44 216 t b b b;
#X obj 232 -29 r loadbang1;
#X obj 83 239 v step;
#X obj 370 548 *~;
#X msg 385 505 \$1 10;
#X obj 385 526 line~;
#X obj 375 571 pan~;
#X obj 375 613 throw~ outLeft;
#X obj 396 593 throw~ outRight;
#X obj 385 484 *;
#X obj 385 436 / 148;
#X obj 385 458 t f f;
#X obj 33 -31 r \$1-filename;
#X obj 15 121 table \$1-sample;
#X obj 15 163 table \$1-pattern 20;
#X obj 44 192 r \$1-visualizePattern;
#X obj 69 385 makefilename \$1-inTgl%d;
#X obj 24 407 tabread \$1-pattern;
#X obj 265 58 r \$1-savePattern;
#X obj 265 79 tabdump \$1-pattern;
#X obj 292 261 tabset \$1-pattern;
#X obj 265 282 s \$1-visualizePattern;
#X obj 370 349 tabread \$1-pattern;
#X obj 370 392 tabplay~ \$1-sample;
#X obj 385 414 r \$1-outVolume;
#X obj 396 549 r \$1-outPan;
#X obj 60 36 makefilename %d-sample;
#X obj 232 13 makefilename ./%d-pattern.txt;
#X obj 265 144 makefilename ./%d-pattern.txt;
#X connect 1 0 52 0;
#X connect 2 0 3 0;
#X connect 2 1 1 0;
#X connect 3 0 4 0;
#X connect 4 0 0 0;
#X connect 5 0 6 0;
#X connect 6 2 48 0;
#X connect 7 0 49 0;
#X connect 8 0 16 0;
#X connect 9 0 53 0;
#X connect 10 0 54 0;
#X connect 11 0 8 0;
#X connect 12 0 10 0;
#X connect 12 1 13 0;
#X connect 13 0 8 0;
#X connect 14 0 8 0;
#X connect 16 0 47 0;
#X connect 16 1 46 0;
#X connect 17 0 18 0;
#X connect 18 0 19 0;
#X connect 18 0 21 0;
#X connect 19 0 18 1;
#X connect 20 0 18 1;
#X connect 21 0 43 0;
#X connect 21 1 25 0;
#X connect 22 0 23 0;
#X connect 24 0 17 0;
#X connect 25 0 42 0;
#X connect 26 0 24 0;
#X connect 26 1 20 0;
#X connect 26 2 28 0;
#X connect 27 0 9 0;
#X connect 28 0 24 1;
#X connect 29 0 32 0;
#X connect 30 0 31 0;
#X connect 31 0 29 1;
#X connect 32 0 33 0;
#X connect 32 1 34 0;
#X connect 35 0 30 0;
#X connect 36 0 37 0;
#X connect 37 0 35 0;
#X connect 37 1 35 1;
#X connect 38 0 2 0;
#X connect 41 0 26 0;
#X connect 42 0 22 1;
#X connect 43 0 22 0;
#X connect 44 0 45 0;
#X connect 45 0 12 0;
#X connect 48 0 7 0;
#X connect 49 0 29 0;
#X connect 50 0 36 0;
#X connect 51 0 32 1;
#X connect 52 0 3 1;
#X connect 53 0 14 0;
#X connect 54 0 11 0;
