#N canvas 0 23 1280 722 10;
#X obj 3 4 cnv 15 1650 700 empty empty empty 20 12 0 14 #3f3254 #404040
0;
#X obj 112 64 nbx 5 15 0 127 0 0 midi_fundamental set_midi_fundamental
midi 78 9 0 14 #6f4060 #d8d9bf #d6d7bd 0 256;
#X obj 112 356 else/multi.vsl 1500 150 0 100 40 empty volume volume_params
63 51 84 111 64 97 217 217 192 1 1 0 holder holder 100 98 96 94 92
90 88 86 84 82 80 78 76 74 72 70 68 66 64 62 60 58 56 54 52 50 48 46
44 42 40 38 36 34 32 30 28 26 24 22;
#X obj 112 196 else/multi.vsl 1500 100 -0.5 0.5 40 empty ratio ratio_params
63 51 84 111 64 97 217 217 192 1 1 0 holder holder 0 0 0 0 0 0 0 0
0 0 0 0 0 0 0 0 0 0 0 0 0 0 0 0 0 0 0 0 0 0 0 0 0 0 0 0 0 0 0 0;
#X obj 112 566 else/multi.vsl 1500 50 -1 1 40 empty pan pan_params
63 51 84 111 64 97 217 217 192 1 1 0 holder holder 0 0.1 -0.1 0.2 -0.2
0.3 -0.3 0.4 -0.4 0.5 -0.5 0.6 -0.6 0.7 -0.7 0.8 -0.8 0.9 -0.9 1 -1
0.95 -0.95 0.85 -0.85 0.75 -0.75 0.65 -0.65 0.55 -0.55 0.45 -0.45 0.35
-0.35 0.25 -0.25 0.15 -0.15 0;
#N canvas 155 366 1319 692 config 0;
#X msg 16 16 send volume \, receive volume_params;
#X obj 15 140 send volume_params;
#X msg 16 38 send ratio \, receive ratio_params;
#X msg 16 61 send pan \, receive pan_params;
#X obj 16 188 send ratio_params;
#X obj 18 235 send pan_params;
#X obj 280 86 r fundamental;
#X obj 280 41 mtof;
#X obj 280 19 r midi_fundamental;
#X obj 280 63 s set_hz_fundamental;
#X obj 280 108 ftom;
#X msg 280 129 set \$1;
#X obj 281 151 s set_midi_fundamental;
#X msg 16 166 n 40 \, dim 1500 100 \, range -0.5 0.5;
#X msg 15 117 n 40 \, dim 1500 150 \, range 0 100;
#X msg 18 212 n 40 \, dim 1500 50 \, range -1 1;
#X obj 139 324 r pan;
#X obj 28 324 r ratio;
#X obj 83 324 r volume;
#X obj 28 347 clone jurado-osc 40;
#X obj 441 251 s ratio_params;
#X msg 441 215 0 0 0 0 0 0 0 0 0 0 0 0 0 0 0 0 0 0 0 0 0 0 0 0 0 0
0 0 0 0 0 0 0 0 0 0 0 0 0 0;
#X obj 438 322 s harm_params;
#X msg 437 286 1 2 3 4 5 6 7 8 9 10 11 12 13 14 15 16 17 18 19 20 21
22 23 24 25 26 27 28 29 30 31 32 33 34 35 36 37 38 39 40;
#X obj 438 15 loadbang;
#X obj 179 322 r master;
#X obj 18 282 send master_params;
#X msg 14 82 send master \, receive master_params;
#X obj 177 407 line~;
#X obj 178 343 * 0.01;
#X obj 178 365 pow 3;
#X obj 23 501 *~;
#X obj 135 495 *~;
#X obj 17 530 expr~ atan($v1);
#X obj 17 552 *~ 0.63662;
#X obj 134 530 expr~ atan($v1);
#X obj 134 552 *~ 0.63662;
#X obj 17 646 dac~ 1 2, f 20;
#X msg 17 259 n 1 \, dim 45 440 \, range 0 200 \, mode 1;
#X msg 177 385 \$1 30;
#N canvas 261 25 859 886 grabacion 0;
#X msg 558 502 open \$1 \, start;
#X msg 567 630 stop;
#X obj 700 120 time;
#X obj 511 89 t b b;
#X obj 644 174 makefilename 0%d;
#X obj 644 151 moses 10;
#X obj 707 224 makefilename 0%d;
#X obj 707 201 moses 10;
#X obj 770 271 makefilename 0%d;
#X obj 770 248 moses 10;
#X obj 393 222 makefilename 0%d;
#X obj 393 199 moses 10;
#X obj 456 272 makefilename 0%d;
#X obj 456 249 moses 10;
#X obj 519 319 makefilename 0%d;
#X obj 519 296 moses 10;
#X obj 393 367 list append;
#X obj 456 344 list append;
#X obj 511 113 date;
#X obj 393 389 list2symbol -;
#X obj 531 413 list append;
#X obj 531 434 list2symbol @;
#X obj 558 656 s recInstr;
#X obj 567 528 r recMsg;
#X obj 567 549 sel 0;
#X obj 525 21 r recMsg;
#X obj 707 296 list append;
#X obj 644 319 list append;
#X obj 644 341 list2symbol ';
#X obj 514 677 s recFades;
#X obj 531 480 t b s;
#X msg 514 530 0 \, 1 50;
#X obj 567 573 t b b;
#X obj 567 606 delay 55;
#X msg 525 607 0 50;
#X obj 27 215 r recInstr;
#X obj 258 93 r recFades;
#X obj 258 118 line~;
#X obj 250 183 *~;
#X obj 525 64 sel 1;
#X obj 525 42 != 0;
#X obj 160 260 writesf~ 2;
#X obj 142 452 r recMsg;
#X obj 81 479 metro 500;
#X obj 81 503 tgl 15 0 empty empty empty 17 7 0 10 #fcfcfc #000000
#000000 0 1;
#X obj 81 524 sel 0 1;
#X msg 100 546 symbol STOP;
#X msg 81 566 symbol;
#X obj 142 479 sel 0;
#X obj 531 459 makefilename ./spectrum_%s.wav;
#X obj 147 67 inlet~;
#X obj 197 67 inlet~;
#X obj 159 177 *~;
#X msg 81 593 \; recStatus label \$1 \, label_pos 13 44 \, color #d8d9bf
22 #3f3254;
#X msg 144 504 \; recStatus label REC \, label_pos 20 44 \, color #6f4060
22 #d8d9bf;
#X connect 0 0 22 0;
#X connect 1 0 22 0;
#X connect 2 0 5 0;
#X connect 2 1 7 0;
#X connect 2 2 9 0;
#X connect 3 0 18 0;
#X connect 3 1 2 0;
#X connect 4 0 27 0;
#X connect 5 0 4 0;
#X connect 5 1 27 0;
#X connect 6 0 26 0;
#X connect 7 0 6 0;
#X connect 7 1 26 0;
#X connect 8 0 26 1;
#X connect 9 0 8 0;
#X connect 9 1 26 1;
#X connect 10 0 16 0;
#X connect 11 0 10 0;
#X connect 11 1 16 0;
#X connect 12 0 17 0;
#X connect 13 0 12 0;
#X connect 13 1 17 0;
#X connect 14 0 17 1;
#X connect 15 0 14 0;
#X connect 15 1 17 1;
#X connect 16 0 19 0;
#X connect 17 0 16 1;
#X connect 18 0 11 0;
#X connect 18 1 13 0;
#X connect 18 2 15 0;
#X connect 19 0 20 0;
#X connect 20 0 21 0;
#X connect 21 0 49 0;
#X connect 23 0 24 0;
#X connect 24 0 32 0;
#X connect 25 0 40 0;
#X connect 26 0 27 1;
#X connect 27 0 28 0;
#X connect 28 0 20 1;
#X connect 30 0 31 0;
#X connect 30 1 0 0;
#X connect 31 0 29 0;
#X connect 32 0 33 0;
#X connect 32 1 34 0;
#X connect 33 0 1 0;
#X connect 34 0 29 0;
#X connect 35 0 41 0;
#X connect 36 0 37 0;
#X connect 37 0 38 1;
#X connect 37 0 52 1;
#X connect 38 0 41 1;
#X connect 39 0 3 0;
#X connect 40 0 39 0;
#X connect 42 0 43 0;
#X connect 42 0 48 0;
#X connect 43 0 44 0;
#X connect 44 0 45 0;
#X connect 45 0 47 0;
#X connect 45 1 46 0;
#X connect 46 0 53 0;
#X connect 47 0 53 0;
#X connect 48 0 54 0;
#X connect 49 0 30 0;
#X connect 50 0 52 0;
#X connect 51 0 38 0;
#X connect 52 0 41 0;
#X restore 35 600 pd grabacion;
#X msg 438 88 \; set_midi_fundamental 36 \; master_params 0 \; harm_params
1 2 3 4 5 6 7 8 9 10 11 12 13 14 15 16 17 18 19 20 21 22 23 24 25 26
27 28 29 30 31 32 33 34 35 36 37 38 39 40 \; ratio_params 0 0 0 0 0
0 0 0 0 0 0 0 0 0 0 0 0 0 0 0 0 0 0 0 0 0 0 0 0 0 0 0 0 0 0 0 0 0 0
0 \; volume_params 100 98 96 94 92 90 88 86 84 82 80 78 76 74 72 70
68 66 64 62 60 58 56 54 52 50 48 46 44 42 40 38 36 34 32 30 28 26 24
22 \; pan_params 0 0.1 -0.1 0.2 -0.2 0.3 -0.3 0.4 -0.4 0.5 -0.5 0.6
-0.6 0.7 -0.7 0.8 -0.8 0.9 -0.9 1 -1 0.95 -0.95 0.85 -0.85 0.75 -0.75
0.65 -0.65 0.55 -0.55 0.45 -0.45 0.35 -0.35 0.25 -0.25 0.15 -0.15 \;
pd dsp 1, f 140;
#X obj 439 54 delay 10;
#X connect 6 0 10 0;
#X connect 7 0 9 0;
#X connect 8 0 7 0;
#X connect 10 0 11 0;
#X connect 11 0 12 0;
#X connect 13 0 4 0;
#X connect 14 0 1 0;
#X connect 15 0 5 0;
#X connect 16 0 19 2;
#X connect 17 0 19 0;
#X connect 18 0 19 1;
#X connect 19 0 31 0;
#X connect 19 1 32 0;
#X connect 21 0 20 0;
#X connect 23 0 22 0;
#X connect 24 0 42 0;
#X connect 25 0 29 0;
#X connect 28 0 32 1;
#X connect 28 0 31 1;
#X connect 29 0 30 0;
#X connect 30 0 39 0;
#X connect 31 0 33 0;
#X connect 32 0 35 0;
#X connect 33 0 34 0;
#X connect 34 0 37 0;
#X connect 34 0 40 0;
#X connect 35 0 36 0;
#X connect 36 0 37 1;
#X connect 36 0 40 1;
#X connect 38 0 26 0;
#X connect 39 0 28 0;
#X connect 42 0 41 0;
#X restore 1551 23 pd config;
#X obj 112 84 nbx 7 15 0 24000 0 0 fundamental set_hz_fundamental hz
100 9 0 14 #6f4060 #d8d9bf #cbccb3 0 256;
#X obj 112 300 vis_param ratio 0;
#X obj 150 300 vis_param ratio 1;
#X obj 187 300 vis_param ratio 2;
#X obj 224 300 vis_param ratio 3;
#X obj 262 300 vis_param ratio 4;
#X obj 300 300 vis_param ratio 5;
#X obj 337 300 vis_param ratio 6;
#X obj 374 300 vis_param ratio 7;
#X obj 412 300 vis_param ratio 8;
#X obj 450 300 vis_param ratio 9;
#X obj 487 300 vis_param ratio 10;
#X obj 524 300 vis_param ratio 11;
#X obj 562 300 vis_param ratio 12;
#X obj 600 300 vis_param ratio 13;
#X obj 637 300 vis_param ratio 14;
#X obj 674 300 vis_param ratio 15;
#X obj 712 300 vis_param ratio 16;
#X obj 750 300 vis_param ratio 17;
#X obj 787 300 vis_param ratio 18;
#X obj 824 300 vis_param ratio 19;
#X obj 862 300 vis_param ratio 20;
#X obj 900 300 vis_param ratio 21;
#X obj 937 300 vis_param ratio 22;
#X obj 974 300 vis_param ratio 23;
#X obj 1012 300 vis_param ratio 24;
#X obj 1050 300 vis_param ratio 25;
#X obj 1087 300 vis_param ratio 26;
#X obj 1124 300 vis_param ratio 27;
#X obj 1162 300 vis_param ratio 28;
#X obj 1200 300 vis_param ratio 29;
#X obj 1237 300 vis_param ratio 30;
#X obj 1274 300 vis_param ratio 31;
#X obj 1312 300 vis_param ratio 32;
#X obj 1350 300 vis_param ratio 33;
#X obj 1387 300 vis_param ratio 34;
#X obj 1424 300 vis_param ratio 35;
#X obj 1462 300 vis_param ratio 36;
#X obj 1500 300 vis_param ratio 37;
#X obj 1537 300 vis_param ratio 38;
#X obj 1574 300 vis_param ratio 39;
#X obj 112 510 vis_param volume 0;
#X obj 150 510 vis_param volume 1;
#X obj 187 510 vis_param volume 2;
#X obj 224 510 vis_param volume 3;
#X obj 262 510 vis_param volume 4;
#X obj 300 510 vis_param volume 5;
#X obj 337 510 vis_param volume 6;
#X obj 374 510 vis_param volume 7;
#X obj 412 510 vis_param volume 8;
#X obj 450 510 vis_param volume 9;
#X obj 487 510 vis_param volume 10;
#X obj 524 510 vis_param volume 11;
#X obj 562 510 vis_param volume 12;
#X obj 600 510 vis_param volume 13;
#X obj 637 510 vis_param volume 14;
#X obj 674 510 vis_param volume 15;
#X obj 712 510 vis_param volume 16;
#X obj 750 510 vis_param volume 17;
#X obj 787 510 vis_param volume 18;
#X obj 824 510 vis_param volume 19;
#X obj 862 510 vis_param volume 20;
#X obj 900 510 vis_param volume 21;
#X obj 937 510 vis_param volume 22;
#X obj 974 510 vis_param volume 23;
#X obj 1012 510 vis_param volume 24;
#X obj 1050 510 vis_param volume 25;
#X obj 1087 510 vis_param volume 26;
#X obj 1124 510 vis_param volume 27;
#X obj 1162 510 vis_param volume 28;
#X obj 1200 510 vis_param volume 29;
#X obj 1237 510 vis_param volume 30;
#X obj 1274 510 vis_param volume 31;
#X obj 1312 510 vis_param volume 32;
#X obj 1350 510 vis_param volume 33;
#X obj 1387 510 vis_param volume 34;
#X obj 1424 510 vis_param volume 35;
#X obj 1462 510 vis_param volume 36;
#X obj 1500 510 vis_param volume 37;
#X obj 1537 510 vis_param volume 38;
#X obj 1574 510 vis_param volume 39;
#X obj 112 620 vis_param pan 0;
#X obj 150 620 vis_param pan 1;
#X obj 187 620 vis_param pan 2;
#X obj 224 620 vis_param pan 3;
#X obj 262 620 vis_param pan 4;
#X obj 300 620 vis_param pan 5;
#X obj 337 620 vis_param pan 6;
#X obj 374 620 vis_param pan 7;
#X obj 412 620 vis_param pan 8;
#X obj 450 620 vis_param pan 9;
#X obj 487 620 vis_param pan 10;
#X obj 524 620 vis_param pan 11;
#X obj 562 620 vis_param pan 12;
#X obj 600 620 vis_param pan 13;
#X obj 637 620 vis_param pan 14;
#X obj 674 620 vis_param pan 15;
#X obj 712 620 vis_param pan 16;
#X obj 750 620 vis_param pan 17;
#X obj 787 620 vis_param pan 18;
#X obj 824 620 vis_param pan 19;
#X obj 862 620 vis_param pan 20;
#X obj 900 620 vis_param pan 21;
#X obj 937 620 vis_param pan 22;
#X obj 974 620 vis_param pan 23;
#X obj 1012 620 vis_param pan 24;
#X obj 1050 620 vis_param pan 25;
#X obj 1087 620 vis_param pan 26;
#X obj 1124 620 vis_param pan 27;
#X obj 1162 620 vis_param pan 28;
#X obj 1200 620 vis_param pan 29;
#X obj 1237 620 vis_param pan 30;
#X obj 1274 620 vis_param pan 31;
#X obj 1312 620 vis_param pan 32;
#X obj 1350 620 vis_param pan 33;
#X obj 1387 620 vis_param pan 34;
#X obj 1424 620 vis_param pan 35;
#X obj 1462 620 vis_param pan 36;
#X obj 1500 620 vis_param pan 37;
#X obj 1537 620 vis_param pan 38;
#X obj 1574 620 vis_param pan 39;
#X obj 112 544 cnv 15 200 20 empty empty PAN 0 12 0 14 #3f3154 #d8d9bf
0;
#X obj 112 175 cnv 15 200 20 empty empty RATIO 0 12 0 14 #3f3154 #d8d9bf
0;
#X obj 112 335 cnv 15 200 20 empty empty VOLUME 0 12 0 14 #3f3154 #d8d9bf
0;
#X obj 112 150 harm_param 0;
#X obj 150 150 harm_param 1;
#X obj 187 150 harm_param 2;
#X obj 224 150 harm_param 3;
#X obj 262 150 harm_param 4;
#X obj 300 150 harm_param 5;
#X obj 337 150 harm_param 6;
#X obj 374 150 harm_param 7;
#X obj 412 150 harm_param 8;
#X obj 450 150 harm_param 9;
#X obj 487 150 harm_param 10;
#X obj 524 150 harm_param 11;
#X obj 562 150 harm_param 12;
#X obj 600 150 harm_param 13;
#X obj 637 150 harm_param 14;
#X obj 674 150 harm_param 15;
#X obj 712 150 harm_param 16;
#X obj 750 150 harm_param 17;
#X obj 787 150 harm_param 18;
#X obj 824 150 harm_param 19;
#X obj 862 150 harm_param 20;
#X obj 900 150 harm_param 21;
#X obj 937 150 harm_param 22;
#X obj 974 150 harm_param 23;
#X obj 1012 150 harm_param 24;
#X obj 1050 150 harm_param 25;
#X obj 1087 150 harm_param 26;
#X obj 1124 150 harm_param 27;
#X obj 1162 150 harm_param 28;
#X obj 1200 150 harm_param 29;
#X obj 1237 150 harm_param 30;
#X obj 1274 150 harm_param 31;
#X obj 1312 150 harm_param 32;
#X obj 1350 150 harm_param 33;
#X obj 1387 150 harm_param 34;
#X obj 1424 150 harm_param 35;
#X obj 1462 150 harm_param 36;
#X obj 1500 150 harm_param 37;
#X obj 1537 150 harm_param 38;
#X obj 1574 150 harm_param 39;
#X obj 112 125 cnv 15 200 20 empty empty HARMONICS 0 12 0 14 #3f3154
#d8d9bf 0;
#X obj 244 34 else/keyboard 21 74 8 0 0 1 set_midi_fundamental nothing
;
#X obj 112 35 cnv 15 20 20 empty empty FUNDAMENTAL 0 12 0 14 #3f3154
#d8d9bf 0;
#X obj 23 149 else/multi.vsl 45 440 0 200 1 empty master master_params
63 51 84 111 64 97 217 217 192 1 1 1 holder holder 0;
#X obj 22 125 cnv 15 20 20 empty empty MASTER 0 12 0 14 #3f3154 #d8d9bf
0;
#X obj 14 34 tgl 80 0 recMsg MIDI_recMsg empty 17 7 0 48 #fcfcfc #000000
#000000 0 127;
#X obj 14 34 cnv 15 80 80 empty recStatus REC 20 44 0 24 #6f4060 #d8d9bf
0;
