#N canvas 29 62 1297 655 10;
#N canvas 65 25 1428 715 config 0;
#X msg 16 16 send volume \, receive volume_params;
#X obj 15 140 send volume_params;
#X msg 16 38 send ratio \, receive ratio_params;
#X msg 16 61 send pan \, receive pan_params;
#X obj 16 188 send ratio_params;
#X obj 18 235 send pan_params;
#X obj 390 86 r fundamental;
#X obj 390 41 mtof;
#X obj 390 19 r midi_fundamental;
#X obj 390 63 s set_hz_fundamental;
#X obj 390 108 ftom;
#X msg 390 129 set \$1;
#X obj 391 151 s set_midi_fundamental;
#X obj 139 324 r pan;
#X obj 28 324 r ratio;
#X obj 83 324 r volume;
#X obj 28 347 clone jurado-osc 40;
#X obj 548 18 loadbang;
#X obj 179 322 r master;
#X obj 18 282 send master_params;
#X msg 14 82 send master \, receive master_params;
#X obj 177 407 line~;
#X obj 178 343 * 0.01;
#X obj 178 365 pow 3;
#X obj 26 501 *~;
#X obj 139 495 *~;
#X obj 26 521 expr~ atan($v1);
#X obj 26 543 *~ 0.63662;
#X obj 139 521 expr~ atan($v1);
#X obj 139 543 *~ 0.63662;
#X obj 23 596 dac~ 1 2, f 20;
#X msg 177 385 \$1 30;
#N canvas 421 25 889 667 grabacion 0;
#X msg 558 502 open \$1 \, start;
#X msg 567 630 stop;
#X obj 700 120 time;
#X obj 511 89 t b b;
#X obj 644 174 makefilename 0%d;
#X obj 644 151 moses 10;
#X obj 707 224 makefilename 0%d;
#X obj 707 201 moses 10;
#X obj 770 271 makefilename 0%d;
#X obj 770 248 moses 10;
#X obj 393 222 makefilename 0%d;
#X obj 393 199 moses 10;
#X obj 456 272 makefilename 0%d;
#X obj 456 249 moses 10;
#X obj 519 319 makefilename 0%d;
#X obj 519 296 moses 10;
#X obj 393 367 list append;
#X obj 456 344 list append;
#X obj 511 113 date;
#X obj 393 389 list2symbol -;
#X obj 531 413 list append;
#X obj 531 434 list2symbol @;
#X obj 558 656 s recInstr;
#X obj 567 528 r recMsg;
#X obj 567 549 sel 0;
#X obj 525 21 r recMsg;
#X obj 707 296 list append;
#X obj 644 319 list append;
#X obj 644 341 list2symbol ';
#X obj 514 677 s recFades;
#X obj 531 480 t b s;
#X msg 514 530 0 \, 1 50;
#X obj 567 573 t b b;
#X obj 567 606 delay 55;
#X msg 525 607 0 50;
#X obj 27 215 r recInstr;
#X obj 258 93 r recFades;
#X obj 258 118 line~;
#X obj 250 183 *~;
#X obj 525 64 sel 1;
#X obj 525 42 != 0;
#X obj 160 260 writesf~ 2;
#X obj 142 452 r recMsg;
#X obj 81 479 metro 500;
#X obj 81 503 tgl 15 0 empty empty empty 17 7 0 10 #fcfcfc #000000
#000000 0 1;
#X obj 81 524 sel 0 1;
#X msg 100 546 symbol STOP;
#X msg 81 566 symbol;
#X obj 142 479 sel 0;
#X obj 147 67 inlet~;
#X obj 197 67 inlet~;
#X obj 159 177 *~;
#X msg 144 504 \; recStatus label REC \, label_pos 7 23 \, color #6f4060
22 #d8d9bf;
#X msg 81 593 \; recStatus label \$1 \, label_pos 1 23 \, color #d8d9bf
22 #3f3254;
#X obj 531 459 makefilename ../spectrum_%s.wav;
#X connect 0 0 22 0;
#X connect 1 0 22 0;
#X connect 2 0 5 0;
#X connect 2 1 7 0;
#X connect 2 2 9 0;
#X connect 3 0 18 0;
#X connect 3 1 2 0;
#X connect 4 0 27 0;
#X connect 5 0 4 0;
#X connect 5 1 27 0;
#X connect 6 0 26 0;
#X connect 7 0 6 0;
#X connect 7 1 26 0;
#X connect 8 0 26 1;
#X connect 9 0 8 0;
#X connect 9 1 26 1;
#X connect 10 0 16 0;
#X connect 11 0 10 0;
#X connect 11 1 16 0;
#X connect 12 0 17 0;
#X connect 13 0 12 0;
#X connect 13 1 17 0;
#X connect 14 0 17 1;
#X connect 15 0 14 0;
#X connect 15 1 17 1;
#X connect 16 0 19 0;
#X connect 17 0 16 1;
#X connect 18 0 11 0;
#X connect 18 1 13 0;
#X connect 18 2 15 0;
#X connect 19 0 20 0;
#X connect 20 0 21 0;
#X connect 21 0 54 0;
#X connect 23 0 24 0;
#X connect 24 0 32 0;
#X connect 25 0 40 0;
#X connect 26 0 27 1;
#X connect 27 0 28 0;
#X connect 28 0 20 1;
#X connect 30 0 31 0;
#X connect 30 1 0 0;
#X connect 31 0 29 0;
#X connect 32 0 33 0;
#X connect 32 1 34 0;
#X connect 33 0 1 0;
#X connect 34 0 29 0;
#X connect 35 0 41 0;
#X connect 36 0 37 0;
#X connect 37 0 38 1;
#X connect 37 0 51 1;
#X connect 38 0 41 1;
#X connect 39 0 3 0;
#X connect 40 0 39 0;
#X connect 42 0 43 0;
#X connect 42 0 48 0;
#X connect 43 0 44 0;
#X connect 44 0 45 0;
#X connect 45 0 47 0;
#X connect 45 1 46 0;
#X connect 46 0 53 0;
#X connect 47 0 53 0;
#X connect 48 0 52 0;
#X connect 49 0 51 0;
#X connect 50 0 38 0;
#X connect 51 0 41 0;
#X connect 54 0 30 0;
#X restore 34 567 pd grabacion;
#X obj 548 39 delay 10;
#X msg 17 259 n 1 \, dim 45 485 \, range 0 200 \, mode 1;
#X msg 1222 530 clear;
#X msg 295 594 write \$1;
#X obj 295 378 savepanel;
#X obj 295 401 t s b b b b b b, f 155;
#X obj 604 478 array get vol_array;
#X obj 763 476 array get ratio_array;
#X obj 449 475 array get pan_array;
#X obj 913 482 array get harm_array;
#X obj 449 517 list prepend add;
#X obj 449 539 list trim;
#X obj 604 520 list prepend add;
#X obj 604 542 list trim;
#X obj 763 520 list prepend add;
#X obj 763 542 list trim;
#X obj 913 522 list prepend add;
#X obj 913 544 list trim;
#X obj 622 233 openpanel;
#X obj 295 673 textfile;
#X obj 622 288 until;
#X obj 622 257 t b a, f 9;
#X obj 622 325 textfile, f 19;
#X msg 673 280 read \$1 \, rewind;
#X obj 622 375 send;
#X obj 604 500 list append volume_params;
#X obj 449 497 list append pan_params;
#X obj 763 500 list append ratio_params;
#X obj 913 502 list append harm_params;
#N canvas 0 22 450 278 (subpatch) 0;
#X array harm_array 36 float 2;
#X coords 0 36 36 0 200 140 1 0 0;
#X restore 398 218 graph;
#X obj 622 210 r load_preset;
#X obj 295 353 r save_preset;
#X obj 808 434 r mem_ratio;
#X obj 958 440 r mem_harm;
#X obj 649 436 r mem_vol;
#X obj 494 429 r mem_pan;
#X obj 449 452 spigot 0;
#X obj 604 457 spigot 0;
#X obj 763 455 spigot 0;
#X obj 913 461 spigot 0;
#X obj 622 350 list split 36;
#X msg 16 166 n 36 \, dim 1175 100 \, range -0.5 0.5 \, rename ratio_array
;
#X msg 18 212 n 36 \, dim 1175 50 \, range -1 1 \, rename pan_array
;
#X msg 15 117 n 36 \, dim 1175 150 \, range 0 100 \, rename vol_array
;
#X msg 548 63 \; set_midi_fundamental 36 \; set_mod-rate 1 \; set_mod-depth
0 \; master_params 0 \; harm_params 1 2 3 4 5 6 7 8 9 10 11 12 13 14
15 16 17 18 19 20 21 22 23 24 25 26 27 28 29 30 31 32 33 34 35 36 \;
ratio_params 0 0 0 0 0 0 0 0 0 0 0 0 0 0 0 0 0 0 0 0 0 0 0 0 0 0 0
0 0 0 0 0 0 0 0 0 \; volume_params 100 98 96 94 92 90 88 86 84 82 80
78 76 74 72 70 68 66 64 62 60 58 56 54 52 50 48 46 44 42 40 38 36 34
32 30 \; pan_params 0 0.1 -0.1 0.2 -0.2 0.3 -0.3 0.4 -0.4 0.5 -0.5
0.6 -0.6 0.7 -0.7 0.8 -0.8 0.9 -0.9 1 -1 0.95 -0.95 0.85 -0.85 0.75
-0.75 0.65 -0.65 0.55 -0.55 0.45 -0.45 0.35 -0.35 \; pd dsp 1, f 140
;
#X obj 1067 456 spigot 0;
#X obj 1112 435 r mem_mod;
#X obj 1071 522 list prepend add;
#X obj 1072 542 list trim;
#X obj 1071 482 array get mod_array;
#X obj 1071 501 list append mod_params;
#N canvas 0 22 450 278 (subpatch) 0;
#X array mod_array 36 float 2;
#X coords 0 36 36 0 200 140 1 0 0;
#X restore 1119 223 graph;
#X obj 902 215 r mod-rate;
#X obj 981 216 r mod-depth;
#X obj 947 289 tabwrite mod_array;
#X obj 836 310 r mod_params;
#X obj 836 333 unpack;
#X obj 823 365 s set_mod-rate;
#X obj 914 365 s set_mod-depth;
#X obj 308 290 s pan_params;
#X msg 322 258 setall 0;
#X msg 909 251 \$1 0;
#X msg 975 245 \$1 1;
#X connect 6 0 10 0;
#X connect 7 0 9 0;
#X connect 8 0 7 0;
#X connect 10 0 11 0;
#X connect 11 0 12 0;
#X connect 13 0 16 2;
#X connect 14 0 16 0;
#X connect 15 0 16 1;
#X connect 16 0 24 0;
#X connect 16 1 25 0;
#X connect 17 0 33 0;
#X connect 18 0 22 0;
#X connect 21 0 25 1;
#X connect 21 0 24 1;
#X connect 22 0 23 0;
#X connect 23 0 31 0;
#X connect 24 0 26 0;
#X connect 25 0 28 0;
#X connect 26 0 27 0;
#X connect 27 0 30 0;
#X connect 27 0 32 0;
#X connect 28 0 29 0;
#X connect 29 0 30 1;
#X connect 29 0 32 1;
#X connect 31 0 21 0;
#X connect 33 0 77 0;
#X connect 34 0 19 0;
#X connect 35 0 52 0;
#X connect 36 0 52 0;
#X connect 37 0 38 0;
#X connect 38 0 36 0;
#X connect 38 1 69 0;
#X connect 38 2 70 0;
#X connect 38 3 71 0;
#X connect 38 4 72 0;
#X connect 38 5 78 0;
#X connect 38 6 35 0;
#X connect 39 0 58 0;
#X connect 40 0 60 0;
#X connect 41 0 59 0;
#X connect 42 0 61 0;
#X connect 43 0 44 0;
#X connect 44 0 52 0;
#X connect 45 0 46 0;
#X connect 46 0 52 0;
#X connect 47 0 48 0;
#X connect 48 0 52 0;
#X connect 49 0 50 0;
#X connect 50 0 52 0;
#X connect 51 0 54 0;
#X connect 53 0 55 0;
#X connect 54 0 53 0;
#X connect 54 1 56 0;
#X connect 55 0 73 0;
#X connect 55 1 53 1;
#X connect 56 0 55 0;
#X connect 58 0 45 0;
#X connect 59 0 43 0;
#X connect 60 0 47 0;
#X connect 61 0 49 0;
#X connect 63 0 51 0;
#X connect 64 0 37 0;
#X connect 65 0 71 1;
#X connect 66 0 72 1;
#X connect 67 0 70 1;
#X connect 68 0 69 1;
#X connect 69 0 41 0;
#X connect 70 0 39 0;
#X connect 71 0 40 0;
#X connect 72 0 42 0;
#X connect 73 0 57 0;
#X connect 73 1 57 1;
#X connect 74 0 4 0;
#X connect 75 0 5 0;
#X connect 76 0 1 0;
#X connect 78 0 82 0;
#X connect 79 0 78 1;
#X connect 80 0 81 0;
#X connect 81 0 52 0;
#X connect 82 0 83 0;
#X connect 83 0 80 0;
#X connect 85 0 94 0;
#X connect 86 0 95 0;
#X connect 88 0 89 0;
#X connect 89 0 90 0;
#X connect 89 1 91 0;
#X connect 93 0 92 0;
#X connect 94 0 87 0;
#X connect 95 0 87 0;
#X restore 1055 5 pd config;
#X obj 0 0 cnv 15 1260 620 empty empty empty 20 12 0 14 #d7d7be #404040
0;
#X obj 89 44 nbx 5 15 0 127 0 0 midi_fundamental set_midi_fundamental
midi 78 9 0 14 #6f4060 #d8d9bf #3f3353 0 256;
#X obj 69 322 else/multi.vsl 1175 150 0 100 36 vol_array volume volume_params
63 51 84 111 64 97 217 217 192 1 1 0 holder holder 100 98 96 94 92
90 88 86 84 82 80 78 76 74 72 70 68 66 64 62 60 58 56 54 52 50 48 46
44 42 40 38 36 34 32 30;
#X obj 69 162 else/multi.vsl 1175 100 -0.5 0.5 36 ratio_array ratio
ratio_params 63 51 84 111 64 97 217 217 192 1 1 0 holder holder 0 0
0 0 0 0 0 0 0 0 0 0 0 0 0 0 0 0 0 0 0 0 0 0 0 0 0 0 0 0 0 0 0 0 0 0
;
#X obj 69 532 else/multi.vsl 1175 50 -1 1 36 pan_array pan pan_params
63 51 84 111 64 97 217 217 192 1 1 0 holder holder 0 0.1 -0.1 0.2 -0.2
0.3 -0.3 0.4 -0.4 0.5 -0.5 0.6 -0.6 0.7 -0.7 0.8 -0.8 0.9 -0.9 1 -1
0.95 -0.95 0.85 -0.85 0.75 -0.75 0.65 -0.65 0.55 -0.55 0.45 -0.45 0.35
-0.35 -0.16;
#X obj 89 64 nbx 7 15 0 24000 0 0 fundamental set_hz_fundamental hz
100 9 0 14 #6f4060 #d8d9bf #3f3353 0 256;
#X obj 69 266 vis_param ratio 0;
#X obj 101 266 vis_param ratio 1;
#X obj 134 266 vis_param ratio 2;
#X obj 167 266 vis_param ratio 3;
#X obj 199 266 vis_param ratio 4;
#X obj 232 266 vis_param ratio 5;
#X obj 265 266 vis_param ratio 6;
#X obj 297 266 vis_param ratio 7;
#X obj 330 266 vis_param ratio 8;
#X obj 363 266 vis_param ratio 9;
#X obj 395 266 vis_param ratio 10;
#X obj 428 266 vis_param ratio 11;
#X obj 461 266 vis_param ratio 12;
#X obj 493 266 vis_param ratio 13;
#X obj 526 266 vis_param ratio 14;
#X obj 559 266 vis_param ratio 15;
#X obj 591 266 vis_param ratio 16;
#X obj 624 266 vis_param ratio 17;
#X obj 657 266 vis_param ratio 18;
#X obj 689 266 vis_param ratio 19;
#X obj 722 266 vis_param ratio 20;
#X obj 754 266 vis_param ratio 21;
#X obj 787 266 vis_param ratio 22;
#X obj 820 266 vis_param ratio 23;
#X obj 852 266 vis_param ratio 24;
#X obj 885 266 vis_param ratio 25;
#X obj 918 266 vis_param ratio 26;
#X obj 950 266 vis_param ratio 27;
#X obj 983 266 vis_param ratio 28;
#X obj 1016 266 vis_param ratio 29;
#X obj 1048 266 vis_param ratio 30;
#X obj 1081 266 vis_param ratio 31;
#X obj 1113 266 vis_param ratio 32;
#X obj 1146 266 vis_param ratio 33;
#X obj 1179 266 vis_param ratio 34;
#X obj 1211 266 vis_param ratio 35;
#X obj 69 476 vis_param volume 0;
#X obj 102 476 vis_param volume 1;
#X obj 134 476 vis_param volume 2;
#X obj 167 476 vis_param volume 3;
#X obj 200 476 vis_param volume 4;
#X obj 232 476 vis_param volume 5;
#X obj 265 476 vis_param volume 6;
#X obj 298 476 vis_param volume 7;
#X obj 331 476 vis_param volume 8;
#X obj 364 476 vis_param volume 9;
#X obj 396 476 vis_param volume 10;
#X obj 429 476 vis_param volume 11;
#X obj 462 476 vis_param volume 12;
#X obj 493 476 vis_param volume 13;
#X obj 526 476 vis_param volume 14;
#X obj 560 476 vis_param volume 15;
#X obj 592 476 vis_param volume 16;
#X obj 625 476 vis_param volume 17;
#X obj 657 476 vis_param volume 18;
#X obj 690 476 vis_param volume 19;
#X obj 723 476 vis_param volume 20;
#X obj 754 476 vis_param volume 21;
#X obj 787 476 vis_param volume 22;
#X obj 820 476 vis_param volume 23;
#X obj 852 476 vis_param volume 24;
#X obj 886 476 vis_param volume 25;
#X obj 919 476 vis_param volume 26;
#X obj 951 476 vis_param volume 27;
#X obj 984 476 vis_param volume 28;
#X obj 1016 476 vis_param volume 29;
#X obj 1048 476 vis_param volume 30;
#X obj 1081 476 vis_param volume 31;
#X obj 1113 476 vis_param volume 32;
#X obj 1146 476 vis_param volume 33;
#X obj 1180 476 vis_param volume 34;
#X obj 1212 476 vis_param volume 35;
#X obj 69 586 vis_param pan 0;
#X obj 102 586 vis_param pan 1;
#X obj 134 586 vis_param pan 2;
#X obj 167 586 vis_param pan 3;
#X obj 200 586 vis_param pan 4;
#X obj 232 586 vis_param pan 5;
#X obj 266 586 vis_param pan 6;
#X obj 298 586 vis_param pan 7;
#X obj 330 586 vis_param pan 8;
#X obj 363 586 vis_param pan 9;
#X obj 396 586 vis_param pan 10;
#X obj 428 586 vis_param pan 11;
#X obj 461 586 vis_param pan 12;
#X obj 494 586 vis_param pan 13;
#X obj 526 586 vis_param pan 14;
#X obj 560 586 vis_param pan 15;
#X obj 591 586 vis_param pan 16;
#X obj 624 586 vis_param pan 17;
#X obj 657 586 vis_param pan 18;
#X obj 690 586 vis_param pan 19;
#X obj 723 586 vis_param pan 20;
#X obj 754 586 vis_param pan 21;
#X obj 788 586 vis_param pan 22;
#X obj 821 586 vis_param pan 23;
#X obj 852 586 vis_param pan 24;
#X obj 886 586 vis_param pan 25;
#X obj 918 586 vis_param pan 26;
#X obj 951 586 vis_param pan 27;
#X obj 983 586 vis_param pan 28;
#X obj 1017 586 vis_param pan 29;
#X obj 1048 586 vis_param pan 30;
#X obj 1081 586 vis_param pan 31;
#X obj 1113 586 vis_param pan 32;
#X obj 1146 586 vis_param pan 33;
#X obj 1180 586 vis_param pan 34;
#X obj 1212 586 vis_param pan 35;
#X obj 69 510 cnv 15 200 20 empty empty PAN 0 12 0 14 #d7d7bd #3f3353
0;
#X obj 69 141 cnv 15 200 20 empty empty RATIO 0 12 0 14 #d7d7bd #3f3353
0;
#X obj 69 301 cnv 15 200 20 empty empty VOLUME 0 12 0 14 #d7d7bd #3f3353
0;
#X obj 69 113 harm_param 0;
#X obj 102 113 harm_param 1;
#X obj 134 113 harm_param 2;
#X obj 167 113 harm_param 3;
#X obj 200 113 harm_param 4;
#X obj 232 113 harm_param 5;
#X obj 265 113 harm_param 6;
#X obj 297 113 harm_param 7;
#X obj 330 113 harm_param 8;
#X obj 364 113 harm_param 9;
#X obj 395 113 harm_param 10;
#X obj 428 113 harm_param 11;
#X obj 461 113 harm_param 12;
#X obj 493 113 harm_param 13;
#X obj 526 113 harm_param 14;
#X obj 559 113 harm_param 15;
#X obj 591 113 harm_param 16;
#X obj 624 113 harm_param 17;
#X obj 657 113 harm_param 18;
#X obj 689 113 harm_param 19;
#X obj 722 113 harm_param 20;
#X obj 754 113 harm_param 21;
#X obj 787 113 harm_param 22;
#X obj 820 113 harm_param 23;
#X obj 852 113 harm_param 24;
#X obj 885 113 harm_param 25;
#X obj 918 113 harm_param 26;
#X obj 950 113 harm_param 27;
#X obj 983 113 harm_param 28;
#X obj 1016 113 harm_param 29;
#X obj 1048 113 harm_param 30;
#X obj 1081 113 harm_param 31;
#X obj 1113 113 harm_param 32;
#X obj 1146 113 harm_param 33;
#X obj 1179 113 harm_param 34;
#X obj 1211 113 harm_param 35;
#X obj 69 91 cnv 15 200 20 empty empty HARMONICS 0 12 0 14 #d7d7bd
#3f3353 0;
#X obj 218 40 else/keyboard 14 50 5 0 0 1 set_midi_fundamental nothing
;
#X obj 89 11 cnv 15 20 20 empty empty FUNDAMENTAL 0 12 0 14 #d7d7bd
#3e3252 0;
#X obj 10 115 else/multi.vsl 45 485 0 200 1 empty master master_params
63 51 84 111 64 97 217 217 192 1 1 1 holder holder 0;
#X obj 9 91 cnv 15 20 20 empty empty MASTER 0 12 0 14 #d7d7bd #3f3353
0;
#X obj 11 30 tgl 45 0 recMsg MIDI_recMsg empty 17 7 0 48 #fcfcfc #000000
#000000 0 127;
#X obj 11 30 cnv 15 45 45 empty recStatus REC 7 23 0 18 #6f4060 #d8d9bf
0;
#X obj 992 39 tgl 15 0 mem_vol sdfadfadfadfdfsd volume 20 7 0 10 #6e3f60
#d9d9bf #3f3353 0 1;
#X obj 992 59 tgl 15 0 mem_pan sdfasdfadfadfdaf pan 20 7 0 10 #6e3f60
#d9d9bf #3f3353 0 1;
#X obj 912 39 tgl 15 0 mem_harm xxxx harmonics 20 7 0 10 #6e3f60 #d9d9bf
#3f3353 0 1;
#X obj 912 59 tgl 15 0 mem_ratio cccccc ratio 20 7 0 10 #6e3f60 #d9d9bf
#3f3353 0 1;
#X obj 858 44 bng 45 250 50 0 save_preset sssssssssss SAVE 5 23 0 15
#6e3f60 #3f3353 #d7d7bd;
#X obj 1058 41 bng 45 250 50 0 load_preset sssssssssss LOAD 5 23 0
15 #6e3f60 #3f3353 #d7d7bd;
#X obj 1245 106 cnv 15 14 500 empty empty empty 20 12 0 14 #d7d7bd
#404040 0;
#X obj 736 79 hsl 100 15 0 1 0 0 mod-depth set_mod-depth depth -2 -8
0 10 #6e3f60 #d7d7bd #3f3353 0 1;
#X obj 736 46 hsl 100 15 0.01 10 1 0 mod-rate set_mod-rate rate -2
-8 0 10 #6e3f60 #d7d7bd #3f3353 0 1;
#X obj 733 11 cnv 15 20 20 empty empty MODULATION 0 12 0 14 #d7d7bd
#3e3252 0;
#X obj 858 11 cnv 15 20 20 empty empty MEMORIES 0 12 0 14 #d7d7bd #3e3252
0;
#X obj 912 79 tgl 15 0 mem_mod sdfasdfadfadfdaf modulation 20 7 0 10
#6e3f60 #d9d9bf #3f3353 0 1;
#X coords 0 -1 1 1 1260 620 1 0 0;
