#N canvas 331 25 428 658 10;
#X obj 93 188 osc~;
#X obj 107 91 inlet;
#X obj 148 215 inlet;
#X obj 193 381 inlet;
#X obj 93 165 * 1, f 18;
#X obj 171 118 r fundamental;
#X obj 171 140 t b f;
#X obj 66 17 r harm_\$1;
#X obj 93 138 +;
#X obj 107 113 t b f;
#X obj 22 204 line~;
#X msg 22 181 \$1 10;
#X obj 66 42 t f f;
#X obj 22 69 != 0;
#X obj 22 94 change -1;
#X obj 22 233 *~, f 12;
#X obj 22 389 *~;
#X obj 148 236 * 0.01;
#X obj 148 305 line~;
#X msg 148 282 \$1 10;
#X text 105 73 ratio;
#X text 145 194 volume;
#X obj 93 212 *~ 0.1;
#X obj 22 601 *~;
#X obj 178 593 *~;
#X obj 193 570 abs~;
#X obj 193 549 -~ 1;
#X obj 193 468 +~ 0.5;
#X obj 193 447 *~ 0.5;
#X text 198 362 pan;
#X obj 22 620 outlet~;
#X obj 179 612 outlet~;
#X obj 193 426 line~;
#X msg 193 403 \$1 10;
#X obj 265 205 noisi~;
#X obj 335 250 line~;
#X msg 335 227 \$1 10;
#X obj 265 289 *~;
#X obj 193 501 +~, f 10;
#X obj 269 149 r mod-rate;
#X obj 335 183 r mod-depth;
#X obj 148 332 +~, f 9;
#X obj 265 240 lop~ 10;
#X obj 193 523 clip~ 0 1;
#X obj 335 205 pow 2;
#X obj 148 260 pow 2;
#X connect 0 0 22 0;
#X connect 1 0 9 0;
#X connect 2 0 17 0;
#X connect 3 0 33 0;
#X connect 4 0 0 0;
#X connect 5 0 6 0;
#X connect 6 0 4 0;
#X connect 6 1 4 1;
#X connect 7 0 12 0;
#X connect 8 0 4 0;
#X connect 9 0 8 0;
#X connect 9 1 8 1;
#X connect 10 0 15 0;
#X connect 11 0 10 0;
#X connect 12 0 13 0;
#X connect 12 1 8 0;
#X connect 13 0 14 0;
#X connect 14 0 11 0;
#X connect 15 0 16 0;
#X connect 16 0 23 0;
#X connect 16 0 24 0;
#X connect 17 0 45 0;
#X connect 18 0 41 0;
#X connect 19 0 18 0;
#X connect 22 0 15 1;
#X connect 23 0 30 0;
#X connect 24 0 31 0;
#X connect 25 0 24 1;
#X connect 26 0 25 0;
#X connect 27 0 38 0;
#X connect 28 0 27 0;
#X connect 32 0 28 0;
#X connect 33 0 32 0;
#X connect 34 0 42 0;
#X connect 35 0 37 1;
#X connect 36 0 35 0;
#X connect 37 0 38 1;
#X connect 37 0 41 1;
#X connect 38 0 43 0;
#X connect 39 0 34 0;
#X connect 40 0 44 0;
#X connect 41 0 16 1;
#X connect 42 0 37 0;
#X connect 43 0 23 1;
#X connect 43 0 26 0;
#X connect 44 0 36 0;
#X connect 45 0 19 0;
