#N canvas 935 247 299 238 10;
#X obj 61 210 outlet~;
#X obj 105 145 *~ 0;
#X obj 32 146 vline~;
#X msg 32 123 \$1 20;
#X obj 105 77 noise~;
#X obj 105 99 samphold~;
#X obj 156 77 phasor~;
#X obj 126 123 r \$1.dev;
#X obj 32 100 r \$1.mean;
#X obj 195 56 r phase.sync;
#X obj 156 13 inlet~;
#X obj 171 34 inlet~;
#X obj 156 56 /~;
#X obj 61 186 +~;
#X connect 1 0 13 1;
#X connect 2 0 13 0;
#X connect 3 0 2 0;
#X connect 4 0 5 0;
#X connect 5 0 1 0;
#X connect 6 0 5 1;
#X connect 7 0 1 1;
#X connect 8 0 3 0;
#X connect 9 0 6 1;
#X connect 10 0 12 0;
#X connect 11 0 12 1;
#X connect 12 0 6 0;
#X connect 13 0 0 0;
