#N canvas 0 22 301 205 10;
#X obj 23 113 wrap~;
#X obj 114 16 inlet;
#X obj 23 44 inlet~;
#X obj 23 91 /~ \$1;
#X obj 23 137 *~ \$1;
#X obj 23 159 outlet~;
#X obj 23 65 expr~ if ($v1 == 0 \, $f2 \, $v1);
#X obj 194 40 \$1;
#X obj 194 19 loadbang;
#X text 29 180 angel faraldo 2008;
#X connect 0 0 4 0;
#X connect 1 0 3 1;
#X connect 1 0 4 1;
#X connect 1 0 6 1;
#X connect 2 0 6 0;
#X connect 3 0 0 0;
#X connect 4 0 5 0;
#X connect 6 0 3 0;
#X connect 7 0 6 1;
#X connect 8 0 7 0;
